STARTFONT 2.1
COMMENT
COMMENT Converted from OpenType font "Q:\font stuff\winfont\Ubuntu-R.ttf" by "otf2bdf 3.0".
COMMENT
FONT -FreeType-Ubuntu-Medium-R-Normal--24-240-72-72-P-131-ISO10646-1
SIZE 24 72 72
FONTBOUNDINGBOX 88 30 -4 -6
STARTPROPERTIES 19
FOUNDRY "FreeType"
FAMILY_NAME "Ubuntu"
WEIGHT_NAME "Medium"
SLANT "R"
SETWIDTH_NAME "Normal"
ADD_STYLE_NAME ""
PIXEL_SIZE 24
POINT_SIZE 240
RESOLUTION_X 72
RESOLUTION_Y 72
SPACING "P"
AVERAGE_WIDTH 131
CHARSET_REGISTRY "ISO10646"
CHARSET_ENCODING "1"
FONT_ASCENT 22
FONT_DESCENT 4
COPYRIGHT "Copyright 2011 Canonical Ltd.  Licensed under the Ubuntu Font Licence 1.0"
_OTF_FONTFILE "Q:\font stuff\winfont\Ubuntu-R.ttf"
_OTF_PSNAME "Ubuntu"
ENDPROPERTIES
CHARS 1193
STARTCHAR 0008
ENCODING 8
SWIDTH 0 0
DWIDTH 0 0
BBX 0 0 0 0
BITMAP
ENDCHAR
STARTCHAR 0009
ENCODING 9
SWIDTH 250 0
DWIDTH 6 0
BBX 0 0 0 0
BITMAP
ENDCHAR
STARTCHAR 000D
ENCODING 13
SWIDTH 250 0
DWIDTH 6 0
BBX 0 0 0 0
BITMAP
ENDCHAR
STARTCHAR 001D
ENCODING 29
SWIDTH 0 0
DWIDTH 0 0
BBX 0 0 0 0
BITMAP
ENDCHAR
STARTCHAR 0020
ENCODING 32
SWIDTH 250 0
DWIDTH 6 0
BBX 0 0 0 0
BITMAP
ENDCHAR
STARTCHAR 0021
ENCODING 33
SWIDTH 291 0
DWIDTH 7 0
BBX 2 17 2 0
BITMAP
C0
C0
C0
C0
C0
C0
C0
C0
C0
C0
C0
C0
00
00
C0
C0
C0
ENDCHAR
STARTCHAR 0022
ENCODING 34
SWIDTH 416 0
DWIDTH 10 0
BBX 6 6 2 13
BITMAP
CC
CC
CC
CC
CC
CC
ENDCHAR
STARTCHAR 0023
ENCODING 35
SWIDTH 666 0
DWIDTH 16 0
BBX 14 17 1 0
BITMAP
0C18
0C18
0C38
1830
FFFC
FFFC
1830
1830
3870
3060
3060
FFFC
FFFC
3060
70C0
60C0
60C0
ENDCHAR
STARTCHAR 0024
ENCODING 36
SWIDTH 583 0
DWIDTH 14 0
BBX 11 22 1 -3
BITMAP
0600
0600
0600
1F80
7FC0
E040
C000
C000
E000
7800
1E00
0780
01C0
00E0
0060
0060
C0E0
FFC0
7F80
0600
0600
0600
ENDCHAR
STARTCHAR 0025
ENCODING 37
SWIDTH 875 0
DWIDTH 21 0
BBX 19 17 1 0
BITMAP
3C0300
7E0600
E70C00
C30C00
C31800
C33000
C33000
E76780
7EEFC0
3CDCE0
019860
019860
031860
061860
061CE0
0C0FC0
180780
ENDCHAR
STARTCHAR 0026
ENCODING 38
SWIDTH 666 0
DWIDTH 16 0
BBX 14 17 1 0
BITMAP
0F00
1F80
39C0
30C0
30C0
31C0
1B80
1F00
1E00
7F0C
638C
C198
C0D0
C070
E070
7FD8
1F0C
ENDCHAR
STARTCHAR 0027
ENCODING 39
SWIDTH 250 0
DWIDTH 6 0
BBX 2 6 2 13
BITMAP
C0
C0
C0
C0
C0
C0
ENDCHAR
STARTCHAR 0028
ENCODING 40
SWIDTH 333 0
DWIDTH 8 0
BBX 5 23 2 -4
BITMAP
08
18
30
30
60
60
60
C0
C0
C0
C0
C0
C0
C0
C0
C0
60
60
60
30
30
18
08
ENDCHAR
STARTCHAR 0029
ENCODING 41
SWIDTH 333 0
DWIDTH 8 0
BBX 5 23 1 -4
BITMAP
80
C0
60
60
30
30
30
18
18
18
18
18
18
18
18
18
30
30
30
60
60
C0
80
ENDCHAR
STARTCHAR 002A
ENCODING 42
SWIDTH 500 0
DWIDTH 12 0
BBX 9 9 2 8
BITMAP
1C00
1C00
DD80
EB80
3E00
1400
3600
7700
2200
ENDCHAR
STARTCHAR 002B
ENCODING 43
SWIDTH 583 0
DWIDTH 14 0
BBX 12 12 1 1
BITMAP
0600
0600
0600
0600
0600
FFF0
FFF0
0600
0600
0600
0600
0600
ENDCHAR
STARTCHAR 002C
ENCODING 44
SWIDTH 250 0
DWIDTH 6 0
BBX 3 7 1 -4
BITMAP
60
60
60
60
40
C0
C0
ENDCHAR
STARTCHAR 002D
ENCODING 45
SWIDTH 333 0
DWIDTH 8 0
BBX 6 2 1 6
BITMAP
FC
FC
ENDCHAR
STARTCHAR 002E
ENCODING 46
SWIDTH 250 0
DWIDTH 6 0
BBX 3 3 1 0
BITMAP
E0
E0
E0
ENDCHAR
STARTCHAR 002F
ENCODING 47
SWIDTH 375 0
DWIDTH 9 0
BBX 11 23 -1 -4
BITMAP
0060
00C0
00C0
00C0
0180
0180
0300
0300
0300
0600
0600
0E00
0C00
0C00
1800
1800
1800
3000
3000
6000
6000
6000
C000
ENDCHAR
STARTCHAR 0030
ENCODING 48
SWIDTH 583 0
DWIDTH 14 0
BBX 12 17 1 0
BITMAP
0F00
3FC0
70E0
6060
E060
C030
C030
C030
C030
C030
C030
C030
E060
6060
70E0
3FC0
0F00
ENDCHAR
STARTCHAR 0031
ENCODING 49
SWIDTH 583 0
DWIDTH 14 0
BBX 6 17 3 0
BITMAP
0C
1C
7C
EC
CC
0C
0C
0C
0C
0C
0C
0C
0C
0C
0C
0C
0C
ENDCHAR
STARTCHAR 0032
ENCODING 50
SWIDTH 583 0
DWIDTH 14 0
BBX 11 17 2 0
BITMAP
3E00
7F80
E1C0
00C0
00C0
00C0
0180
0380
0700
0E00
1C00
3800
3000
6000
C000
FFE0
FFE0
ENDCHAR
STARTCHAR 0033
ENCODING 51
SWIDTH 583 0
DWIDTH 14 0
BBX 11 17 1 0
BITMAP
3E00
FF80
41C0
00C0
00C0
00C0
0180
1F80
1F80
01C0
00E0
0060
0060
0060
81C0
FFC0
7F00
ENDCHAR
STARTCHAR 0034
ENCODING 52
SWIDTH 583 0
DWIDTH 14 0
BBX 12 17 1 0
BITMAP
01C0
01C0
03C0
07C0
0EC0
1CC0
18C0
30C0
70C0
60C0
C0C0
FFF0
FFF0
00C0
00C0
00C0
00C0
ENDCHAR
STARTCHAR 0035
ENCODING 53
SWIDTH 583 0
DWIDTH 14 0
BBX 10 17 2 0
BITMAP
3F80
3F80
3000
3000
3000
3000
7C00
7F00
0780
01C0
00C0
00C0
00C0
00C0
8180
FF80
7E00
ENDCHAR
STARTCHAR 0036
ENCODING 54
SWIDTH 583 0
DWIDTH 14 0
BBX 11 17 2 0
BITMAP
03C0
0FC0
1C00
3000
6000
6000
DF00
FFC0
C0C0
C060
C060
C060
C060
60E0
71C0
3F80
1F00
ENDCHAR
STARTCHAR 0037
ENCODING 55
SWIDTH 583 0
DWIDTH 14 0
BBX 11 17 1 0
BITMAP
FFE0
FFE0
0060
00C0
0180
0180
0300
0300
0600
0600
0C00
0C00
0C00
0C00
1800
1800
1800
ENDCHAR
STARTCHAR 0038
ENCODING 56
SWIDTH 583 0
DWIDTH 14 0
BBX 12 17 1 0
BITMAP
1F80
7FE0
60E0
C030
C030
C030
7060
7DC0
1F80
33E0
60E0
C030
C030
C030
E070
7FE0
1F80
ENDCHAR
STARTCHAR 0039
ENCODING 57
SWIDTH 583 0
DWIDTH 14 0
BBX 11 17 1 0
BITMAP
1F00
7F80
61C0
C0C0
C060
C060
C060
6060
7FE0
1F60
00E0
00C0
01C0
0380
0F00
7E00
7800
ENDCHAR
STARTCHAR 003A
ENCODING 58
SWIDTH 250 0
DWIDTH 6 0
BBX 3 13 1 0
BITMAP
E0
E0
E0
00
00
00
00
00
00
00
E0
E0
E0
ENDCHAR
STARTCHAR 003B
ENCODING 59
SWIDTH 250 0
DWIDTH 6 0
BBX 3 17 1 -4
BITMAP
E0
E0
E0
00
00
00
00
00
00
00
60
60
60
60
40
C0
C0
ENDCHAR
STARTCHAR 003C
ENCODING 60
SWIDTH 583 0
DWIDTH 14 0
BBX 11 11 2 2
BITMAP
0040
01E0
0F80
3E00
F000
C000
F000
3E00
0F80
01E0
0040
ENDCHAR
STARTCHAR 003D
ENCODING 61
SWIDTH 583 0
DWIDTH 14 0
BBX 11 7 2 4
BITMAP
FFE0
FFE0
0000
0000
0000
FFE0
FFE0
ENDCHAR
STARTCHAR 003E
ENCODING 62
SWIDTH 583 0
DWIDTH 14 0
BBX 11 11 1 2
BITMAP
4000
F000
3E00
0F80
01E0
0060
01E0
0F80
3E00
F000
4000
ENDCHAR
STARTCHAR 003F
ENCODING 63
SWIDTH 416 0
DWIDTH 10 0
BBX 8 17 1 0
BITMAP
7C
FE
07
03
03
03
06
0C
18
38
30
30
00
00
30
30
30
ENDCHAR
STARTCHAR 0040
ENCODING 64
SWIDTH 958 0
DWIDTH 23 0
BBX 19 21 2 -4
BITMAP
01F800
0FFE00
1E0700
380380
7001C0
60FCC0
63FC60
C30C60
C70C60
C60C60
C60C60
C60C60
C60CE0
C30CC0
63FFC0
60F780
700000
380000
1E0000
0FFC00
01FC00
ENDCHAR
STARTCHAR 0041
ENCODING 65
SWIDTH 625 0
DWIDTH 15 0
BBX 15 17 0 0
BITMAP
0380
0380
0380
06C0
06C0
0EE0
0C60
0C60
1830
1830
3830
3FF8
3FF8
600C
600C
600C
C006
ENDCHAR
STARTCHAR 0042
ENCODING 66
SWIDTH 625 0
DWIDTH 15 0
BBX 12 17 2 0
BITMAP
FF00
FFC0
C1E0
C060
C060
C060
C0C0
FF80
FFC0
C0E0
C030
C030
C030
C070
C0E0
FFC0
FF00
ENDCHAR
STARTCHAR 0043
ENCODING 67
SWIDTH 625 0
DWIDTH 15 0
BBX 13 17 1 0
BITMAP
07E0
1FF8
3818
7000
6000
E000
C000
C000
C000
C000
C000
C000
6000
7000
3818
1FF8
07F0
ENDCHAR
STARTCHAR 0044
ENCODING 68
SWIDTH 708 0
DWIDTH 17 0
BBX 14 17 2 0
BITMAP
FF00
FFE0
C0F0
C038
C018
C01C
C00C
C00C
C00C
C00C
C00C
C01C
C018
C038
C0F0
FFE0
FF00
ENDCHAR
STARTCHAR 0045
ENCODING 69
SWIDTH 583 0
DWIDTH 14 0
BBX 11 17 2 0
BITMAP
FFC0
FFC0
C000
C000
C000
C000
C000
FFC0
FFC0
C000
C000
C000
C000
C000
C000
FFE0
FFE0
ENDCHAR
STARTCHAR 0046
ENCODING 70
SWIDTH 541 0
DWIDTH 13 0
BBX 10 17 2 0
BITMAP
FFC0
FFC0
C000
C000
C000
C000
C000
FF80
FF80
C000
C000
C000
C000
C000
C000
C000
C000
ENDCHAR
STARTCHAR 0047
ENCODING 71
SWIDTH 666 0
DWIDTH 16 0
BBX 13 17 1 0
BITMAP
07E0
1FF8
3810
7000
6000
E000
C000
C000
C000
C018
C018
C018
6018
7018
3818
1FF8
07F0
ENDCHAR
STARTCHAR 0048
ENCODING 72
SWIDTH 708 0
DWIDTH 17 0
BBX 13 17 2 0
BITMAP
C018
C018
C018
C018
C018
C018
C018
FFF8
FFF8
C018
C018
C018
C018
C018
C018
C018
C018
ENDCHAR
STARTCHAR 0049
ENCODING 73
SWIDTH 250 0
DWIDTH 6 0
BBX 2 17 2 0
BITMAP
C0
C0
C0
C0
C0
C0
C0
C0
C0
C0
C0
C0
C0
C0
C0
C0
C0
ENDCHAR
STARTCHAR 004A
ENCODING 74
SWIDTH 500 0
DWIDTH 12 0
BBX 10 17 0 0
BITMAP
00C0
00C0
00C0
00C0
00C0
00C0
00C0
00C0
00C0
00C0
00C0
00C0
00C0
00C0
4180
FF80
3E00
ENDCHAR
STARTCHAR 004B
ENCODING 75
SWIDTH 625 0
DWIDTH 15 0
BBX 13 17 2 0
BITMAP
C070
C0E0
C1C0
C380
C700
CE00
DC00
F800
F000
FC00
DE00
CF00
C380
C1C0
C0E0
C070
C038
ENDCHAR
STARTCHAR 004C
ENCODING 76
SWIDTH 500 0
DWIDTH 12 0
BBX 10 17 2 0
BITMAP
C000
C000
C000
C000
C000
C000
C000
C000
C000
C000
C000
C000
C000
C000
C000
FFC0
FFC0
ENDCHAR
STARTCHAR 004D
ENCODING 77
SWIDTH 833 0
DWIDTH 20 0
BBX 18 17 1 0
BITMAP
600180
700380
700380
780780
680580
6C0D80
E40980
C618C0
C610C0
C330C0
C330C0
C120C0
C1E0C0
C1E0C0
C0C0C0
C000C0
C000C0
ENDCHAR
STARTCHAR 004E
ENCODING 78
SWIDTH 708 0
DWIDTH 17 0
BBX 13 17 2 0
BITMAP
C018
E018
F018
F818
D818
CC18
CE18
C718
C318
C198
C1D8
C0D8
C078
C038
C038
C018
C008
ENDCHAR
STARTCHAR 004F
ENCODING 79
SWIDTH 750 0
DWIDTH 18 0
BBX 16 17 1 0
BITMAP
07E0
1FF8
381C
700E
6006
E007
C003
C003
C003
C003
C003
E007
6006
700E
381C
1FF8
07E0
ENDCHAR
STARTCHAR 0050
ENCODING 80
SWIDTH 625 0
DWIDTH 15 0
BBX 12 17 2 0
BITMAP
FF00
FFC0
C0E0
C070
C030
C030
C030
C070
C0E0
FFC0
FF00
C000
C000
C000
C000
C000
C000
ENDCHAR
STARTCHAR 0051
ENCODING 81
SWIDTH 791 0
DWIDTH 19 0
BBX 17 21 1 -4
BITMAP
07F000
1FFC00
3C1E00
700700
600300
E00380
C00180
C00180
C00180
C00180
C00180
E00380
600300
700700
3C1E00
1FF800
03E000
00C000
007800
003E00
000E00
ENDCHAR
STARTCHAR 0052
ENCODING 82
SWIDTH 625 0
DWIDTH 15 0
BBX 13 17 2 0
BITMAP
FF00
FFC0
C0E0
C030
C030
C030
C030
C0E0
FFC0
FF80
C180
C0C0
C0E0
C060
C030
C038
C018
ENDCHAR
STARTCHAR 0053
ENCODING 83
SWIDTH 541 0
DWIDTH 13 0
BBX 11 17 1 0
BITMAP
1F80
7FC0
E080
C000
C000
E000
7800
3C00
0F00
03C0
00C0
0060
0060
0060
C0E0
FFC0
3F00
ENDCHAR
STARTCHAR 0054
ENCODING 84
SWIDTH 500 0
DWIDTH 12 0
BBX 12 17 0 0
BITMAP
FFF0
FFF0
0600
0600
0600
0600
0600
0600
0600
0600
0600
0600
0600
0600
0600
0600
0600
ENDCHAR
STARTCHAR 0055
ENCODING 85
SWIDTH 708 0
DWIDTH 17 0
BBX 13 17 2 0
BITMAP
C018
C018
C018
C018
C018
C018
C018
C018
C018
C018
C018
C018
C018
6030
7070
3FE0
0F80
ENDCHAR
STARTCHAR 0056
ENCODING 86
SWIDTH 666 0
DWIDTH 16 0
BBX 16 17 0 0
BITMAP
C003
6006
6006
6006
300C
300C
381C
1818
1818
0C30
0C30
0670
0660
07E0
03C0
03C0
0180
ENDCHAR
STARTCHAR 0057
ENCODING 87
SWIDTH 958 0
DWIDTH 23 0
BBX 21 17 1 0
BITMAP
C00018
C00018
E03038
607030
607030
605830
60D870
70D870
30DC60
318C60
318C60
3B8EE0
1B06C0
1B06C0
1E07C0
0E0380
0E0380
ENDCHAR
STARTCHAR 0058
ENCODING 88
SWIDTH 625 0
DWIDTH 15 0
BBX 14 17 1 0
BITMAP
E01C
6018
3030
3870
1860
0CC0
0FC0
0780
0300
0780
0FC0
0CC0
1860
3870
7030
6018
E01C
ENDCHAR
STARTCHAR 0059
ENCODING 89
SWIDTH 583 0
DWIDTH 14 0
BBX 14 17 0 0
BITMAP
C00C
6018
7038
3030
1860
1860
0CC0
0FC0
0780
0300
0300
0300
0300
0300
0300
0300
0300
ENDCHAR
STARTCHAR 005A
ENCODING 90
SWIDTH 583 0
DWIDTH 14 0
BBX 12 17 1 0
BITMAP
FFF0
FFF0
0070
0060
00C0
0180
0300
0700
0600
0C00
1800
3800
3000
6000
E000
FFF0
FFF0
ENDCHAR
STARTCHAR 005B
ENCODING 91
SWIDTH 333 0
DWIDTH 8 0
BBX 6 23 2 -4
BITMAP
FC
FC
C0
C0
C0
C0
C0
C0
C0
C0
C0
C0
C0
C0
C0
C0
C0
C0
C0
C0
C0
FC
FC
ENDCHAR
STARTCHAR 005C
ENCODING 92
SWIDTH 375 0
DWIDTH 9 0
BBX 11 23 -1 -4
BITMAP
C000
6000
6000
6000
3000
3000
1800
1800
1800
0C00
0C00
0E00
0600
0600
0300
0300
0300
0180
0180
00C0
00C0
00C0
0060
ENDCHAR
STARTCHAR 005D
ENCODING 93
SWIDTH 333 0
DWIDTH 8 0
BBX 6 23 0 -4
BITMAP
FC
FC
0C
0C
0C
0C
0C
0C
0C
0C
0C
0C
0C
0C
0C
0C
0C
0C
0C
0C
0C
FC
FC
ENDCHAR
STARTCHAR 005E
ENCODING 94
SWIDTH 583 0
DWIDTH 14 0
BBX 11 9 1 8
BITMAP
0400
0E00
1B00
1B00
3180
3180
60C0
E0E0
4040
ENDCHAR
STARTCHAR 005F
ENCODING 95
SWIDTH 500 0
DWIDTH 12 0
BBX 12 2 0 -4
BITMAP
FFF0
FFF0
ENDCHAR
STARTCHAR 0060
ENCODING 96
SWIDTH 375 0
DWIDTH 9 0
BBX 5 5 1 14
BITMAP
40
E0
70
38
10
ENDCHAR
STARTCHAR 0061
ENCODING 97
SWIDTH 541 0
DWIDTH 13 0
BBX 10 13 1 0
BITMAP
7F00
7F80
01C0
00C0
00C0
3FC0
7FC0
E0C0
C0C0
C0C0
E0C0
7FC0
3FC0
ENDCHAR
STARTCHAR 0062
ENCODING 98
SWIDTH 583 0
DWIDTH 14 0
BBX 11 18 2 0
BITMAP
C000
C000
C000
C000
C000
DF00
FF80
E1C0
C0C0
C060
C060
C060
C060
C060
C0C0
C1C0
FF80
7E00
ENDCHAR
STARTCHAR 0063
ENCODING 99
SWIDTH 458 0
DWIDTH 11 0
BBX 10 13 1 0
BITMAP
0FC0
3FC0
7000
6000
C000
C000
C000
C000
C000
6000
7000
3FC0
0FC0
ENDCHAR
STARTCHAR 0064
ENCODING 100
SWIDTH 583 0
DWIDTH 14 0
BBX 11 18 1 0
BITMAP
0060
0060
0060
0060
0060
1F60
3FE0
70E0
6060
C060
C060
C060
C060
C060
6060
7060
3FE0
0FC0
ENDCHAR
STARTCHAR 0065
ENCODING 101
SWIDTH 541 0
DWIDTH 13 0
BBX 11 13 1 0
BITMAP
1F00
3FC0
70C0
6060
C060
FFE0
FFE0
C000
C000
E000
7040
3FC0
1F80
ENDCHAR
STARTCHAR 0066
ENCODING 102
SWIDTH 375 0
DWIDTH 9 0
BBX 7 18 2 0
BITMAP
3E
7E
E0
C0
C0
FC
FC
C0
C0
C0
C0
C0
C0
C0
C0
C0
C0
C0
ENDCHAR
STARTCHAR 0067
ENCODING 103
SWIDTH 583 0
DWIDTH 14 0
BBX 11 17 1 -4
BITMAP
0FC0
3FE0
7060
6060
C060
C060
C060
C060
C060
E060
70E0
3FE0
1F60
0060
40C0
7FC0
3F00
ENDCHAR
STARTCHAR 0068
ENCODING 104
SWIDTH 583 0
DWIDTH 14 0
BBX 10 18 2 0
BITMAP
C000
C000
C000
C000
C000
FE00
FF80
C180
C0C0
C0C0
C0C0
C0C0
C0C0
C0C0
C0C0
C0C0
C0C0
C0C0
ENDCHAR
STARTCHAR 0069
ENCODING 105
SWIDTH 250 0
DWIDTH 6 0
BBX 2 18 2 0
BITMAP
C0
C0
00
00
00
C0
C0
C0
C0
C0
C0
C0
C0
C0
C0
C0
C0
C0
ENDCHAR
STARTCHAR 006A
ENCODING 106
SWIDTH 250 0
DWIDTH 6 0
BBX 6 22 -2 -4
BITMAP
0C
0C
00
00
00
0C
0C
0C
0C
0C
0C
0C
0C
0C
0C
0C
0C
0C
0C
1C
F8
F0
ENDCHAR
STARTCHAR 006B
ENCODING 107
SWIDTH 541 0
DWIDTH 13 0
BBX 11 18 2 0
BITMAP
C000
C000
C000
C000
C000
C0C0
C180
C700
CE00
D800
F000
F800
DE00
C600
C300
C180
C0C0
C060
ENDCHAR
STARTCHAR 006C
ENCODING 108
SWIDTH 291 0
DWIDTH 7 0
BBX 4 18 2 0
BITMAP
C0
C0
C0
C0
C0
C0
C0
C0
C0
C0
C0
C0
C0
C0
C0
C0
F0
70
ENDCHAR
STARTCHAR 006D
ENCODING 109
SWIDTH 916 0
DWIDTH 22 0
BBX 18 13 2 0
BITMAP
7F3F00
FFFF80
C1C1C0
C0C0C0
C0C0C0
C0C0C0
C0C0C0
C0C0C0
C0C0C0
C0C0C0
C0C0C0
C0C0C0
C0C0C0
ENDCHAR
STARTCHAR 006E
ENCODING 110
SWIDTH 583 0
DWIDTH 14 0
BBX 10 13 2 0
BITMAP
7E00
FF80
C180
C0C0
C0C0
C0C0
C0C0
C0C0
C0C0
C0C0
C0C0
C0C0
C0C0
ENDCHAR
STARTCHAR 006F
ENCODING 111
SWIDTH 583 0
DWIDTH 14 0
BBX 12 13 1 0
BITMAP
0F00
3FC0
70E0
6060
C030
C030
C030
C030
C030
6060
70E0
3FC0
0F00
ENDCHAR
STARTCHAR 0070
ENCODING 112
SWIDTH 583 0
DWIDTH 14 0
BBX 11 17 2 -4
BITMAP
7E00
FF80
C1C0
C0C0
C060
C060
C060
C060
C060
C0E0
E1C0
FF80
DF00
C000
C000
C000
C000
ENDCHAR
STARTCHAR 0071
ENCODING 113
SWIDTH 583 0
DWIDTH 14 0
BBX 11 17 1 -4
BITMAP
0FC0
3FE0
7060
6060
C060
C060
C060
C060
C060
6060
70E0
3FE0
1F60
0060
0060
0060
0060
ENDCHAR
STARTCHAR 0072
ENCODING 114
SWIDTH 375 0
DWIDTH 9 0
BBX 7 13 2 0
BITMAP
7E
FE
C0
C0
C0
C0
C0
C0
C0
C0
C0
C0
C0
ENDCHAR
STARTCHAR 0073
ENCODING 115
SWIDTH 458 0
DWIDTH 11 0
BBX 9 13 1 0
BITMAP
3F00
7F00
E100
C000
C000
7800
3E00
0F00
0380
0180
8380
FF00
7E00
ENDCHAR
STARTCHAR 0074
ENCODING 116
SWIDTH 416 0
DWIDTH 10 0
BBX 7 17 2 0
BITMAP
C0
C0
C0
C0
FE
FE
C0
C0
C0
C0
C0
C0
C0
C0
E2
7E
3E
ENDCHAR
STARTCHAR 0075
ENCODING 117
SWIDTH 583 0
DWIDTH 14 0
BBX 10 13 2 0
BITMAP
C0C0
C0C0
C0C0
C0C0
C0C0
C0C0
C0C0
C0C0
C0C0
C0C0
60C0
7FC0
1F80
ENDCHAR
STARTCHAR 0076
ENCODING 118
SWIDTH 500 0
DWIDTH 12 0
BBX 12 13 0 0
BITMAP
C030
E070
6060
6060
70E0
30C0
30C0
1980
1980
1F80
0F00
0F00
0600
ENDCHAR
STARTCHAR 0077
ENCODING 119
SWIDTH 791 0
DWIDTH 19 0
BBX 19 13 0 0
BITMAP
C04060
C0E0E0
60E0C0
60E0C0
61B0C0
31B180
31B180
33B980
1B1B00
1B1B00
1F1F00
0E0E00
0E0E00
ENDCHAR
STARTCHAR 0078
ENCODING 120
SWIDTH 500 0
DWIDTH 12 0
BBX 12 13 0 0
BITMAP
E070
6060
30C0
1980
1F80
0F00
0600
0F00
1F80
39C0
30C0
6060
E070
ENDCHAR
STARTCHAR 0079
ENCODING 121
SWIDTH 458 0
DWIDTH 11 0
BBX 11 17 0 -4
BITMAP
C060
60C0
60C0
60C0
7180
3180
3180
3B00
1B00
1B00
1E00
0E00
0E00
0C00
1C00
F800
F000
ENDCHAR
STARTCHAR 007A
ENCODING 122
SWIDTH 458 0
DWIDTH 11 0
BBX 9 13 1 0
BITMAP
FF80
FF80
0380
0700
0600
0C00
1800
3800
3000
6000
E000
FF80
FF80
ENDCHAR
STARTCHAR 007B
ENCODING 123
SWIDTH 333 0
DWIDTH 8 0
BBX 7 23 1 -4
BITMAP
0E
1E
38
30
30
30
30
30
30
30
60
C0
E0
70
30
30
30
30
30
30
38
1E
0E
ENDCHAR
STARTCHAR 007C
ENCODING 124
SWIDTH 291 0
DWIDTH 7 0
BBX 2 23 2 -4
BITMAP
C0
C0
C0
C0
C0
C0
C0
C0
C0
C0
C0
C0
C0
C0
C0
C0
C0
C0
C0
C0
C0
C0
C0
ENDCHAR
STARTCHAR 007D
ENCODING 125
SWIDTH 333 0
DWIDTH 8 0
BBX 7 23 0 -4
BITMAP
E0
F0
38
18
18
18
18
18
18
18
0C
06
0E
1C
18
18
18
18
18
18
38
F0
E0
ENDCHAR
STARTCHAR 007E
ENCODING 126
SWIDTH 583 0
DWIDTH 14 0
BBX 11 4 1 5
BITMAP
3860
7CE0
E7C0
C380
ENDCHAR
STARTCHAR 00A0
ENCODING 160
SWIDTH 250 0
DWIDTH 6 0
BBX 0 0 0 0
BITMAP
ENDCHAR
STARTCHAR 00A1
ENCODING 161
SWIDTH 291 0
DWIDTH 7 0
BBX 2 17 2 -4
BITMAP
C0
C0
C0
00
00
C0
C0
C0
C0
C0
C0
C0
C0
C0
C0
C0
C0
ENDCHAR
STARTCHAR 00A2
ENCODING 162
SWIDTH 583 0
DWIDTH 14 0
BBX 10 19 2 -3
BITMAP
0600
0600
0600
0FC0
3FC0
7040
6000
C000
C000
C000
C000
C000
6000
7000
3FC0
0FC0
0600
0600
0600
ENDCHAR
STARTCHAR 00A3
ENCODING 163
SWIDTH 583 0
DWIDTH 14 0
BBX 12 17 1 0
BITMAP
07E0
1FF0
1C00
3800
3000
3000
3000
3000
FFC0
FFC0
3000
3000
3000
3000
3000
7FF0
7FF0
ENDCHAR
STARTCHAR 00A4
ENCODING 164
SWIDTH 583 0
DWIDTH 14 0
BBX 11 11 1 3
BITMAP
4040
FFE0
7FC0
71C0
60C0
60C0
60C0
71C0
7FC0
FFE0
4040
ENDCHAR
STARTCHAR 00A5
ENCODING 165
SWIDTH 500 0
DWIDTH 12 0
BBX 12 17 0 0
BITMAP
C030
6060
6060
30C0
39C0
1980
1F00
0F00
7FE0
7FE0
0600
0600
7FE0
7FE0
0600
0600
0600
ENDCHAR
STARTCHAR 00A6
ENCODING 166
SWIDTH 291 0
DWIDTH 7 0
BBX 2 23 2 -4
BITMAP
C0
C0
C0
C0
C0
C0
C0
C0
C0
00
00
00
00
00
C0
C0
C0
C0
C0
C0
C0
C0
C0
ENDCHAR
STARTCHAR 00A7
ENCODING 167
SWIDTH 500 0
DWIDTH 12 0
BBX 10 20 1 -2
BITMAP
1F00
3F80
7180
6000
6000
7800
3F00
6780
C1C0
C0C0
C0C0
E0C0
7D80
1F00
0780
0180
0180
8380
FF00
7E00
ENDCHAR
STARTCHAR 00A8
ENCODING 168
SWIDTH 375 0
DWIDTH 9 0
BBX 8 3 1 15
BITMAP
E7
E7
E7
ENDCHAR
STARTCHAR 00A9
ENCODING 169
SWIDTH 833 0
DWIDTH 20 0
BBX 16 17 2 0
BITMAP
07E0
1FF8
3C3C
700E
63C6
E7E7
CE23
CC03
CC03
CC03
CE23
E7E7
63E6
700E
381C
1FF8
07E0
ENDCHAR
STARTCHAR 00AA
ENCODING 170
SWIDTH 375 0
DWIDTH 9 0
BBX 7 9 1 8
BITMAP
7C
7E
06
7E
FE
C6
C6
FE
7E
ENDCHAR
STARTCHAR 00AB
ENCODING 171
SWIDTH 500 0
DWIDTH 12 0
BBX 11 11 1 1
BITMAP
0840
1CE0
39C0
7380
7380
E700
7380
7380
39C0
1CE0
0840
ENDCHAR
STARTCHAR 00AC
ENCODING 172
SWIDTH 583 0
DWIDTH 14 0
BBX 12 9 1 1
BITMAP
FFF0
FFF0
0030
0030
0030
0030
0030
0030
0030
ENDCHAR
STARTCHAR 00AD
ENCODING 173
SWIDTH 333 0
DWIDTH 8 0
BBX 6 2 1 6
BITMAP
FC
FC
ENDCHAR
STARTCHAR 00AE
ENCODING 174
SWIDTH 833 0
DWIDTH 20 0
BBX 16 17 2 0
BITMAP
07E0
1FF8
3C3C
700E
67C6
E7E7
C663
C663
C7E3
C7C3
C6C3
E6C7
6666
700E
381C
1FF8
07E0
ENDCHAR
STARTCHAR 00AF
ENCODING 175
SWIDTH 375 0
DWIDTH 9 0
BBX 7 2 1 15
BITMAP
FE
FE
ENDCHAR
STARTCHAR 00B0
ENCODING 176
SWIDTH 333 0
DWIDTH 8 0
BBX 7 7 1 12
BITMAP
38
7C
C6
C6
C6
7C
38
ENDCHAR
STARTCHAR 00B1
ENCODING 177
SWIDTH 583 0
DWIDTH 14 0
BBX 12 15 1 0
BITMAP
0600
0600
0600
0600
0600
FFF0
FFF0
0600
0600
0600
0600
0600
0000
FFF0
FFF0
ENDCHAR
STARTCHAR 00B2
ENCODING 178
SWIDTH 375 0
DWIDTH 9 0
BBX 7 9 1 8
BITMAP
7C
FE
46
06
08
30
40
FE
FE
ENDCHAR
STARTCHAR 00B3
ENCODING 179
SWIDTH 375 0
DWIDTH 9 0
BBX 7 9 1 8
BITMAP
78
FC
0C
38
3C
06
06
FE
FC
ENDCHAR
STARTCHAR 00B4
ENCODING 180
SWIDTH 375 0
DWIDTH 9 0
BBX 5 5 3 14
BITMAP
10
38
70
E0
40
ENDCHAR
STARTCHAR 00B5
ENCODING 181
SWIDTH 583 0
DWIDTH 14 0
BBX 10 17 2 -4
BITMAP
C0C0
C0C0
C0C0
C0C0
C0C0
C0C0
C0C0
C0C0
C0C0
C0C0
E0C0
FFC0
DF80
C000
C000
C000
C000
ENDCHAR
STARTCHAR 00B6
ENCODING 182
SWIDTH 666 0
DWIDTH 16 0
BBX 13 21 1 -4
BITMAP
0FF8
3FF8
7F18
FF18
FF18
FF18
FF18
FF18
7F18
1F18
0318
0318
0318
0318
0318
0318
0318
0318
0318
0318
0318
ENDCHAR
STARTCHAR 00B7
ENCODING 183
SWIDTH 250 0
DWIDTH 6 0
BBX 3 3 1 6
BITMAP
E0
E0
E0
ENDCHAR
STARTCHAR 00B8
ENCODING 184
SWIDTH 375 0
DWIDTH 9 0
BBX 4 5 2 -5
BITMAP
30
60
70
30
F0
ENDCHAR
STARTCHAR 00B9
ENCODING 185
SWIDTH 375 0
DWIDTH 9 0
BBX 4 9 2 8
BITMAP
30
70
F0
B0
30
30
30
30
30
ENDCHAR
STARTCHAR 00BA
ENCODING 186
SWIDTH 458 0
DWIDTH 11 0
BBX 9 9 1 8
BITMAP
3E00
7F00
E380
C180
C180
C180
E380
7F00
3E00
ENDCHAR
STARTCHAR 00BB
ENCODING 187
SWIDTH 500 0
DWIDTH 12 0
BBX 11 11 0 1
BITMAP
4200
E700
7380
39C0
39C0
1CE0
39C0
39C0
7380
E700
4200
ENDCHAR
STARTCHAR 00BC
ENCODING 188
SWIDTH 875 0
DWIDTH 21 0
BBX 18 17 2 0
BITMAP
300C00
701800
F01800
B03000
303000
306000
306000
30C180
31C380
018780
030D80
031980
061FC0
061FC0
0C0180
0C0180
180000
ENDCHAR
STARTCHAR 00BD
ENCODING 189
SWIDTH 875 0
DWIDTH 21 0
BBX 18 17 2 0
BITMAP
301800
703000
F03000
B06000
306000
30C000
30C000
318F80
339FC0
0308C0
0600C0
060100
0C0600
0C0800
181FC0
181FC0
300000
ENDCHAR
STARTCHAR 00BE
ENCODING 190
SWIDTH 875 0
DWIDTH 21 0
BBX 19 17 1 0
BITMAP
780600
FC0C00
0C0C00
381800
3C1800
063000
063000
FE60C0
FCE1C0
00C3C0
0186C0
018CC0
030FE0
030FE0
0600C0
0600C0
0C0000
ENDCHAR
STARTCHAR 00BF
ENCODING 191
SWIDTH 416 0
DWIDTH 10 0
BBX 9 17 1 -4
BITMAP
0C00
0C00
0C00
0000
0000
0C00
0C00
1C00
1800
3000
6000
C000
C000
C000
E000
7F80
3F00
ENDCHAR
STARTCHAR 00C0
ENCODING 192
SWIDTH 625 0
DWIDTH 15 0
BBX 15 23 0 0
BITMAP
0400
0E00
0700
0380
0100
0000
0380
0380
0380
06C0
06C0
0EE0
0C60
0C60
1830
1830
3830
3FF8
3FF8
600C
600C
600C
C006
ENDCHAR
STARTCHAR 00C1
ENCODING 193
SWIDTH 625 0
DWIDTH 15 0
BBX 15 23 0 0
BITMAP
0040
00E0
01C0
0380
0100
0000
0380
0380
0380
06C0
06C0
0EE0
0C60
0C60
1830
1830
3830
3FF8
3FF8
600C
600C
600C
C006
ENDCHAR
STARTCHAR 00C2
ENCODING 194
SWIDTH 625 0
DWIDTH 15 0
BBX 15 22 0 0
BITMAP
0100
0380
06C0
0C60
0000
0380
0380
0380
06C0
06C0
0EE0
0C60
0C60
1830
1830
3830
3FF8
3FF8
600C
600C
600C
C006
ENDCHAR
STARTCHAR 00C3
ENCODING 195
SWIDTH 625 0
DWIDTH 15 0
BBX 15 22 0 0
BITMAP
0E60
1FE0
19C0
0000
0000
0380
0380
0380
06C0
06C0
0EE0
0C60
0C60
1830
1830
3830
3FF8
3FF8
600C
600C
600C
C006
ENDCHAR
STARTCHAR 00C4
ENCODING 196
SWIDTH 625 0
DWIDTH 15 0
BBX 15 22 0 0
BITMAP
1CE0
1CE0
1CE0
0000
0000
0380
0380
0380
06C0
06C0
0EE0
0C60
0C60
1830
1830
3830
3FF8
3FF8
600C
600C
600C
C006
ENDCHAR
STARTCHAR 00C5
ENCODING 197
SWIDTH 666 0
DWIDTH 16 0
BBX 16 21 0 0
BITMAP
07C0
0C60
0C60
0C60
07C0
0380
0380
06C0
06C0
0E60
0C60
0C30
1830
1838
3818
3FF8
3FFC
600C
6006
6006
C003
ENDCHAR
STARTCHAR 00C6
ENCODING 198
SWIDTH 916 0
DWIDTH 22 0
BBX 21 17 0 0
BITMAP
003FF0
007FF0
00F800
00D800
019800
019800
031800
031FF0
061FF0
0C1800
0C1800
1FF800
1FF800
301800
701800
601FF8
C01FF8
ENDCHAR
STARTCHAR 00C7
ENCODING 199
SWIDTH 625 0
DWIDTH 15 0
BBX 13 21 1 -4
BITMAP
07E0
1FF8
3818
7000
6000
E000
C000
C000
C000
C000
C000
C000
6000
7000
3818
1FF8
07F0
0300
0380
0180
0780
ENDCHAR
STARTCHAR 00C8
ENCODING 200
SWIDTH 583 0
DWIDTH 14 0
BBX 11 23 2 0
BITMAP
0800
1C00
0E00
0700
0200
0000
FFC0
FFC0
C000
C000
C000
C000
C000
FFC0
FFC0
C000
C000
C000
C000
C000
C000
FFE0
FFE0
ENDCHAR
STARTCHAR 00C9
ENCODING 201
SWIDTH 583 0
DWIDTH 14 0
BBX 11 23 2 0
BITMAP
0100
0380
0700
0E00
0400
0000
FFC0
FFC0
C000
C000
C000
C000
C000
FFC0
FFC0
C000
C000
C000
C000
C000
C000
FFE0
FFE0
ENDCHAR
STARTCHAR 00CA
ENCODING 202
SWIDTH 583 0
DWIDTH 14 0
BBX 11 22 2 0
BITMAP
0400
0E00
1B00
3180
0000
FFC0
FFC0
C000
C000
C000
C000
C000
FFC0
FFC0
C000
C000
C000
C000
C000
C000
FFE0
FFE0
ENDCHAR
STARTCHAR 00CB
ENCODING 203
SWIDTH 583 0
DWIDTH 14 0
BBX 11 22 2 0
BITMAP
7380
7380
7380
0000
0000
FFC0
FFC0
C000
C000
C000
C000
C000
FFC0
FFC0
C000
C000
C000
C000
C000
C000
FFE0
FFE0
ENDCHAR
STARTCHAR 00CC
ENCODING 204
SWIDTH 250 0
DWIDTH 6 0
BBX 5 23 0 0
BITMAP
40
E0
70
38
10
00
30
30
30
30
30
30
30
30
30
30
30
30
30
30
30
30
30
ENDCHAR
STARTCHAR 00CD
ENCODING 205
SWIDTH 250 0
DWIDTH 6 0
BBX 5 23 1 0
BITMAP
10
38
70
E0
40
00
60
60
60
60
60
60
60
60
60
60
60
60
60
60
60
60
60
ENDCHAR
STARTCHAR 00CE
ENCODING 206
SWIDTH 250 0
DWIDTH 6 0
BBX 7 22 -1 0
BITMAP
10
38
6C
C6
00
18
18
18
18
18
18
18
18
18
18
18
18
18
18
18
18
18
ENDCHAR
STARTCHAR 00CF
ENCODING 207
SWIDTH 250 0
DWIDTH 6 0
BBX 8 22 -1 0
BITMAP
E7
E7
E7
00
00
18
18
18
18
18
18
18
18
18
18
18
18
18
18
18
18
18
ENDCHAR
STARTCHAR 00D0
ENCODING 208
SWIDTH 708 0
DWIDTH 17 0
BBX 16 17 0 0
BITMAP
3FC0
3FF8
303C
300E
3006
3007
3003
FE03
FE03
3003
3003
3007
3006
300E
303C
3FF8
3FC0
ENDCHAR
STARTCHAR 00D1
ENCODING 209
SWIDTH 708 0
DWIDTH 17 0
BBX 13 22 2 0
BITMAP
1CC0
3FC0
3380
0000
0000
C018
E018
F018
F818
D818
CC18
CE18
C718
C318
C198
C1D8
C0D8
C078
C038
C038
C018
C008
ENDCHAR
STARTCHAR 00D2
ENCODING 210
SWIDTH 750 0
DWIDTH 18 0
BBX 16 23 1 0
BITMAP
0200
0700
0380
01C0
0080
0000
07E0
1FF8
381C
700E
6006
E007
C003
C003
C003
C003
C003
E007
6006
700E
381C
1FF8
07E0
ENDCHAR
STARTCHAR 00D3
ENCODING 211
SWIDTH 750 0
DWIDTH 18 0
BBX 16 23 1 0
BITMAP
0040
00E0
01C0
0380
0100
0000
07E0
1FF8
381C
700E
6006
E007
C003
C003
C003
C003
C003
E007
6006
700E
381C
1FF8
07E0
ENDCHAR
STARTCHAR 00D4
ENCODING 212
SWIDTH 750 0
DWIDTH 18 0
BBX 16 22 1 0
BITMAP
0100
0380
06C0
0C60
0000
07E0
1FF8
381C
700E
6006
E007
C003
C003
C003
C003
C003
E007
6006
700E
381C
1FF8
07E0
ENDCHAR
STARTCHAR 00D5
ENCODING 213
SWIDTH 750 0
DWIDTH 18 0
BBX 16 22 1 0
BITMAP
0730
0FF0
0CE0
0000
0000
07E0
1FF8
381C
700E
6006
E007
C003
C003
C003
C003
C003
E007
6006
700E
381C
1FF8
07E0
ENDCHAR
STARTCHAR 00D6
ENCODING 214
SWIDTH 750 0
DWIDTH 18 0
BBX 16 22 1 0
BITMAP
0E70
0E70
0E70
0000
0000
07E0
1FF8
381C
700E
6006
E007
C003
C003
C003
C003
C003
E007
6006
700E
381C
1FF8
07E0
ENDCHAR
STARTCHAR 00D7
ENCODING 215
SWIDTH 583 0
DWIDTH 14 0
BBX 9 9 3 3
BITMAP
C180
E380
7700
3E00
1C00
3E00
7700
E380
C180
ENDCHAR
STARTCHAR 00D8
ENCODING 216
SWIDTH 750 0
DWIDTH 18 0
BBX 16 19 1 -1
BITMAP
0002
07E7
1FFE
3C1C
701E
603E
E037
C063
C0C3
C1C3
C183
C303
6607
7E06
3C0E
1C1C
3FF8
73E0
2000
ENDCHAR
STARTCHAR 00D9
ENCODING 217
SWIDTH 708 0
DWIDTH 17 0
BBX 13 23 2 0
BITMAP
0800
1C00
0E00
0700
0200
0000
C018
C018
C018
C018
C018
C018
C018
C018
C018
C018
C018
C018
C018
6030
7070
3FE0
0F80
ENDCHAR
STARTCHAR 00DA
ENCODING 218
SWIDTH 708 0
DWIDTH 17 0
BBX 13 23 2 0
BITMAP
0080
01C0
0380
0700
0200
0000
C018
C018
C018
C018
C018
C018
C018
C018
C018
C018
C018
C018
C018
6030
7070
3FE0
0F80
ENDCHAR
STARTCHAR 00DB
ENCODING 219
SWIDTH 708 0
DWIDTH 17 0
BBX 13 22 2 0
BITMAP
0200
0700
0D80
18C0
0000
C018
C018
C018
C018
C018
C018
C018
C018
C018
C018
C018
C018
C018
6030
7070
3FE0
0F80
ENDCHAR
STARTCHAR 00DC
ENCODING 220
SWIDTH 708 0
DWIDTH 17 0
BBX 13 22 2 0
BITMAP
39C0
39C0
39C0
0000
0000
C018
C018
C018
C018
C018
C018
C018
C018
C018
C018
C018
C018
C018
6030
7070
3FE0
0F80
ENDCHAR
STARTCHAR 00DD
ENCODING 221
SWIDTH 583 0
DWIDTH 14 0
BBX 14 23 0 0
BITMAP
0080
01C0
0380
0700
0200
0000
C00C
6018
7038
3030
1860
1860
0CC0
0FC0
0780
0300
0300
0300
0300
0300
0300
0300
0300
ENDCHAR
STARTCHAR 00DE
ENCODING 222
SWIDTH 625 0
DWIDTH 15 0
BBX 12 17 2 0
BITMAP
C000
C000
C000
FF00
FFC0
C0E0
C070
C030
C030
C030
C070
C0E0
FFC0
FF00
C000
C000
C000
ENDCHAR
STARTCHAR 00DF
ENCODING 223
SWIDTH 625 0
DWIDTH 15 0
BBX 12 18 2 0
BITMAP
1F00
7F80
61C0
C0C0
C0C0
C180
C300
C600
CC00
CE00
CF80
C3E0
C0F0
C030
C030
C870
CFE0
CFC0
ENDCHAR
STARTCHAR 00E0
ENCODING 224
SWIDTH 541 0
DWIDTH 13 0
BBX 10 19 1 0
BITMAP
1000
3800
1C00
0E00
0400
0000
7F00
7F80
01C0
00C0
00C0
3FC0
7FC0
E0C0
C0C0
C0C0
E0C0
7FC0
3FC0
ENDCHAR
STARTCHAR 00E1
ENCODING 225
SWIDTH 541 0
DWIDTH 13 0
BBX 10 19 1 0
BITMAP
0100
0380
0700
0E00
0400
0000
7F00
7F80
01C0
00C0
00C0
3FC0
7FC0
E0C0
C0C0
C0C0
E0C0
7FC0
3FC0
ENDCHAR
STARTCHAR 00E2
ENCODING 226
SWIDTH 541 0
DWIDTH 13 0
BBX 10 18 1 0
BITMAP
0400
0E00
1B00
3180
0000
7F00
7F80
01C0
00C0
00C0
3FC0
7FC0
E0C0
C0C0
C0C0
E0C0
7FC0
3FC0
ENDCHAR
STARTCHAR 00E3
ENCODING 227
SWIDTH 541 0
DWIDTH 13 0
BBX 10 18 1 0
BITMAP
3980
7F80
6700
0000
0000
7F00
7F80
01C0
00C0
00C0
3FC0
7FC0
E0C0
C0C0
C0C0
E0C0
7FC0
3FC0
ENDCHAR
STARTCHAR 00E4
ENCODING 228
SWIDTH 541 0
DWIDTH 13 0
BBX 10 18 1 0
BITMAP
7380
7380
7380
0000
0000
7F00
7F80
01C0
00C0
00C0
3FC0
7FC0
E0C0
C0C0
C0C0
E0C0
7FC0
3FC0
ENDCHAR
STARTCHAR 00E5
ENCODING 229
SWIDTH 541 0
DWIDTH 13 0
BBX 10 19 1 0
BITMAP
1E00
3300
3300
3300
1E00
0000
7F00
7F80
01C0
00C0
00C0
3FC0
7FC0
E0C0
C0C0
C0C0
E0C0
7FC0
3FC0
ENDCHAR
STARTCHAR 00E6
ENCODING 230
SWIDTH 875 0
DWIDTH 21 0
BBX 19 13 1 0
BITMAP
7E1F00
7FBFC0
01F0C0
00E060
00C060
3FFFE0
7FFFE0
E0C000
C0C000
C0E000
E0F040
7FFFC0
3F1F80
ENDCHAR
STARTCHAR 00E7
ENCODING 231
SWIDTH 458 0
DWIDTH 11 0
BBX 10 17 1 -4
BITMAP
0FC0
3FC0
7000
6000
C000
C000
C000
C000
C000
6000
7000
3FC0
0FC0
0600
0700
0300
0F00
ENDCHAR
STARTCHAR 00E8
ENCODING 232
SWIDTH 541 0
DWIDTH 13 0
BBX 11 19 1 0
BITMAP
0800
1C00
0E00
0700
0200
0000
1F00
3FC0
70C0
6060
C060
FFE0
FFE0
C000
C000
E000
7040
3FC0
1F80
ENDCHAR
STARTCHAR 00E9
ENCODING 233
SWIDTH 541 0
DWIDTH 13 0
BBX 11 19 1 0
BITMAP
0100
0380
0700
0E00
0400
0000
1F00
3FC0
70C0
6060
C060
FFE0
FFE0
C000
C000
E000
7040
3FC0
1F80
ENDCHAR
STARTCHAR 00EA
ENCODING 234
SWIDTH 541 0
DWIDTH 13 0
BBX 11 18 1 0
BITMAP
0400
0E00
1B00
3180
0000
1F00
3FC0
70C0
6060
C060
FFE0
FFE0
C000
C000
E000
7040
3FC0
1F80
ENDCHAR
STARTCHAR 00EB
ENCODING 235
SWIDTH 541 0
DWIDTH 13 0
BBX 11 18 1 0
BITMAP
39C0
39C0
39C0
0000
0000
1F00
3FC0
70C0
6060
C060
FFE0
FFE0
C000
C000
E000
7040
3FC0
1F80
ENDCHAR
STARTCHAR 00EC
ENCODING 236
SWIDTH 250 0
DWIDTH 6 0
BBX 5 19 0 0
BITMAP
40
E0
70
38
10
00
30
30
30
30
30
30
30
30
30
30
30
30
30
ENDCHAR
STARTCHAR 00ED
ENCODING 237
SWIDTH 250 0
DWIDTH 6 0
BBX 5 19 1 0
BITMAP
10
38
70
E0
40
00
60
60
60
60
60
60
60
60
60
60
60
60
60
ENDCHAR
STARTCHAR 00EE
ENCODING 238
SWIDTH 250 0
DWIDTH 6 0
BBX 7 18 -1 0
BITMAP
10
38
6C
C6
00
18
18
18
18
18
18
18
18
18
18
18
18
18
ENDCHAR
STARTCHAR 00EF
ENCODING 239
SWIDTH 250 0
DWIDTH 6 0
BBX 8 18 -1 0
BITMAP
E7
E7
E7
00
00
18
18
18
18
18
18
18
18
18
18
18
18
18
ENDCHAR
STARTCHAR 00F0
ENCODING 240
SWIDTH 583 0
DWIDTH 14 0
BBX 12 18 1 0
BITMAP
0630
0FF0
0780
04C0
00C0
00C0
1F60
3FE0
70E0
E060
C060
C060
C060
C060
E0C0
71C0
3F80
1F00
ENDCHAR
STARTCHAR 00F1
ENCODING 241
SWIDTH 583 0
DWIDTH 14 0
BBX 10 18 2 0
BITMAP
3980
7F80
6700
0000
0000
7E00
FF80
C180
C0C0
C0C0
C0C0
C0C0
C0C0
C0C0
C0C0
C0C0
C0C0
C0C0
ENDCHAR
STARTCHAR 00F2
ENCODING 242
SWIDTH 583 0
DWIDTH 14 0
BBX 12 19 1 0
BITMAP
0800
1C00
0E00
0700
0200
0000
0F00
3FC0
70E0
6060
C030
C030
C030
C030
C030
6060
70E0
3FC0
0F00
ENDCHAR
STARTCHAR 00F3
ENCODING 243
SWIDTH 583 0
DWIDTH 14 0
BBX 12 19 1 0
BITMAP
0100
0380
0700
0E00
0400
0000
0F00
3FC0
70E0
6060
C030
C030
C030
C030
C030
6060
70E0
3FC0
0F00
ENDCHAR
STARTCHAR 00F4
ENCODING 244
SWIDTH 583 0
DWIDTH 14 0
BBX 12 18 1 0
BITMAP
0400
0E00
1B00
3180
0000
0F00
3FC0
70E0
6060
C030
C030
C030
C030
C030
6060
70E0
3FC0
0F00
ENDCHAR
STARTCHAR 00F5
ENCODING 245
SWIDTH 583 0
DWIDTH 14 0
BBX 12 18 1 0
BITMAP
1CC0
3FC0
3380
0000
0000
0F00
3FC0
70E0
6060
C030
C030
C030
C030
C030
6060
70E0
3FC0
0F00
ENDCHAR
STARTCHAR 00F6
ENCODING 246
SWIDTH 583 0
DWIDTH 14 0
BBX 12 18 1 0
BITMAP
39C0
39C0
39C0
0000
0000
0F00
3FC0
70E0
6060
C030
C030
C030
C030
C030
6060
70E0
3FC0
0F00
ENDCHAR
STARTCHAR 00F7
ENCODING 247
SWIDTH 583 0
DWIDTH 14 0
BBX 11 12 2 1
BITMAP
1C00
1C00
1C00
0000
0000
FFE0
FFE0
0000
0000
1C00
1C00
1C00
ENDCHAR
STARTCHAR 00F8
ENCODING 248
SWIDTH 583 0
DWIDTH 14 0
BBX 12 15 1 -1
BITMAP
0020
0F60
3FE0
70E0
61E0
C370
C330
C630
CC30
EC30
7860
70E0
7FC0
6F80
4000
ENDCHAR
STARTCHAR 00F9
ENCODING 249
SWIDTH 583 0
DWIDTH 14 0
BBX 10 19 2 0
BITMAP
1000
3800
1C00
0E00
0400
0000
C0C0
C0C0
C0C0
C0C0
C0C0
C0C0
C0C0
C0C0
C0C0
C0C0
60C0
7FC0
1F80
ENDCHAR
STARTCHAR 00FA
ENCODING 250
SWIDTH 583 0
DWIDTH 14 0
BBX 10 19 2 0
BITMAP
0200
0700
0E00
1C00
0800
0000
C0C0
C0C0
C0C0
C0C0
C0C0
C0C0
C0C0
C0C0
C0C0
C0C0
60C0
7FC0
1F80
ENDCHAR
STARTCHAR 00FB
ENCODING 251
SWIDTH 583 0
DWIDTH 14 0
BBX 10 18 2 0
BITMAP
0400
0E00
1B00
3180
0000
C0C0
C0C0
C0C0
C0C0
C0C0
C0C0
C0C0
C0C0
C0C0
C0C0
60C0
7FC0
1F80
ENDCHAR
STARTCHAR 00FC
ENCODING 252
SWIDTH 583 0
DWIDTH 14 0
BBX 10 18 2 0
BITMAP
7380
7380
7380
0000
0000
C0C0
C0C0
C0C0
C0C0
C0C0
C0C0
C0C0
C0C0
C0C0
C0C0
60C0
7FC0
1F80
ENDCHAR
STARTCHAR 00FD
ENCODING 253
SWIDTH 458 0
DWIDTH 11 0
BBX 11 23 0 -4
BITMAP
0100
0380
0700
0E00
0400
0000
C060
60C0
60C0
60C0
7180
3180
3180
3B00
1B00
1B00
1E00
0E00
0E00
0C00
1C00
F800
F000
ENDCHAR
STARTCHAR 00FE
ENCODING 254
SWIDTH 583 0
DWIDTH 14 0
BBX 11 22 2 -4
BITMAP
C000
C000
C000
C000
C000
FE00
FF80
C1C0
C0C0
C060
C060
C060
C060
C060
C0E0
E1C0
FF80
DF00
C000
C000
C000
C000
ENDCHAR
STARTCHAR 00FF
ENCODING 255
SWIDTH 458 0
DWIDTH 11 0
BBX 11 22 0 -4
BITMAP
39C0
39C0
39C0
0000
0000
C060
60C0
60C0
60C0
7180
3180
3180
3B00
1B00
1B00
1E00
0E00
0E00
0C00
1C00
F800
F000
ENDCHAR
STARTCHAR 0100
ENCODING 256
SWIDTH 625 0
DWIDTH 15 0
BBX 15 21 0 0
BITMAP
0FE0
0FE0
0000
0000
0380
0380
0380
06C0
06C0
0EE0
0C60
0C60
1830
1830
3830
3FF8
3FF8
600C
600C
600C
C006
ENDCHAR
STARTCHAR 0101
ENCODING 257
SWIDTH 541 0
DWIDTH 13 0
BBX 10 17 1 0
BITMAP
3F80
3F80
0000
0000
7F00
7F80
01C0
00C0
00C0
3FC0
7FC0
E0C0
C0C0
C0C0
E0C0
7FC0
3FC0
ENDCHAR
STARTCHAR 0102
ENCODING 258
SWIDTH 625 0
DWIDTH 15 0
BBX 15 23 0 0
BITMAP
0420
0660
03C0
03C0
0000
0000
0380
0380
0380
06C0
06C0
0EE0
0C60
0C60
1830
1830
3830
3FF8
3FF8
600C
600C
600C
C006
ENDCHAR
STARTCHAR 0103
ENCODING 259
SWIDTH 541 0
DWIDTH 13 0
BBX 10 19 1 0
BITMAP
2100
3300
1E00
1E00
0000
0000
7F00
7F80
01C0
00C0
00C0
3FC0
7FC0
E0C0
C0C0
C0C0
E0C0
7FC0
3FC0
ENDCHAR
STARTCHAR 0104
ENCODING 260
SWIDTH 666 0
DWIDTH 16 0
BBX 16 22 0 -5
BITMAP
0300
0380
0380
06C0
06C0
0E60
0C60
0C30
1830
1838
3818
3FF8
3FFC
600C
6006
6006
C003
0006
000C
000C
000F
0007
ENDCHAR
STARTCHAR 0105
ENCODING 261
SWIDTH 541 0
DWIDTH 13 0
BBX 10 18 1 -5
BITMAP
7F00
7F80
01C0
00C0
00C0
3FC0
7FC0
E0C0
C0C0
C0C0
E0C0
7FC0
3FC0
0180
0300
0300
03C0
01C0
ENDCHAR
STARTCHAR 0106
ENCODING 262
SWIDTH 625 0
DWIDTH 15 0
BBX 13 23 1 0
BITMAP
0040
00E0
01C0
0380
0100
0000
07E0
1FF8
3818
7000
6000
E000
C000
C000
C000
C000
C000
C000
6000
7000
3818
1FF8
07F0
ENDCHAR
STARTCHAR 0107
ENCODING 263
SWIDTH 458 0
DWIDTH 11 0
BBX 10 19 1 0
BITMAP
0100
0380
0700
0E00
0400
0000
0FC0
3FC0
7000
6000
C000
C000
C000
C000
C000
6000
7000
3FC0
0FC0
ENDCHAR
STARTCHAR 0108
ENCODING 264
SWIDTH 625 0
DWIDTH 15 0
BBX 13 22 1 0
BITMAP
0100
0380
06C0
0C60
0000
07E0
1FF8
3818
7000
6000
E000
C000
C000
C000
C000
C000
C000
6000
7000
3818
1FF8
07F0
ENDCHAR
STARTCHAR 0109
ENCODING 265
SWIDTH 458 0
DWIDTH 11 0
BBX 10 18 1 0
BITMAP
0400
0E00
1B00
3180
0000
0FC0
3FC0
7000
6000
C000
C000
C000
C000
C000
6000
7000
3FC0
0FC0
ENDCHAR
STARTCHAR 010A
ENCODING 266
SWIDTH 625 0
DWIDTH 15 0
BBX 13 22 1 0
BITMAP
0380
0380
0380
0000
0000
07E0
1FF8
3818
7000
6000
E000
C000
C000
C000
C000
C000
C000
6000
7000
3818
1FF8
07F0
ENDCHAR
STARTCHAR 010B
ENCODING 267
SWIDTH 458 0
DWIDTH 11 0
BBX 10 18 1 0
BITMAP
0E00
0E00
0E00
0000
0000
0FC0
3FC0
7000
6000
C000
C000
C000
C000
C000
6000
7000
3FC0
0FC0
ENDCHAR
STARTCHAR 010C
ENCODING 268
SWIDTH 625 0
DWIDTH 15 0
BBX 13 22 1 0
BITMAP
0C60
06C0
0380
0100
0000
07E0
1FF8
3818
7000
6000
E000
C000
C000
C000
C000
C000
C000
6000
7000
3818
1FF8
07F0
ENDCHAR
STARTCHAR 010D
ENCODING 269
SWIDTH 458 0
DWIDTH 11 0
BBX 10 18 1 0
BITMAP
3180
1B00
0E00
0400
0000
0FC0
3FC0
7000
6000
C000
C000
C000
C000
C000
6000
7000
3FC0
0FC0
ENDCHAR
STARTCHAR 010E
ENCODING 270
SWIDTH 708 0
DWIDTH 17 0
BBX 14 22 2 0
BITMAP
18C0
0D80
0700
0200
0000
FF00
FFE0
C0F0
C038
C018
C01C
C00C
C00C
C00C
C00C
C00C
C01C
C018
C038
C0F0
FFE0
FF00
ENDCHAR
STARTCHAR 010F
ENCODING 271
SWIDTH 625 0
DWIDTH 15 0
BBX 15 18 1 0
BITMAP
0066
0066
0066
0066
0064
1F60
3FE0
70E0
6060
C060
C060
C060
C060
C060
6060
7060
3FE0
0FC0
ENDCHAR
STARTCHAR 0110
ENCODING 272
SWIDTH 708 0
DWIDTH 17 0
BBX 16 17 0 0
BITMAP
3FC0
3FF8
303C
300E
3006
3007
3003
FE03
FE03
3003
3003
3007
3006
300E
303C
3FF8
3FC0
ENDCHAR
STARTCHAR 0111
ENCODING 273
SWIDTH 583 0
DWIDTH 14 0
BBX 13 18 1 0
BITMAP
0060
07F8
07F8
0060
0060
1F60
3FE0
70E0
E060
C060
C060
C060
C060
C060
6060
7060
3FE0
0FC0
ENDCHAR
STARTCHAR 0112
ENCODING 274
SWIDTH 583 0
DWIDTH 14 0
BBX 11 21 2 0
BITMAP
3F80
3F80
0000
0000
FFC0
FFC0
C000
C000
C000
C000
C000
FFC0
FFC0
C000
C000
C000
C000
C000
C000
FFE0
FFE0
ENDCHAR
STARTCHAR 0113
ENCODING 275
SWIDTH 541 0
DWIDTH 13 0
BBX 11 17 1 0
BITMAP
3F80
3F80
0000
0000
1F00
3FC0
70C0
6060
C060
FFE0
FFE0
C000
C000
E000
7040
3FC0
1F80
ENDCHAR
STARTCHAR 0114
ENCODING 276
SWIDTH 583 0
DWIDTH 14 0
BBX 11 23 2 0
BITMAP
2100
3300
1E00
1E00
0000
0000
FFC0
FFC0
C000
C000
C000
C000
C000
FFC0
FFC0
C000
C000
C000
C000
C000
C000
FFE0
FFE0
ENDCHAR
STARTCHAR 0115
ENCODING 277
SWIDTH 541 0
DWIDTH 13 0
BBX 11 19 1 0
BITMAP
1080
1980
0F00
0F00
0000
0000
1F00
3FC0
70C0
6060
C060
FFE0
FFE0
C000
C000
E000
7040
3FC0
1F80
ENDCHAR
STARTCHAR 0116
ENCODING 278
SWIDTH 583 0
DWIDTH 14 0
BBX 11 22 2 0
BITMAP
0E00
0E00
0E00
0000
0000
FFC0
FFC0
C000
C000
C000
C000
C000
FFC0
FFC0
C000
C000
C000
C000
C000
C000
FFE0
FFE0
ENDCHAR
STARTCHAR 0117
ENCODING 279
SWIDTH 541 0
DWIDTH 13 0
BBX 11 18 1 0
BITMAP
0E00
0E00
0E00
0000
0000
1F00
3FC0
70C0
6060
C060
FFE0
FFE0
C000
C000
E000
7040
3FC0
1F80
ENDCHAR
STARTCHAR 0118
ENCODING 280
SWIDTH 583 0
DWIDTH 14 0
BBX 11 22 2 -5
BITMAP
FFC0
FFC0
C000
C000
C000
C000
C000
FFC0
FFC0
C000
C000
C000
C000
C000
C000
FFE0
FFE0
00C0
0180
0180
01E0
00E0
ENDCHAR
STARTCHAR 0119
ENCODING 281
SWIDTH 541 0
DWIDTH 13 0
BBX 11 18 1 -5
BITMAP
1F00
3FC0
70C0
6060
C060
FFE0
FFE0
C000
C000
6000
7040
3FC0
0FC0
0180
0300
0300
03C0
01C0
ENDCHAR
STARTCHAR 011A
ENCODING 282
SWIDTH 583 0
DWIDTH 14 0
BBX 11 22 2 0
BITMAP
6300
3600
1C00
0800
0000
FFC0
FFC0
C000
C000
C000
C000
C000
FFC0
FFC0
C000
C000
C000
C000
C000
C000
FFE0
FFE0
ENDCHAR
STARTCHAR 011B
ENCODING 283
SWIDTH 541 0
DWIDTH 13 0
BBX 11 19 1 0
BITMAP
3180
1B00
0E00
0400
0000
0000
1F00
3FC0
70C0
6060
C060
FFE0
FFE0
C000
C000
E000
7040
3FC0
1F80
ENDCHAR
STARTCHAR 011C
ENCODING 284
SWIDTH 666 0
DWIDTH 16 0
BBX 13 22 1 0
BITMAP
0100
0380
06C0
0C60
0000
07E0
1FF8
3810
7000
6000
E000
C000
C000
C000
C018
C018
C018
6018
7018
3818
1FF8
07F0
ENDCHAR
STARTCHAR 011D
ENCODING 285
SWIDTH 583 0
DWIDTH 14 0
BBX 11 22 1 -4
BITMAP
0200
0700
0D80
18C0
0000
0FC0
3FE0
7060
6060
C060
C060
C060
C060
C060
E060
70E0
3FE0
1F60
0060
40C0
7FC0
3F00
ENDCHAR
STARTCHAR 011E
ENCODING 286
SWIDTH 666 0
DWIDTH 16 0
BBX 13 23 1 0
BITMAP
0420
0660
03C0
03C0
0000
0000
07E0
1FF8
3810
7000
6000
E000
C000
C000
C000
C018
C018
C018
6018
7018
3818
1FF8
07F0
ENDCHAR
STARTCHAR 011F
ENCODING 287
SWIDTH 583 0
DWIDTH 14 0
BBX 11 23 1 -4
BITMAP
1080
1980
0F00
0F00
0000
0000
0FC0
3FE0
7060
6060
C060
C060
C060
C060
C060
E060
70E0
3FE0
1F60
0060
40C0
7FC0
3F00
ENDCHAR
STARTCHAR 0120
ENCODING 288
SWIDTH 666 0
DWIDTH 16 0
BBX 13 22 1 0
BITMAP
0380
0380
0380
0000
0000
07E0
1FF8
3810
7000
6000
E000
C000
C000
C000
C018
C018
C018
6018
7018
3818
1FF8
07F0
ENDCHAR
STARTCHAR 0121
ENCODING 289
SWIDTH 583 0
DWIDTH 14 0
BBX 11 22 1 -4
BITMAP
0700
0700
0700
0000
0000
0FC0
3FE0
7060
6060
C060
C060
C060
C060
C060
E060
70E0
3FE0
1F60
0060
40C0
7FC0
3F00
ENDCHAR
STARTCHAR 0122
ENCODING 290
SWIDTH 666 0
DWIDTH 16 0
BBX 13 21 1 -4
BITMAP
07E0
1FF8
3810
7000
6000
E000
C000
C000
C000
C018
C018
C018
6018
7018
3818
1FF8
07F0
0000
0180
0780
0700
ENDCHAR
STARTCHAR 0123
ENCODING 291
SWIDTH 583 0
DWIDTH 14 0
BBX 11 23 1 -4
BITMAP
0300
0700
0600
0600
0000
0000
0FC0
3FE0
7060
6060
C060
C060
C060
C060
C060
E060
70E0
3FE0
1F60
0060
40C0
7FC0
3F00
ENDCHAR
STARTCHAR 0124
ENCODING 292
SWIDTH 708 0
DWIDTH 17 0
BBX 13 22 2 0
BITMAP
0200
0700
0D80
18C0
0000
C018
C018
C018
C018
C018
C018
C018
FFF8
FFF8
C018
C018
C018
C018
C018
C018
C018
C018
ENDCHAR
STARTCHAR 0125
ENCODING 293
SWIDTH 583 0
DWIDTH 14 0
BBX 10 23 2 0
BITMAP
2000
7000
8800
0000
0000
C000
C000
C000
C000
C000
FE00
FF80
C180
C0C0
C0C0
C0C0
C0C0
C0C0
C0C0
C0C0
C0C0
C0C0
C0C0
ENDCHAR
STARTCHAR 0126
ENCODING 294
SWIDTH 750 0
DWIDTH 18 0
BBX 18 17 0 0
BITMAP
300300
300300
FFFFC0
FFFFC0
300300
300300
300300
3FFF00
3FFF00
300300
300300
300300
300300
300300
300300
300300
300300
ENDCHAR
STARTCHAR 0127
ENCODING 295
SWIDTH 583 0
DWIDTH 14 0
BBX 12 18 0 0
BITMAP
3000
FF00
FF00
3000
3000
3F80
3FE0
3060
3030
3030
3030
3030
3030
3030
3030
3030
3030
3030
ENDCHAR
STARTCHAR 0128
ENCODING 296
SWIDTH 250 0
DWIDTH 6 0
BBX 8 22 -1 0
BITMAP
73
FF
CE
00
00
18
18
18
18
18
18
18
18
18
18
18
18
18
18
18
18
18
ENDCHAR
STARTCHAR 0129
ENCODING 297
SWIDTH 250 0
DWIDTH 6 0
BBX 8 18 -1 0
BITMAP
73
FF
CE
00
00
18
18
18
18
18
18
18
18
18
18
18
18
18
ENDCHAR
STARTCHAR 012A
ENCODING 298
SWIDTH 250 0
DWIDTH 6 0
BBX 7 21 -1 0
BITMAP
FE
FE
00
00
18
18
18
18
18
18
18
18
18
18
18
18
18
18
18
18
18
ENDCHAR
STARTCHAR 012B
ENCODING 299
SWIDTH 250 0
DWIDTH 6 0
BBX 7 17 -1 0
BITMAP
FE
FE
00
00
18
18
18
18
18
18
18
18
18
18
18
18
18
ENDCHAR
STARTCHAR 012C
ENCODING 300
SWIDTH 250 0
DWIDTH 6 0
BBX 6 23 0 0
BITMAP
84
CC
78
78
00
00
30
30
30
30
30
30
30
30
30
30
30
30
30
30
30
30
30
ENDCHAR
STARTCHAR 012D
ENCODING 301
SWIDTH 250 0
DWIDTH 6 0
BBX 6 19 0 0
BITMAP
84
CC
78
78
00
00
30
30
30
30
30
30
30
30
30
30
30
30
30
ENDCHAR
STARTCHAR 012E
ENCODING 302
SWIDTH 250 0
DWIDTH 6 0
BBX 4 22 0 -5
BITMAP
30
30
30
30
30
30
30
30
30
30
30
30
30
30
30
30
30
60
40
C0
F0
70
ENDCHAR
STARTCHAR 012F
ENCODING 303
SWIDTH 250 0
DWIDTH 6 0
BBX 4 23 0 -5
BITMAP
30
30
00
00
00
30
30
30
30
30
30
30
30
30
30
30
30
30
60
40
C0
F0
70
ENDCHAR
STARTCHAR 0130
ENCODING 304
SWIDTH 250 0
DWIDTH 6 0
BBX 3 22 1 0
BITMAP
E0
E0
E0
00
00
60
60
60
60
60
60
60
60
60
60
60
60
60
60
60
60
60
ENDCHAR
STARTCHAR 0131
ENCODING 305
SWIDTH 250 0
DWIDTH 6 0
BBX 2 13 2 0
BITMAP
C0
C0
C0
C0
C0
C0
C0
C0
C0
C0
C0
C0
C0
ENDCHAR
STARTCHAR 0132
ENCODING 306
SWIDTH 750 0
DWIDTH 18 0
BBX 15 17 2 0
BITMAP
C006
C006
C006
C006
C006
C006
C006
C006
C006
C006
C006
C006
C006
C006
C20C
C7FC
C1F0
ENDCHAR
STARTCHAR 0133
ENCODING 307
SWIDTH 500 0
DWIDTH 12 0
BBX 8 22 2 -5
BITMAP
C3
C3
00
00
00
C3
C3
C3
C3
C3
C3
C3
C3
C3
C3
C3
C3
C3
03
07
3E
3C
ENDCHAR
STARTCHAR 0134
ENCODING 308
SWIDTH 500 0
DWIDTH 12 0
BBX 13 22 0 0
BITMAP
0040
00E0
01B0
0318
0000
00C0
00C0
00C0
00C0
00C0
00C0
00C0
00C0
00C0
00C0
00C0
00C0
00C0
00C0
4180
FF80
3E00
ENDCHAR
STARTCHAR 0135
ENCODING 309
SWIDTH 250 0
DWIDTH 6 0
BBX 8 22 -2 -4
BITMAP
08
1C
36
63
00
0C
0C
0C
0C
0C
0C
0C
0C
0C
0C
0C
0C
0C
0C
1C
F8
F0
ENDCHAR
STARTCHAR 0136
ENCODING 310
SWIDTH 625 0
DWIDTH 15 0
BBX 13 21 2 -4
BITMAP
C070
C0E0
C1C0
C380
C700
CE00
DC00
F800
F000
FC00
DE00
CF00
C380
C1C0
C0E0
C070
C038
0000
0600
1E00
1C00
ENDCHAR
STARTCHAR 0137
ENCODING 311
SWIDTH 541 0
DWIDTH 13 0
BBX 11 22 2 -4
BITMAP
C000
C000
C000
C000
C000
C0C0
C180
C700
CE00
D800
F000
F800
DE00
C600
C300
C180
C0C0
C060
0000
0C00
3C00
3800
ENDCHAR
STARTCHAR 0138
ENCODING 312
SWIDTH 541 0
DWIDTH 13 0
BBX 11 13 2 0
BITMAP
C1C0
C380
C700
CE00
DC00
F800
F800
DC00
CE00
C700
C380
C1C0
C0E0
ENDCHAR
STARTCHAR 0139
ENCODING 313
SWIDTH 500 0
DWIDTH 12 0
BBX 10 23 2 0
BITMAP
1000
3800
7000
E000
4000
0000
C000
C000
C000
C000
C000
C000
C000
C000
C000
C000
C000
C000
C000
C000
C000
FFC0
FFC0
ENDCHAR
STARTCHAR 013A
ENCODING 314
SWIDTH 291 0
DWIDTH 7 0
BBX 5 23 1 0
BITMAP
38
F8
E0
00
00
60
60
60
60
60
60
60
60
60
60
60
60
60
60
60
60
78
38
ENDCHAR
STARTCHAR 013B
ENCODING 315
SWIDTH 500 0
DWIDTH 12 0
BBX 10 21 2 -4
BITMAP
C000
C000
C000
C000
C000
C000
C000
C000
C000
C000
C000
C000
C000
C000
C000
FFC0
FFC0
0000
0C00
3C00
3800
ENDCHAR
STARTCHAR 013C
ENCODING 316
SWIDTH 291 0
DWIDTH 7 0
BBX 5 22 1 -4
BITMAP
60
60
60
60
60
60
60
60
60
60
60
60
60
60
60
60
78
38
00
30
F0
E0
ENDCHAR
STARTCHAR 013D
ENCODING 317
SWIDTH 500 0
DWIDTH 12 0
BBX 10 17 2 0
BITMAP
C600
C600
C600
C600
C400
C000
C000
C000
C000
C000
C000
C000
C000
C000
C000
FFC0
FFC0
ENDCHAR
STARTCHAR 013E
ENCODING 318
SWIDTH 291 0
DWIDTH 7 0
BBX 6 18 2 0
BITMAP
CC
CC
CC
CC
C8
C0
C0
C0
C0
C0
C0
C0
C0
C0
C0
C0
F0
70
ENDCHAR
STARTCHAR 013F
ENCODING 319
SWIDTH 500 0
DWIDTH 12 0
BBX 10 17 2 0
BITMAP
C000
C000
C000
C000
C000
C000
C380
C380
C380
C000
C000
C000
C000
C000
C000
FFC0
FFC0
ENDCHAR
STARTCHAR 0140
ENCODING 320
SWIDTH 375 0
DWIDTH 9 0
BBX 7 18 2 0
BITMAP
C0
C0
C0
C0
C0
C0
C0
CE
CE
CE
C0
C0
C0
C0
C0
C0
F0
70
ENDCHAR
STARTCHAR 0141
ENCODING 321
SWIDTH 541 0
DWIDTH 13 0
BBX 14 17 -1 0
BITMAP
1800
1800
1800
1800
1800
1800
1F80
1F00
3C00
F800
5800
1800
1800
1800
1800
1FFC
1FFC
ENDCHAR
STARTCHAR 0142
ENCODING 322
SWIDTH 291 0
DWIDTH 7 0
BBX 7 18 0 0
BITMAP
30
30
30
30
30
30
30
3E
78
F0
30
30
30
30
30
30
3C
1C
ENDCHAR
STARTCHAR 0143
ENCODING 323
SWIDTH 708 0
DWIDTH 17 0
BBX 13 23 2 0
BITMAP
0080
01C0
0380
0700
0200
0000
C018
E018
F018
F818
D818
CC18
CE18
C718
C318
C198
C1D8
C0D8
C078
C038
C038
C018
C008
ENDCHAR
STARTCHAR 0144
ENCODING 324
SWIDTH 583 0
DWIDTH 14 0
BBX 10 19 2 0
BITMAP
0200
0700
0E00
1C00
0800
0000
7E00
FF80
C180
C0C0
C0C0
C0C0
C0C0
C0C0
C0C0
C0C0
C0C0
C0C0
C0C0
ENDCHAR
STARTCHAR 0145
ENCODING 325
SWIDTH 708 0
DWIDTH 17 0
BBX 13 21 2 -4
BITMAP
C018
E018
F018
F818
D818
CC18
CE18
C718
C318
C198
C1D8
C0D8
C078
C038
C038
C018
C008
0000
0300
0F00
0E00
ENDCHAR
STARTCHAR 0146
ENCODING 326
SWIDTH 583 0
DWIDTH 14 0
BBX 10 17 2 -4
BITMAP
7E00
FF80
C180
C0C0
C0C0
C0C0
C0C0
C0C0
C0C0
C0C0
C0C0
C0C0
C0C0
0000
0C00
3C00
3800
ENDCHAR
STARTCHAR 0147
ENCODING 327
SWIDTH 708 0
DWIDTH 17 0
BBX 13 22 2 0
BITMAP
18C0
0D80
0700
0200
0000
C018
E018
F018
F818
D818
CC18
CE18
C718
C318
C198
C1D8
C0D8
C078
C038
C038
C018
C008
ENDCHAR
STARTCHAR 0148
ENCODING 328
SWIDTH 583 0
DWIDTH 14 0
BBX 10 18 2 0
BITMAP
3180
1B00
0E00
0400
0000
7E00
FF80
C180
C0C0
C0C0
C0C0
C0C0
C0C0
C0C0
C0C0
C0C0
C0C0
C0C0
ENDCHAR
STARTCHAR 0149
ENCODING 329
SWIDTH 583 0
DWIDTH 14 0
BBX 12 19 0 0
BITMAP
6000
6000
6000
C000
C000
0000
1F80
3FE0
3060
3030
3030
3030
3030
3030
3030
3030
3030
3030
3030
ENDCHAR
STARTCHAR 014A
ENCODING 330
SWIDTH 708 0
DWIDTH 17 0
BBX 13 22 2 -5
BITMAP
C018
E018
F018
F818
D818
CC18
CE18
C718
C318
C198
C1D8
C0D8
C078
C078
C038
C018
C018
0018
0018
0038
00F0
00F0
ENDCHAR
STARTCHAR 014B
ENCODING 331
SWIDTH 583 0
DWIDTH 14 0
BBX 10 17 2 -4
BITMAP
7E00
FF80
C180
C0C0
C0C0
C0C0
C0C0
C0C0
C0C0
C0C0
C0C0
C0C0
C0C0
00C0
00C0
07C0
0780
ENDCHAR
STARTCHAR 014C
ENCODING 332
SWIDTH 750 0
DWIDTH 18 0
BBX 16 21 1 0
BITMAP
0FE0
0FE0
0000
0000
07E0
1FF8
381C
700E
6006
E007
C003
C003
C003
C003
C003
E007
6006
700E
381C
1FF8
07E0
ENDCHAR
STARTCHAR 014D
ENCODING 333
SWIDTH 583 0
DWIDTH 14 0
BBX 12 17 1 0
BITMAP
3F80
3F80
0000
0000
0F00
3FC0
70E0
6060
C030
C030
C030
C030
C030
6060
70E0
3FC0
0F00
ENDCHAR
STARTCHAR 014E
ENCODING 334
SWIDTH 750 0
DWIDTH 18 0
BBX 16 23 1 0
BITMAP
0420
0660
03C0
03C0
0000
0000
07E0
1FF8
381C
700E
6006
E007
C003
C003
C003
C003
C003
E007
6006
700E
381C
1FF8
07E0
ENDCHAR
STARTCHAR 014F
ENCODING 335
SWIDTH 583 0
DWIDTH 14 0
BBX 12 19 1 0
BITMAP
1080
1980
0F00
0F00
0000
0000
0F00
3FC0
70E0
6060
C030
C030
C030
C030
C030
6060
70E0
3FC0
0F00
ENDCHAR
STARTCHAR 0150
ENCODING 336
SWIDTH 750 0
DWIDTH 18 0
BBX 16 23 1 0
BITMAP
0110
0198
0330
0660
0220
0000
07E0
1FF8
381C
700E
6006
E007
C003
C003
C003
C003
C003
E007
6006
700E
381C
1FF8
07E0
ENDCHAR
STARTCHAR 0151
ENCODING 337
SWIDTH 583 0
DWIDTH 14 0
BBX 12 19 1 0
BITMAP
0440
0660
0CC0
1980
0880
0000
0F00
3FC0
70E0
6060
C030
C030
C030
C030
C030
6060
70E0
3FC0
0F00
ENDCHAR
STARTCHAR 0152
ENCODING 338
SWIDTH 1000 0
DWIDTH 24 0
BBX 22 17 1 0
BITMAP
03FFF8
1FFFF8
3C1800
701800
601800
E01800
C01800
C01FF8
C01FF8
C01800
C01800
E01800
601800
701800
3C1800
1FFFFC
03FFFC
ENDCHAR
STARTCHAR 0153
ENCODING 339
SWIDTH 958 0
DWIDTH 23 0
BBX 21 13 1 0
BITMAP
0F07C0
3FCFF0
70FC30
607818
C03018
C03FF8
C03FF8
C03000
C03000
607800
70FC10
3FCFF0
0F87E0
ENDCHAR
STARTCHAR 0154
ENCODING 340
SWIDTH 625 0
DWIDTH 15 0
BBX 13 23 2 0
BITMAP
0200
0700
0E00
1C00
0800
0000
FF00
FFC0
C0E0
C030
C030
C030
C030
C0E0
FFC0
FF80
C180
C0C0
C0E0
C060
C030
C038
C018
ENDCHAR
STARTCHAR 0155
ENCODING 341
SWIDTH 375 0
DWIDTH 9 0
BBX 7 19 2 0
BITMAP
04
0E
1C
38
10
00
7E
FE
C0
C0
C0
C0
C0
C0
C0
C0
C0
C0
C0
ENDCHAR
STARTCHAR 0156
ENCODING 342
SWIDTH 625 0
DWIDTH 15 0
BBX 13 21 2 -4
BITMAP
FF00
FFC0
C0E0
C030
C030
C030
C030
C0E0
FFC0
FF80
C180
C0C0
C0E0
C060
C030
C038
C018
0000
0600
1E00
1C00
ENDCHAR
STARTCHAR 0157
ENCODING 343
SWIDTH 375 0
DWIDTH 9 0
BBX 9 17 0 -4
BITMAP
1F80
3F80
3000
3000
3000
3000
3000
3000
3000
3000
3000
3000
3000
0000
3000
F000
E000
ENDCHAR
STARTCHAR 0158
ENCODING 344
SWIDTH 625 0
DWIDTH 15 0
BBX 13 22 2 0
BITMAP
3180
1B00
0E00
0400
0000
FF00
FFC0
C0E0
C030
C030
C030
C030
C0E0
FFC0
FF80
C180
C0C0
C0E0
C060
C030
C038
C018
ENDCHAR
STARTCHAR 0159
ENCODING 345
SWIDTH 375 0
DWIDTH 9 0
BBX 7 18 2 0
BITMAP
C6
6C
38
10
00
7E
FE
C0
C0
C0
C0
C0
C0
C0
C0
C0
C0
C0
ENDCHAR
STARTCHAR 015A
ENCODING 346
SWIDTH 541 0
DWIDTH 13 0
BBX 11 23 1 0
BITMAP
0100
0380
0700
0E00
0400
0000
1F80
7FC0
E080
C000
C000
E000
7800
3C00
0F00
03C0
00C0
0060
0060
0060
C0E0
FFC0
3F00
ENDCHAR
STARTCHAR 015B
ENCODING 347
SWIDTH 458 0
DWIDTH 11 0
BBX 9 19 1 0
BITMAP
0200
0700
0E00
1C00
0800
0000
3F00
7F00
E100
C000
C000
7800
3E00
0F00
0380
0180
8380
FF00
7E00
ENDCHAR
STARTCHAR 015C
ENCODING 348
SWIDTH 541 0
DWIDTH 13 0
BBX 11 22 1 0
BITMAP
0400
0E00
1B00
3180
0000
1F80
7FC0
E080
C000
C000
E000
7800
3C00
0F00
03C0
00C0
0060
0060
0060
C0E0
FFC0
3F00
ENDCHAR
STARTCHAR 015D
ENCODING 349
SWIDTH 458 0
DWIDTH 11 0
BBX 9 18 1 0
BITMAP
0800
1C00
3600
6300
0000
3F00
7F00
E100
C000
C000
7800
3E00
0F00
0380
0180
8380
FF00
7E00
ENDCHAR
STARTCHAR 015E
ENCODING 350
SWIDTH 541 0
DWIDTH 13 0
BBX 11 20 1 -3
BITMAP
1F80
7FC0
E080
C000
C000
E000
7800
3C00
0F00
03C0
00C0
0060
0060
0060
C0E0
FFC0
7F00
0C00
0600
1E00
ENDCHAR
STARTCHAR 015F
ENCODING 351
SWIDTH 458 0
DWIDTH 11 0
BBX 9 16 1 -3
BITMAP
3F00
7F00
E100
C000
C000
7800
3E00
0700
0380
0180
8380
FF00
7E00
1800
0C00
3C00
ENDCHAR
STARTCHAR 0160
ENCODING 352
SWIDTH 541 0
DWIDTH 13 0
BBX 11 22 1 0
BITMAP
3180
1B00
0E00
0400
0000
1F80
7FC0
E080
C000
C000
E000
7800
3C00
0F00
03C0
00C0
0060
0060
0060
C0E0
FFC0
3F00
ENDCHAR
STARTCHAR 0161
ENCODING 353
SWIDTH 458 0
DWIDTH 11 0
BBX 9 18 1 0
BITMAP
6300
3600
1C00
0800
0000
3F00
7F00
E100
C000
C000
7800
3E00
0F00
0380
0180
8380
FF00
7E00
ENDCHAR
STARTCHAR 0162
ENCODING 354
SWIDTH 500 0
DWIDTH 12 0
BBX 12 21 0 -4
BITMAP
FFF0
FFF0
0600
0600
0600
0600
0600
0600
0600
0600
0600
0600
0600
0600
0600
0600
0600
0400
0600
0600
1C00
ENDCHAR
STARTCHAR 0163
ENCODING 355
SWIDTH 416 0
DWIDTH 10 0
BBX 7 20 2 -3
BITMAP
C0
C0
C0
C0
FE
FE
C0
C0
C0
C0
C0
C0
C0
C0
E2
7E
3E
18
0C
3C
ENDCHAR
STARTCHAR 0164
ENCODING 356
SWIDTH 500 0
DWIDTH 12 0
BBX 12 22 0 0
BITMAP
3180
1B00
0E00
0400
0000
FFF0
FFF0
0600
0600
0600
0600
0600
0600
0600
0600
0600
0600
0600
0600
0600
0600
0600
ENDCHAR
STARTCHAR 0165
ENCODING 357
SWIDTH 416 0
DWIDTH 10 0
BBX 7 19 2 0
BITMAP
18
18
D8
D8
D0
C0
FE
FE
C0
C0
C0
C0
C0
C0
C0
C0
E2
7E
3E
ENDCHAR
STARTCHAR 0166
ENCODING 358
SWIDTH 500 0
DWIDTH 12 0
BBX 12 17 0 0
BITMAP
FFF0
FFF0
0600
0600
0600
0600
0600
3FC0
3FC0
0600
0600
0600
0600
0600
0600
0600
0600
ENDCHAR
STARTCHAR 0167
ENCODING 359
SWIDTH 416 0
DWIDTH 10 0
BBX 8 17 2 0
BITMAP
C0
C0
C0
C0
FF
FF
C0
C0
C0
FF
FF
C0
C0
C0
E1
7F
3E
ENDCHAR
STARTCHAR 0168
ENCODING 360
SWIDTH 708 0
DWIDTH 17 0
BBX 13 22 2 0
BITMAP
1CC0
3FC0
3380
0000
0000
C018
C018
C018
C018
C018
C018
C018
C018
C018
C018
C018
C018
C018
6030
7070
3FE0
0F80
ENDCHAR
STARTCHAR 0169
ENCODING 361
SWIDTH 583 0
DWIDTH 14 0
BBX 10 18 2 0
BITMAP
3980
7F80
6700
0000
0000
C0C0
C0C0
C0C0
C0C0
C0C0
C0C0
C0C0
C0C0
C0C0
C0C0
60C0
7FC0
1F80
ENDCHAR
STARTCHAR 016A
ENCODING 362
SWIDTH 708 0
DWIDTH 17 0
BBX 13 21 2 0
BITMAP
1FC0
1FC0
0000
0000
C018
C018
C018
C018
C018
C018
C018
C018
C018
C018
C018
C018
C018
6030
7070
3FE0
0F80
ENDCHAR
STARTCHAR 016B
ENCODING 363
SWIDTH 583 0
DWIDTH 14 0
BBX 10 17 2 0
BITMAP
3F80
3F80
0000
0000
C0C0
C0C0
C0C0
C0C0
C0C0
C0C0
C0C0
C0C0
C0C0
C0C0
60C0
7FC0
1F80
ENDCHAR
STARTCHAR 016C
ENCODING 364
SWIDTH 708 0
DWIDTH 17 0
BBX 13 23 2 0
BITMAP
0840
0CC0
0780
0780
0000
0000
C018
C018
C018
C018
C018
C018
C018
C018
C018
C018
C018
C018
C018
6030
7070
3FE0
0F80
ENDCHAR
STARTCHAR 016D
ENCODING 365
SWIDTH 583 0
DWIDTH 14 0
BBX 10 19 2 0
BITMAP
2100
3300
1E00
1E00
0000
0000
C0C0
C0C0
C0C0
C0C0
C0C0
C0C0
C0C0
C0C0
C0C0
C0C0
60C0
7FC0
1F80
ENDCHAR
STARTCHAR 016E
ENCODING 366
SWIDTH 708 0
DWIDTH 17 0
BBX 13 23 2 0
BITMAP
0F00
1980
1980
1980
0F00
0000
C018
C018
C018
C018
C018
C018
C018
C018
C018
C018
C018
C018
C018
6030
7070
3FE0
0F80
ENDCHAR
STARTCHAR 016F
ENCODING 367
SWIDTH 583 0
DWIDTH 14 0
BBX 10 19 2 0
BITMAP
1E00
3300
3300
3300
1E00
0000
C0C0
C0C0
C0C0
C0C0
C0C0
C0C0
C0C0
C0C0
C0C0
C0C0
60C0
7FC0
1F80
ENDCHAR
STARTCHAR 0170
ENCODING 368
SWIDTH 708 0
DWIDTH 17 0
BBX 13 23 2 0
BITMAP
0220
0330
0660
0CC0
0440
0000
C018
C018
C018
C018
C018
C018
C018
C018
C018
C018
C018
C018
C018
6030
7070
3FE0
0F80
ENDCHAR
STARTCHAR 0171
ENCODING 369
SWIDTH 583 0
DWIDTH 14 0
BBX 10 19 2 0
BITMAP
0880
0CC0
1980
3300
1100
0000
C0C0
C0C0
C0C0
C0C0
C0C0
C0C0
C0C0
C0C0
C0C0
C0C0
60C0
7FC0
1F80
ENDCHAR
STARTCHAR 0172
ENCODING 370
SWIDTH 708 0
DWIDTH 17 0
BBX 13 22 2 -5
BITMAP
C018
C018
C018
C018
C018
C018
C018
C018
C018
C018
C018
C018
C018
6030
7070
3FE0
1FC0
0300
0600
0600
0780
0380
ENDCHAR
STARTCHAR 0173
ENCODING 371
SWIDTH 583 0
DWIDTH 14 0
BBX 10 18 2 -5
BITMAP
C0C0
C0C0
C0C0
C0C0
C0C0
C0C0
C0C0
C0C0
C0C0
C0C0
60C0
7FC0
1FC0
0180
0300
0300
03C0
01C0
ENDCHAR
STARTCHAR 0174
ENCODING 372
SWIDTH 958 0
DWIDTH 23 0
BBX 21 22 1 0
BITMAP
002000
007000
00D800
018C00
000000
C00018
C00018
E03038
607030
607030
605830
60D870
70D870
30DC60
318C60
318C60
3B8EE0
1B06C0
1B06C0
1E07C0
0E0380
0E0380
ENDCHAR
STARTCHAR 0175
ENCODING 373
SWIDTH 791 0
DWIDTH 19 0
BBX 19 18 0 0
BITMAP
004000
00E000
01B000
031800
000000
C04060
C0E0E0
60E0C0
60E0C0
61B0C0
31B180
31B180
33B980
1B1B00
1B1B00
1F1F00
0E0E00
0E0E00
ENDCHAR
STARTCHAR 0176
ENCODING 374
SWIDTH 583 0
DWIDTH 14 0
BBX 14 22 0 0
BITMAP
0200
0700
0D80
18C0
0000
C00C
6018
7038
3030
1860
1860
0CC0
0FC0
0780
0300
0300
0300
0300
0300
0300
0300
0300
ENDCHAR
STARTCHAR 0177
ENCODING 375
SWIDTH 458 0
DWIDTH 11 0
BBX 11 22 0 -4
BITMAP
0400
0E00
1B00
3180
0000
C060
60C0
60C0
60C0
7180
3180
3180
3B00
1B00
1B00
1E00
0E00
0E00
0C00
1C00
F800
F000
ENDCHAR
STARTCHAR 0178
ENCODING 376
SWIDTH 583 0
DWIDTH 14 0
BBX 14 22 0 0
BITMAP
1CE0
1CE0
1CE0
0000
0000
C00C
6018
7038
3030
1860
1860
0CC0
0FC0
0780
0300
0300
0300
0300
0300
0300
0300
0300
ENDCHAR
STARTCHAR 0179
ENCODING 377
SWIDTH 583 0
DWIDTH 14 0
BBX 12 23 1 0
BITMAP
0100
0380
0700
0E00
0400
0000
FFF0
FFF0
0070
0060
00C0
0180
0300
0700
0600
0C00
1800
3800
3000
6000
E000
FFF0
FFF0
ENDCHAR
STARTCHAR 017A
ENCODING 378
SWIDTH 458 0
DWIDTH 11 0
BBX 9 19 1 0
BITMAP
0200
0700
0E00
1C00
0800
0000
FF80
FF80
0380
0700
0600
0C00
1800
3800
3000
6000
E000
FF80
FF80
ENDCHAR
STARTCHAR 017B
ENCODING 379
SWIDTH 583 0
DWIDTH 14 0
BBX 12 22 1 0
BITMAP
0700
0700
0700
0000
0000
FFF0
FFF0
0070
0060
00C0
0180
0300
0700
0600
0C00
1800
3800
3000
6000
E000
FFF0
FFF0
ENDCHAR
STARTCHAR 017C
ENCODING 380
SWIDTH 458 0
DWIDTH 11 0
BBX 9 18 1 0
BITMAP
1C00
1C00
1C00
0000
0000
FF80
FF80
0380
0700
0600
0C00
1800
3800
3000
6000
E000
FF80
FF80
ENDCHAR
STARTCHAR 017D
ENCODING 381
SWIDTH 583 0
DWIDTH 14 0
BBX 12 22 1 0
BITMAP
18C0
0D80
0700
0200
0000
FFF0
FFF0
0070
0060
00C0
0180
0300
0700
0600
0C00
1800
3800
3000
6000
E000
FFF0
FFF0
ENDCHAR
STARTCHAR 017E
ENCODING 382
SWIDTH 458 0
DWIDTH 11 0
BBX 9 18 1 0
BITMAP
6300
3600
1C00
0800
0000
FF80
FF80
0380
0700
0600
0C00
1800
3800
3000
6000
E000
FF80
FF80
ENDCHAR
STARTCHAR 017F
ENCODING 383
SWIDTH 291 0
DWIDTH 7 0
BBX 7 18 2 0
BITMAP
3E
7E
E0
C0
C0
C0
C0
C0
C0
C0
C0
C0
C0
C0
C0
C0
C0
C0
ENDCHAR
STARTCHAR 0180
ENCODING 384
SWIDTH 583 0
DWIDTH 14 0
BBX 13 18 0 0
BITMAP
3000
FF00
FF00
3000
3000
37C0
3FE0
3870
3030
3018
3018
3018
3018
3018
3030
3070
3FE0
1F80
ENDCHAR
STARTCHAR 0181
ENCODING 385
SWIDTH 750 0
DWIDTH 18 0
BBX 17 17 0 0
BITMAP
1FF800
7FFE00
EC0F00
CC0300
CC0300
0C0300
0C0E00
0FFC00
0FFE00
0C0700
0C0180
0C0180
0C0180
0C0380
0C0700
0FFE00
0FF800
ENDCHAR
STARTCHAR 0182
ENCODING 386
SWIDTH 625 0
DWIDTH 15 0
BBX 12 17 2 0
BITMAP
FFC0
FFC0
C000
C000
C000
C000
FF00
FFC0
C0E0
C070
C030
C030
C030
C070
C0E0
FFC0
FF00
ENDCHAR
STARTCHAR 0183
ENCODING 387
SWIDTH 583 0
DWIDTH 14 0
BBX 11 18 2 0
BITMAP
FFC0
FFC0
C000
C000
C000
DF00
FF80
E1C0
C0C0
C060
C060
C060
C060
C060
C0C0
C1C0
FF80
7E00
ENDCHAR
STARTCHAR 0184
ENCODING 388
SWIDTH 583 0
DWIDTH 14 0
BBX 12 18 1 0
BITMAP
2000
E000
E000
6000
6000
6F80
7FC0
70E0
6060
6030
6030
6030
6030
6030
6060
60E0
7FC0
3F00
ENDCHAR
STARTCHAR 0185
ENCODING 389
SWIDTH 625 0
DWIDTH 15 0
BBX 13 17 1 0
BITMAP
2000
E000
E000
6000
6000
6000
7F80
7FE0
6070
6038
6018
6018
6018
6038
6070
7FE0
7F80
ENDCHAR
STARTCHAR 0186
ENCODING 390
SWIDTH 625 0
DWIDTH 15 0
BBX 13 17 1 0
BITMAP
7F00
FFC0
C0E0
0070
0030
0038
0018
0018
0018
0018
0018
0038
0030
0070
C0E0
FFC0
7F00
ENDCHAR
STARTCHAR 0187
ENCODING 391
SWIDTH 666 0
DWIDTH 16 0
BBX 16 19 1 0
BITMAP
000F
001F
07F8
1FF8
3810
7000
6000
E000
C000
C000
C000
C000
C000
C000
6000
7000
3818
1FF8
07F0
ENDCHAR
STARTCHAR 0188
ENCODING 392
SWIDTH 500 0
DWIDTH 12 0
BBX 12 15 1 0
BITMAP
01F0
03F0
1F80
3F00
7000
E000
C000
C000
C000
C000
C000
E000
7000
3F80
1F80
ENDCHAR
STARTCHAR 0189
ENCODING 393
SWIDTH 708 0
DWIDTH 17 0
BBX 16 17 0 0
BITMAP
3FC0
3FF8
303C
300E
3006
3007
3003
FE03
FE03
3003
3003
3007
3006
300E
303C
3FF8
3FC0
ENDCHAR
STARTCHAR 018A
ENCODING 394
SWIDTH 833 0
DWIDTH 20 0
BBX 19 17 0 0
BITMAP
1FF800
7FFE00
EC0780
CC01C0
CC00C0
0C00E0
0C0060
0C0060
0C0060
0C0060
0C0060
0C00E0
0C00C0
0C01C0
0C0780
0FFE00
0FF800
ENDCHAR
STARTCHAR 018B
ENCODING 395
SWIDTH 625 0
DWIDTH 15 0
BBX 12 17 1 0
BITMAP
3FF0
3FF0
0030
0030
0030
0030
0FF0
3FF0
7030
E030
C030
C030
C030
E030
7030
3FF0
0FF0
ENDCHAR
STARTCHAR 018C
ENCODING 396
SWIDTH 583 0
DWIDTH 14 0
BBX 11 18 1 0
BITMAP
7FE0
7FE0
0060
0060
0060
1F60
3FE0
70E0
E060
C060
C060
C060
C060
C060
6060
7060
3FE0
0FC0
ENDCHAR
STARTCHAR 018D
ENCODING 397
SWIDTH 583 0
DWIDTH 14 0
BBX 12 17 1 -4
BITMAP
1F80
3FC0
70E0
E070
C030
C030
C030
C030
E060
70E0
3DC0
0F00
0380
00C0
40C0
7FC0
7F00
ENDCHAR
STARTCHAR 018E
ENCODING 398
SWIDTH 583 0
DWIDTH 14 0
BBX 11 17 1 0
BITMAP
7FE0
7FE0
0060
0060
0060
0060
0060
7FE0
7FE0
0060
0060
0060
0060
0060
0060
FFE0
FFE0
ENDCHAR
STARTCHAR 018F
ENCODING 399
SWIDTH 708 0
DWIDTH 17 0
BBX 15 17 1 0
BITMAP
1FC0
3FF0
3038
001C
000C
000E
0006
0006
FFFE
FFFE
C006
C006
E00C
601C
7838
3FF0
0FC0
ENDCHAR
STARTCHAR 0190
ENCODING 400
SWIDTH 583 0
DWIDTH 14 0
BBX 12 17 1 0
BITMAP
0FC0
3FE0
7040
6000
6000
6000
3800
1F80
3F80
7000
C000
C000
C000
C000
7030
7FF0
1FC0
ENDCHAR
STARTCHAR 0191
ENCODING 401
SWIDTH 541 0
DWIDTH 13 0
BBX 13 21 -1 -4
BITMAP
1FF8
1FF8
1800
1800
1800
1800
1800
1FF0
1FF0
1800
1800
1800
1800
1800
1800
1800
1800
1800
1800
F800
F000
ENDCHAR
STARTCHAR 0192
ENCODING 402
SWIDTH 375 0
DWIDTH 9 0
BBX 12 22 -2 -4
BITMAP
03F0
07F0
0E00
0C00
0C00
0FE0
0FE0
0C00
0C00
0C00
0C00
0C00
0C00
0C00
0C00
0C00
0C00
0C00
0C00
1C00
F800
F000
ENDCHAR
STARTCHAR 0193
ENCODING 403
SWIDTH 666 0
DWIDTH 16 0
BBX 16 19 1 0
BITMAP
000F
001F
07F8
1FF0
3810
7000
6000
E000
C000
C000
C000
C018
C018
C018
6018
7018
3818
1FF8
07F0
ENDCHAR
STARTCHAR 0194
ENCODING 404
SWIDTH 666 0
DWIDTH 16 0
BBX 16 21 0 -4
BITMAP
C003
6006
700E
300C
381C
1818
1C30
0C30
0660
07E0
03C0
03C0
0180
03C0
03C0
0660
0E70
0C30
0C30
07E0
03C0
ENDCHAR
STARTCHAR 0195
ENCODING 405
SWIDTH 833 0
DWIDTH 20 0
BBX 16 18 2 0
BITMAP
C000
C000
C000
C000
C000
FE03
FF03
C383
C183
C183
C183
C183
C183
C183
C183
C1C7
C0FE
C07C
ENDCHAR
STARTCHAR 0196
ENCODING 406
SWIDTH 375 0
DWIDTH 9 0
BBX 7 17 2 0
BITMAP
C0
C0
C0
C0
C0
C0
C0
C0
C0
C0
C0
C0
C0
C0
E0
7E
3E
ENDCHAR
STARTCHAR 0197
ENCODING 407
SWIDTH 333 0
DWIDTH 8 0
BBX 6 17 1 0
BITMAP
30
30
30
30
30
30
30
FC
FC
30
30
30
30
30
30
30
30
ENDCHAR
STARTCHAR 0198
ENCODING 408
SWIDTH 666 0
DWIDTH 16 0
BBX 13 17 2 0
BITMAP
C070
C0F8
C1C0
C380
C700
CE00
DC00
F800
F000
FC00
DE00
CF00
C380
C1C0
C0E0
C070
C038
ENDCHAR
STARTCHAR 0199
ENCODING 409
SWIDTH 541 0
DWIDTH 13 0
BBX 11 18 2 0
BITMAP
7800
F800
C000
C000
C000
C0C0
C180
C700
CE00
D800
F000
F800
DE00
C600
C300
C180
C0C0
C060
ENDCHAR
STARTCHAR 019A
ENCODING 410
SWIDTH 291 0
DWIDTH 7 0
BBX 6 18 0 0
BITMAP
30
30
30
30
30
30
30
FC
FC
30
30
30
30
30
30
30
3C
1C
ENDCHAR
STARTCHAR 019B
ENCODING 411
SWIDTH 500 0
DWIDTH 12 0
BBX 12 18 0 0
BITMAP
F000
F800
1F80
3F80
7C00
0600
0E00
0F00
0F00
1B80
1980
3980
30C0
30C0
60E0
6060
E060
C030
ENDCHAR
STARTCHAR 019C
ENCODING 412
SWIDTH 916 0
DWIDTH 22 0
BBX 18 17 2 0
BITMAP
C0C0C0
C0C0C0
C0C0C0
C0C0C0
C0C0C0
C0C0C0
C0C0C0
C0C0C0
C0C0C0
C0C0C0
C0C0C0
C0C0C0
C0C0C0
C0C0C0
61E0C0
7FFFC0
3F1F80
ENDCHAR
STARTCHAR 019D
ENCODING 413
SWIDTH 708 0
DWIDTH 17 0
BBX 16 21 -1 -4
BITMAP
1803
1C03
1E03
1F03
1B03
1983
19C3
18E3
1863
1833
183B
181B
180F
1807
1807
1803
1801
1800
1800
F800
F000
ENDCHAR
STARTCHAR 019E
ENCODING 414
SWIDTH 583 0
DWIDTH 14 0
BBX 10 17 2 -4
BITMAP
7F00
FF80
C180
C0C0
C0C0
C0C0
C0C0
C0C0
C0C0
C0C0
C0C0
C0C0
C0C0
00C0
00C0
00C0
00C0
ENDCHAR
STARTCHAR 019F
ENCODING 415
SWIDTH 750 0
DWIDTH 18 0
BBX 16 17 1 0
BITMAP
07E0
1FF8
381C
700E
6006
C003
C003
FFFF
FFFF
C003
C003
E007
6006
700E
381C
1FF8
07E0
ENDCHAR
STARTCHAR 01A0
ENCODING 416
SWIDTH 750 0
DWIDTH 18 0
BBX 16 19 1 0
BITMAP
0003
0003
07E3
1FFE
381C
700E
6006
E007
C003
C003
C003
C003
C003
E007
6006
700E
381C
1FF8
07E0
ENDCHAR
STARTCHAR 01A1
ENCODING 417
SWIDTH 583 0
DWIDTH 14 0
BBX 13 15 1 0
BITMAP
0018
0018
0F98
3FF0
70E0
6060
C030
C030
C030
C030
C030
6060
70E0
3FC0
0F00
ENDCHAR
STARTCHAR 01A2
ENCODING 418
SWIDTH 1041 0
DWIDTH 25 0
BBX 22 17 1 0
BITMAP
07E3E0
1FFFF8
383C38
701C1C
600C0C
E00E0C
C0060C
C0060C
C0060C
C0060C
C0060C
C00E0C
600C0C
701C0C
38380C
1FF00C
07C00C
ENDCHAR
STARTCHAR 01A3
ENCODING 419
SWIDTH 833 0
DWIDTH 20 0
BBX 17 17 1 -4
BITMAP
1F3E00
3FFF00
71C380
60C180
C06180
C06180
C06180
C06180
C06180
60C180
71C180
3F8180
1F0180
000180
000180
000180
000180
ENDCHAR
STARTCHAR 01A4
ENCODING 420
SWIDTH 708 0
DWIDTH 17 0
BBX 15 17 1 0
BITMAP
3FE0
7FF8
EC1C
CC0E
CC06
0C06
0C06
0C0E
0C1C
0FF8
0FE0
0C00
0C00
0C00
0C00
0C00
0C00
ENDCHAR
STARTCHAR 01A5
ENCODING 421
SWIDTH 583 0
DWIDTH 14 0
BBX 11 22 2 -4
BITMAP
7800
F800
C000
C000
C000
FE00
FF80
C1C0
C0C0
C060
C060
C060
C060
C060
C0E0
E1C0
FF80
DF00
C000
C000
C000
C000
ENDCHAR
STARTCHAR 01A6
ENCODING 422
SWIDTH 625 0
DWIDTH 15 0
BBX 14 22 2 -3
BITMAP
C000
C000
FF00
FFC0
C0E0
C030
C030
C030
C030
C0E0
FFC0
FF80
C180
C0C0
C0C0
C060
C060
C030
C030
0018
0018
000C
ENDCHAR
STARTCHAR 01A7
ENCODING 423
SWIDTH 541 0
DWIDTH 13 0
BBX 11 17 1 0
BITMAP
3F00
7FC0
20E0
0060
0060
00E0
03C0
0F80
1E00
7800
6000
C000
C000
C000
E060
7FE0
1F80
ENDCHAR
STARTCHAR 01A8
ENCODING 424
SWIDTH 458 0
DWIDTH 11 0
BBX 9 13 1 0
BITMAP
7E00
7F00
4380
0180
0380
0F00
3E00
7800
E000
C000
E080
7F80
3F00
ENDCHAR
STARTCHAR 01A9
ENCODING 425
SWIDTH 583 0
DWIDTH 14 0
BBX 12 17 1 0
BITMAP
FFF0
FFF0
6000
3000
3800
1800
0C00
0600
0300
0600
0C00
1800
3000
7000
6000
FFF0
FFF0
ENDCHAR
STARTCHAR 01AA
ENCODING 426
SWIDTH 291 0
DWIDTH 7 0
BBX 9 22 -2 -4
BITMAP
3800
7C00
C600
C600
C600
FE00
7E00
0600
0600
0600
0600
0600
0600
0600
0600
0600
0600
0600
0600
0600
0780
0380
ENDCHAR
STARTCHAR 01AB
ENCODING 427
SWIDTH 416 0
DWIDTH 10 0
BBX 7 21 2 -4
BITMAP
C0
C0
C0
C0
FE
FE
C0
C0
C0
C0
C0
C0
C0
C0
E0
7E
3E
06
06
3E
3C
ENDCHAR
STARTCHAR 01AC
ENCODING 428
SWIDTH 541 0
DWIDTH 13 0
BBX 13 17 0 0
BITMAP
3FF8
7FF8
E300
C300
C300
0300
0300
0300
0300
0300
0300
0300
0300
0300
0300
0300
0300
ENDCHAR
STARTCHAR 01AD
ENCODING 429
SWIDTH 416 0
DWIDTH 10 0
BBX 8 18 2 0
BITMAP
3F
7F
E0
C0
C0
FF
FF
C0
C0
C0
C0
C0
C0
C0
C0
E1
7F
3E
ENDCHAR
STARTCHAR 01AE
ENCODING 430
SWIDTH 500 0
DWIDTH 12 0
BBX 12 21 0 -4
BITMAP
FFF0
FFF0
0600
0600
0600
0600
0600
0600
0600
0600
0600
0600
0600
0600
0600
0600
0600
0600
0600
07C0
03C0
ENDCHAR
STARTCHAR 01AF
ENCODING 431
SWIDTH 708 0
DWIDTH 17 0
BBX 16 20 2 0
BITMAP
0003
0003
0003
C01E
C01C
C018
C018
C018
C018
C018
C018
C018
C018
C018
C018
C018
6038
7070
3FE0
0F80
ENDCHAR
STARTCHAR 01B0
ENCODING 432
SWIDTH 583 0
DWIDTH 14 0
BBX 13 16 2 0
BITMAP
0018
0018
0018
C0F0
C0E0
C0C0
C0C0
C0C0
C0C0
C0C0
C0C0
C0C0
C0C0
60C0
7FC0
1F80
ENDCHAR
STARTCHAR 01B1
ENCODING 433
SWIDTH 791 0
DWIDTH 19 0
BBX 17 17 1 0
BITMAP
FE3F80
FE3F80
1C1C00
300E00
300600
600300
C00180
C00180
C00180
C00180
C00180
C00180
600300
700700
3C1E00
1FFC00
07F000
ENDCHAR
STARTCHAR 01B2
ENCODING 434
SWIDTH 708 0
DWIDTH 17 0
BBX 14 17 2 0
BITMAP
C0E0
C0F0
C038
C018
C00C
C00C
C00C
C00C
C00C
C00C
C00C
C00C
C018
6038
7070
3FE0
0FC0
ENDCHAR
STARTCHAR 01B3
ENCODING 435
SWIDTH 666 0
DWIDTH 16 0
BBX 16 17 0 0
BITMAP
C01E
603F
7032
3060
1860
18C0
0CC0
0F80
0780
0300
0300
0300
0300
0300
0300
0300
0300
ENDCHAR
STARTCHAR 01B4
ENCODING 436
SWIDTH 583 0
DWIDTH 14 0
BBX 14 17 0 -4
BITMAP
C03C
E07C
6060
6060
70E0
30C0
30C0
19C0
1980
0F80
0F00
0700
0700
0600
0E00
FC00
F800
ENDCHAR
STARTCHAR 01B5
ENCODING 437
SWIDTH 583 0
DWIDTH 14 0
BBX 12 17 1 0
BITMAP
FFF0
FFF0
0070
0060
00C0
0180
0380
7FF0
7FF0
0C00
1C00
1800
3000
6000
E000
FFF0
FFF0
ENDCHAR
STARTCHAR 01B6
ENCODING 438
SWIDTH 458 0
DWIDTH 11 0
BBX 9 13 1 0
BITMAP
FF80
FF80
0380
0300
0600
7F80
7F80
1800
3000
6000
E000
FF80
FF80
ENDCHAR
STARTCHAR 01B7
ENCODING 439
SWIDTH 583 0
DWIDTH 14 0
BBX 12 17 1 0
BITMAP
7FF0
7FF0
0060
00C0
0180
0300
0600
0F80
0FC0
00E0
0070
0030
0030
0030
C0E0
FFE0
3F80
ENDCHAR
STARTCHAR 01B8
ENCODING 440
SWIDTH 583 0
DWIDTH 14 0
BBX 12 17 1 0
BITMAP
FFE0
FFE0
6000
3000
1800
0C00
0600
1F00
7F00
7000
E000
C000
C000
C000
7020
7FF0
1FC0
ENDCHAR
STARTCHAR 01B9
ENCODING 441
SWIDTH 458 0
DWIDTH 11 0
BBX 10 17 1 -4
BITMAP
7F80
7F80
3000
3800
1800
0C00
0E00
1E00
7E00
F000
C000
C000
C000
C000
6040
7FC0
1F80
ENDCHAR
STARTCHAR 01BA
ENCODING 442
SWIDTH 458 0
DWIDTH 11 0
BBX 10 18 0 -5
BITMAP
FFC0
FFC0
0180
0300
0600
0C00
1E00
1F80
03C0
00C0
00C0
00C0
03C0
3F80
FC00
E000
C000
C000
ENDCHAR
STARTCHAR 01BB
ENCODING 443
SWIDTH 541 0
DWIDTH 13 0
BBX 10 17 1 0
BITMAP
3F00
FF80
E1C0
00C0
00C0
00C0
0180
0300
7FC0
7FC0
1C00
3800
7000
6000
C000
FFC0
FFC0
ENDCHAR
STARTCHAR 01BC
ENCODING 444
SWIDTH 541 0
DWIDTH 13 0
BBX 11 17 1 0
BITMAP
FFC0
FFC0
3000
3000
3000
3000
3E00
7F80
03C0
00E0
0060
0060
0060
0060
41C0
7FC0
3F00
ENDCHAR
STARTCHAR 01BD
ENCODING 445
SWIDTH 500 0
DWIDTH 12 0
BBX 10 13 1 0
BITMAP
FF80
FF80
3000
3000
3000
3E00
3F80
01C0
00C0
00C0
81C0
FF80
7F00
ENDCHAR
STARTCHAR 01BE
ENCODING 446
SWIDTH 458 0
DWIDTH 11 0
BBX 9 17 1 0
BITMAP
6000
6000
6000
6000
7F00
7F00
6000
6000
7000
3C00
3F00
0780
0180
0180
8380
FF00
7E00
ENDCHAR
STARTCHAR 01BF
ENCODING 447
SWIDTH 583 0
DWIDTH 14 0
BBX 11 17 2 -4
BITMAP
3F00
FF80
C1C0
C0E0
C060
C060
C060
C060
C0C0
C1C0
C380
DF00
FC00
F000
C000
C000
C000
ENDCHAR
STARTCHAR 01C0
ENCODING 448
SWIDTH 291 0
DWIDTH 7 0
BBX 2 23 2 -4
BITMAP
C0
C0
C0
C0
C0
C0
C0
C0
C0
C0
C0
C0
C0
C0
C0
C0
C0
C0
C0
C0
C0
C0
C0
ENDCHAR
STARTCHAR 01C1
ENCODING 449
SWIDTH 500 0
DWIDTH 12 0
BBX 7 23 2 -4
BITMAP
C6
C6
C6
C6
C6
C6
C6
C6
C6
C6
C6
C6
C6
C6
C6
C6
C6
C6
C6
C6
C6
C6
C6
ENDCHAR
STARTCHAR 01C2
ENCODING 450
SWIDTH 583 0
DWIDTH 14 0
BBX 12 23 1 -4
BITMAP
0600
0600
0600
0600
0600
0600
0600
0600
FFF0
FFF0
0600
0600
0600
FFF0
FFF0
0600
0600
0600
0600
0600
0600
0600
0600
ENDCHAR
STARTCHAR 01C3
ENCODING 451
SWIDTH 291 0
DWIDTH 7 0
BBX 2 17 2 0
BITMAP
C0
C0
C0
C0
C0
C0
C0
C0
C0
C0
C0
C0
00
00
C0
C0
C0
ENDCHAR
STARTCHAR 01C4
ENCODING 452
SWIDTH 1291 0
DWIDTH 31 0
BBX 28 22 2 0
BITMAP
000018C0
00000D80
00000700
00000200
00000000
FF00FFF0
FFE0FFF0
C0F00070
C0380060
C01800C0
C01C0180
C00C0300
C00C0700
C00C0600
C00C0C00
C00C1800
C01C3800
C0183000
C0386000
C0F0E000
FFE0FFF0
FF00FFF0
ENDCHAR
STARTCHAR 01C5
ENCODING 453
SWIDTH 1208 0
DWIDTH 29 0
BBX 25 18 2 0
BITMAP
00006300
FF003600
FFE01C00
C0F00800
C0380000
C018FF80
C01CFF80
C00C0380
C00C0700
C00C0600
C00C0C00
C00C1800
C01C3800
C0183000
C0386000
C0F0E000
FFE0FF80
FF00FF80
ENDCHAR
STARTCHAR 01C6
ENCODING 454
SWIDTH 1083 0
DWIDTH 26 0
BBX 23 18 1 0
BITMAP
00618C
0060D8
006070
006020
006000
1F63FE
3FE3FE
70E00E
60601C
C06018
C06030
C06060
C060E0
C060C0
606180
706380
3FE3FE
0FC3FE
ENDCHAR
STARTCHAR 01C7
ENCODING 455
SWIDTH 1000 0
DWIDTH 24 0
BBX 21 17 2 0
BITMAP
C00018
C00018
C00018
C00018
C00018
C00018
C00018
C00018
C00018
C00018
C00018
C00018
C00018
C00018
C00830
FFDFF0
FFC7C0
ENDCHAR
STARTCHAR 01C8
ENCODING 456
SWIDTH 791 0
DWIDTH 19 0
BBX 15 22 2 -4
BITMAP
0006
C006
C000
C000
C000
C006
C006
C006
C006
C006
C006
C006
C006
C006
C006
C006
FFC6
FFC6
0006
000E
007C
0078
ENDCHAR
STARTCHAR 01C9
ENCODING 457
SWIDTH 541 0
DWIDTH 13 0
BBX 9 22 2 -5
BITMAP
C180
C180
C000
C000
C000
C180
C180
C180
C180
C180
C180
C180
C180
C180
C180
C180
F180
7180
0180
0380
1F00
1E00
ENDCHAR
STARTCHAR 01CA
ENCODING 458
SWIDTH 1208 0
DWIDTH 29 0
BBX 26 17 2 0
BITMAP
C01800C0
E01800C0
F01800C0
F81800C0
D81800C0
CC1800C0
CE1800C0
C71800C0
C31800C0
C19800C0
C1D800C0
C0D800C0
C07800C0
C03800C0
C0384180
C018FF80
C0083E00
ENDCHAR
STARTCHAR 01CB
ENCODING 459
SWIDTH 1000 0
DWIDTH 24 0
BBX 20 22 2 -5
BITMAP
000030
C01830
E01800
F01800
F81800
D81830
CC1830
CE1830
C71830
C31830
C19830
C1D830
C0D830
C07830
C03830
C03830
C01830
C00830
000030
000070
0003E0
0003C0
ENDCHAR
STARTCHAR 01CC
ENCODING 460
SWIDTH 833 0
DWIDTH 20 0
BBX 16 22 2 -5
BITMAP
0003
0003
0000
0000
0000
7E03
FF83
C183
C0C3
C0C3
C0C3
C0C3
C0C3
C0C3
C0C3
C0C3
C0C3
C0C3
0003
0007
003E
003C
ENDCHAR
STARTCHAR 01CD
ENCODING 461
SWIDTH 625 0
DWIDTH 15 0
BBX 15 22 0 0
BITMAP
0C60
06C0
0380
0100
0000
0380
0380
0380
06C0
06C0
0EE0
0C60
0C60
1830
1830
3830
3FF8
3FF8
600C
600C
600C
C006
ENDCHAR
STARTCHAR 01CE
ENCODING 462
SWIDTH 541 0
DWIDTH 13 0
BBX 10 18 1 0
BITMAP
3180
1B00
0E00
0400
0000
7F00
7F80
01C0
00C0
00C0
3FC0
7FC0
E0C0
C0C0
C0C0
E0C0
7FC0
3FC0
ENDCHAR
STARTCHAR 01CF
ENCODING 463
SWIDTH 250 0
DWIDTH 6 0
BBX 7 22 0 0
BITMAP
C6
6C
38
10
00
30
30
30
30
30
30
30
30
30
30
30
30
30
30
30
30
30
ENDCHAR
STARTCHAR 01D0
ENCODING 464
SWIDTH 250 0
DWIDTH 6 0
BBX 7 18 0 0
BITMAP
C6
6C
38
10
00
30
30
30
30
30
30
30
30
30
30
30
30
30
ENDCHAR
STARTCHAR 01D1
ENCODING 465
SWIDTH 750 0
DWIDTH 18 0
BBX 16 22 1 0
BITMAP
0C60
06C0
0380
0100
0000
07E0
1FF8
381C
700E
6006
E007
C003
C003
C003
C003
C003
E007
6006
700E
381C
1FF8
07E0
ENDCHAR
STARTCHAR 01D2
ENCODING 466
SWIDTH 583 0
DWIDTH 14 0
BBX 12 18 1 0
BITMAP
3180
1B00
0E00
0400
0000
0F00
3FC0
70E0
6060
C030
C030
C030
C030
C030
6060
70E0
3FC0
0F00
ENDCHAR
STARTCHAR 01D3
ENCODING 467
SWIDTH 708 0
DWIDTH 17 0
BBX 13 22 2 0
BITMAP
18C0
0D80
0700
0200
0000
C018
C018
C018
C018
C018
C018
C018
C018
C018
C018
C018
C018
C018
6030
7070
3FE0
0F80
ENDCHAR
STARTCHAR 01D4
ENCODING 468
SWIDTH 583 0
DWIDTH 14 0
BBX 10 18 2 0
BITMAP
3180
1B00
0E00
0400
0000
C0C0
C0C0
C0C0
C0C0
C0C0
C0C0
C0C0
C0C0
C0C0
C0C0
60C0
7FC0
1F80
ENDCHAR
STARTCHAR 01D5
ENCODING 469
SWIDTH 708 0
DWIDTH 17 0
BBX 13 24 2 0
BITMAP
0FC0
0FC0
0000
1CE0
1CE0
1CE0
0000
C018
C018
C018
C018
C018
C018
C018
C018
C018
C018
C018
C018
C018
6030
7070
3FE0
0F80
ENDCHAR
STARTCHAR 01D6
ENCODING 470
SWIDTH 583 0
DWIDTH 14 0
BBX 10 20 2 0
BITMAP
3F00
3F00
0000
7380
7380
7380
0000
C0C0
C0C0
C0C0
C0C0
C0C0
C0C0
C0C0
C0C0
C0C0
C0C0
60C0
7FC0
1F80
ENDCHAR
STARTCHAR 01D7
ENCODING 471
SWIDTH 708 0
DWIDTH 17 0
BBX 13 23 2 0
BITMAP
0080
01C0
3BF0
3970
3870
0000
C018
C018
C018
C018
C018
C018
C018
C018
C018
C018
C018
C018
C018
6030
7070
3FE0
0F80
ENDCHAR
STARTCHAR 01D8
ENCODING 472
SWIDTH 583 0
DWIDTH 14 0
BBX 10 20 2 0
BITMAP
0200
0700
0E00
75C0
71C0
71C0
0000
C0C0
C0C0
C0C0
C0C0
C0C0
C0C0
C0C0
C0C0
C0C0
C0C0
60C0
7FC0
1F80
ENDCHAR
STARTCHAR 01D9
ENCODING 473
SWIDTH 708 0
DWIDTH 17 0
BBX 13 23 2 0
BITMAP
0D80
0700
3A70
3870
3870
0000
C018
C018
C018
C018
C018
C018
C018
C018
C018
C018
C018
C018
C018
6030
7070
3FE0
0F80
ENDCHAR
STARTCHAR 01DA
ENCODING 474
SWIDTH 583 0
DWIDTH 14 0
BBX 10 20 2 0
BITMAP
1B00
0E00
0400
71C0
71C0
71C0
0000
C0C0
C0C0
C0C0
C0C0
C0C0
C0C0
C0C0
C0C0
C0C0
C0C0
60C0
7FC0
1F80
ENDCHAR
STARTCHAR 01DB
ENCODING 475
SWIDTH 708 0
DWIDTH 17 0
BBX 13 23 2 0
BITMAP
0800
1C00
7EE0
74E0
70E0
0000
C018
C018
C018
C018
C018
C018
C018
C018
C018
C018
C018
C018
C018
6030
7070
3FE0
0F80
ENDCHAR
STARTCHAR 01DC
ENCODING 476
SWIDTH 583 0
DWIDTH 14 0
BBX 10 20 2 0
BITMAP
0800
1C00
0E00
75C0
71C0
71C0
0000
C0C0
C0C0
C0C0
C0C0
C0C0
C0C0
C0C0
C0C0
C0C0
C0C0
60C0
7FC0
1F80
ENDCHAR
STARTCHAR 01DD
ENCODING 477
SWIDTH 541 0
DWIDTH 13 0
BBX 11 13 1 0
BITMAP
3F00
7F80
41C0
00C0
0060
0060
FFE0
FFE0
C060
C0C0
61C0
7F80
1F00
ENDCHAR
STARTCHAR 01DE
ENCODING 478
SWIDTH 625 0
DWIDTH 15 0
BBX 15 24 0 0
BITMAP
07E0
07E0
0000
0E70
0E70
0E70
0000
0380
0380
0380
06C0
06C0
0EE0
0C60
0C60
1830
1830
3830
3FF8
3FF8
600C
600C
600C
C006
ENDCHAR
STARTCHAR 01DF
ENCODING 479
SWIDTH 541 0
DWIDTH 13 0
BBX 10 20 1 0
BITMAP
3F00
3F00
0000
7380
7380
7380
0000
7F00
7F80
01C0
00C0
00C0
3FC0
7FC0
E0C0
C0C0
C0C0
E0C0
7FC0
3FC0
ENDCHAR
STARTCHAR 01E0
ENCODING 480
SWIDTH 625 0
DWIDTH 15 0
BBX 15 24 0 0
BITMAP
0FE0
0FE0
0000
0380
0380
0380
0000
0380
0380
0380
06C0
06C0
0EE0
0C60
0C60
1830
1830
3830
3FF8
3FF8
600C
600C
600C
C006
ENDCHAR
STARTCHAR 01E1
ENCODING 481
SWIDTH 541 0
DWIDTH 13 0
BBX 10 20 1 0
BITMAP
3F80
3F80
0000
0E00
0E00
0E00
0000
7F00
7F80
01C0
00C0
00C0
3FC0
7FC0
E0C0
C0C0
C0C0
E0C0
7FC0
3FC0
ENDCHAR
STARTCHAR 01E2
ENCODING 482
SWIDTH 916 0
DWIDTH 22 0
BBX 21 21 0 0
BITMAP
003F80
003F80
000000
000000
003FF0
007FF0
00F800
00D800
019800
019800
031800
031FF0
061FF0
0C1800
0C1800
1FF800
1FF800
301800
701800
601FF8
C01FF8
ENDCHAR
STARTCHAR 01E3
ENCODING 483
SWIDTH 875 0
DWIDTH 21 0
BBX 19 17 1 0
BITMAP
03F800
03F800
000000
000000
7E1F00
7FBFC0
01F0C0
00E060
00C060
3FFFE0
7FFFE0
E0C000
C0C000
C0E000
E0F040
7FFFC0
3F1F80
ENDCHAR
STARTCHAR 01E4
ENCODING 484
SWIDTH 708 0
DWIDTH 17 0
BBX 16 17 1 0
BITMAP
07F0
1FFC
3C08
7000
6000
E000
C000
C000
C00C
C00C
C07F
E07F
600C
700C
3C0C
1FFC
07F8
ENDCHAR
STARTCHAR 01E5
ENCODING 485
SWIDTH 583 0
DWIDTH 14 0
BBX 13 17 1 -4
BITMAP
0FC0
3FE0
7060
6060
C060
C3F8
C3F8
C060
C060
E060
70E0
3FE0
1F60
0060
40C0
7FC0
3F00
ENDCHAR
STARTCHAR 01E6
ENCODING 486
SWIDTH 666 0
DWIDTH 16 0
BBX 13 22 1 0
BITMAP
0C60
06C0
0380
0100
0000
07E0
1FF8
3810
7000
6000
E000
C000
C000
C000
C018
C018
C018
6018
7018
3818
1FF8
07F0
ENDCHAR
STARTCHAR 01E7
ENCODING 487
SWIDTH 583 0
DWIDTH 14 0
BBX 11 22 1 -4
BITMAP
3180
1B00
0E00
0400
0000
0FC0
3FE0
7060
6060
C060
C060
C060
C060
C060
E060
70E0
3FE0
1F60
0060
40C0
7FC0
3F00
ENDCHAR
STARTCHAR 01E8
ENCODING 488
SWIDTH 625 0
DWIDTH 15 0
BBX 13 22 2 0
BITMAP
3180
1B00
0E00
0400
0000
C070
C0E0
C1C0
C380
C700
CE00
DC00
F800
F000
FC00
DE00
CF00
C380
C1C0
C0E0
C070
C038
ENDCHAR
STARTCHAR 01E9
ENCODING 489
SWIDTH 541 0
DWIDTH 13 0
BBX 11 23 2 0
BITMAP
8800
7000
2000
0000
0000
C000
C000
C000
C000
C000
C0C0
C180
C700
CE00
D800
F000
F800
DE00
C600
C300
C180
C0C0
C060
ENDCHAR
STARTCHAR 01EA
ENCODING 490
SWIDTH 750 0
DWIDTH 18 0
BBX 16 22 1 -5
BITMAP
07E0
1FF8
381C
700E
6006
E007
C003
C003
C003
C003
C003
E007
6006
700E
381C
1FF8
07E0
00C0
0180
0180
01E0
00E0
ENDCHAR
STARTCHAR 01EB
ENCODING 491
SWIDTH 583 0
DWIDTH 14 0
BBX 12 18 1 -5
BITMAP
0F00
3FC0
70E0
6060
C030
C030
C030
C030
C030
6060
70E0
3FC0
1F00
0600
0C00
0C00
0F00
0700
ENDCHAR
STARTCHAR 01EC
ENCODING 492
SWIDTH 750 0
DWIDTH 18 0
BBX 16 26 1 -5
BITMAP
0FE0
0FE0
0000
0000
07E0
1FF8
381C
700E
6006
E007
C003
C003
C003
C003
C003
E007
6006
700E
381C
1FF8
07E0
00C0
0180
0180
01E0
00E0
ENDCHAR
STARTCHAR 01ED
ENCODING 493
SWIDTH 583 0
DWIDTH 14 0
BBX 12 22 1 -5
BITMAP
3F80
3F80
0000
0000
0F00
3FC0
70E0
6060
C030
C030
C030
C030
C030
6060
70E0
3FC0
1F00
0600
0C00
0C00
0F00
0700
ENDCHAR
STARTCHAR 01EE
ENCODING 494
SWIDTH 583 0
DWIDTH 14 0
BBX 12 22 1 0
BITMAP
18C0
0D80
0700
0200
0000
7FF0
7FF0
0060
00C0
0180
0300
0600
0F80
0FC0
00E0
0070
0030
0030
0030
C0E0
FFE0
3F80
ENDCHAR
STARTCHAR 01EF
ENCODING 495
SWIDTH 458 0
DWIDTH 11 0
BBX 10 22 0 -4
BITMAP
6300
3600
1C00
0800
0000
7F80
7F80
0300
0700
0600
0C00
1C00
1E00
1F80
03C0
00C0
00C0
00C0
00C0
8380
FF80
7E00
ENDCHAR
STARTCHAR 01F0
ENCODING 496
SWIDTH 250 0
DWIDTH 6 0
BBX 8 22 -2 -4
BITMAP
63
36
1C
08
00
0C
0C
0C
0C
0C
0C
0C
0C
0C
0C
0C
0C
0C
0C
1C
F8
F0
ENDCHAR
STARTCHAR 01F1
ENCODING 497
SWIDTH 1291 0
DWIDTH 31 0
BBX 28 17 2 0
BITMAP
FF00FFF0
FFE0FFF0
C0F00070
C0380060
C01800C0
C01C0180
C00C0300
C00C0700
C00C0600
C00C0C00
C00C1800
C01C3800
C0183000
C0386000
C0F0E000
FFE0FFF0
FF00FFF0
ENDCHAR
STARTCHAR 01F2
ENCODING 498
SWIDTH 1208 0
DWIDTH 29 0
BBX 25 17 2 0
BITMAP
FF000000
FFE00000
C0F00000
C0380000
C018FF80
C01CFF80
C00C0380
C00C0700
C00C0600
C00C0C00
C00C1800
C01C3800
C0183000
C0386000
C0F0E000
FFE0FF80
FF00FF80
ENDCHAR
STARTCHAR 01F3
ENCODING 499
SWIDTH 1083 0
DWIDTH 26 0
BBX 23 18 1 0
BITMAP
006000
006000
006000
006000
006000
1F63FE
3FE3FE
70E00E
60601C
C06018
C06030
C06060
C060E0
C060C0
606180
706380
3FE3FE
0FC3FE
ENDCHAR
STARTCHAR 01F4
ENCODING 500
SWIDTH 666 0
DWIDTH 16 0
BBX 13 23 1 0
BITMAP
0040
00E0
01C0
0380
0100
0000
07E0
1FF8
3810
7000
6000
E000
C000
C000
C000
C018
C018
C018
6018
7018
3818
1FF8
07F0
ENDCHAR
STARTCHAR 01F5
ENCODING 501
SWIDTH 583 0
DWIDTH 14 0
BBX 11 23 1 -4
BITMAP
0100
0380
0700
0E00
0400
0000
0FC0
3FE0
7060
6060
C060
C060
C060
C060
C060
E060
70E0
3FE0
1F60
0060
40C0
7FC0
3F00
ENDCHAR
STARTCHAR 01F6
ENCODING 502
SWIDTH 1041 0
DWIDTH 25 0
BBX 21 17 2 0
BITMAP
C03000
C03000
C03000
C03000
C03018
C03018
C03018
FFF018
FFF018
C03018
C03018
C03018
C03018
C03838
C01830
C01FF0
C007C0
ENDCHAR
STARTCHAR 01F7
ENCODING 503
SWIDTH 625 0
DWIDTH 15 0
BBX 11 21 2 -4
BITMAP
3F00
FF80
C1C0
C0E0
C060
C060
C060
C060
C060
C0E0
C0C0
C1C0
C380
C700
DE00
F800
E000
C000
C000
C000
C000
ENDCHAR
STARTCHAR 01F8
ENCODING 504
SWIDTH 708 0
DWIDTH 17 0
BBX 13 23 2 0
BITMAP
0800
1C00
0E00
0700
0200
0000
C018
E018
F018
F818
D818
CC18
CE18
C718
C318
C198
C1D8
C0D8
C078
C038
C038
C018
C008
ENDCHAR
STARTCHAR 01F9
ENCODING 505
SWIDTH 583 0
DWIDTH 14 0
BBX 10 19 2 0
BITMAP
1000
3800
1C00
0E00
0400
0000
7E00
FF80
C180
C0C0
C0C0
C0C0
C0C0
C0C0
C0C0
C0C0
C0C0
C0C0
C0C0
ENDCHAR
STARTCHAR 01FA
ENCODING 506
SWIDTH 666 0
DWIDTH 16 0
BBX 16 23 0 0
BITMAP
0060
03E0
0F00
07C0
0C60
0440
0380
0380
06C0
06C0
0E60
0C60
0C70
1C30
1830
1818
3FF8
3FFC
300C
600C
6006
6006
C003
ENDCHAR
STARTCHAR 01FB
ENCODING 507
SWIDTH 541 0
DWIDTH 13 0
BBX 10 21 1 0
BITMAP
0300
1F00
3800
1E00
3300
3300
1E00
0000
7F00
7F80
01C0
00C0
00C0
3FC0
7FC0
E0C0
C0C0
C0C0
E0C0
7FC0
3FC0
ENDCHAR
STARTCHAR 01FC
ENCODING 508
SWIDTH 916 0
DWIDTH 22 0
BBX 21 23 0 0
BITMAP
000200
000700
000E00
001C00
000800
000000
003FF0
007FF0
00F800
00D800
019800
019800
031800
031FF0
061FF0
0C1800
0C1800
1FF800
1FF800
301800
701800
601FF8
C01FF8
ENDCHAR
STARTCHAR 01FD
ENCODING 509
SWIDTH 875 0
DWIDTH 21 0
BBX 19 19 1 0
BITMAP
001000
003800
007000
00E000
004000
000000
7E1F00
7FBFC0
01F0C0
00E060
00C060
3FFFE0
7FFFE0
E0C000
C0C000
C0E000
E0F040
7FFFC0
3F1F80
ENDCHAR
STARTCHAR 01FE
ENCODING 510
SWIDTH 750 0
DWIDTH 18 0
BBX 16 25 1 -1
BITMAP
0040
00E0
01C0
0380
0100
0000
0002
07E7
1FFE
3C1C
701E
603E
E037
C063
C0C3
C1C3
C183
C303
6607
7E06
3C0E
1C1C
3FF8
73E0
2000
ENDCHAR
STARTCHAR 01FF
ENCODING 511
SWIDTH 583 0
DWIDTH 14 0
BBX 12 21 1 -1
BITMAP
0100
0380
0700
0E00
0400
0000
0020
0F60
3FE0
70E0
61E0
C370
C330
C630
CC30
EC30
7860
70E0
7FC0
6F80
4000
ENDCHAR
STARTCHAR 0200
ENCODING 512
SWIDTH 625 0
DWIDTH 15 0
BBX 15 23 0 0
BITMAP
0880
1980
0CC0
0660
0440
0000
0380
0380
0380
06C0
06C0
0EE0
0C60
0C60
1830
1830
3830
3FF8
3FF8
600C
600C
600C
C006
ENDCHAR
STARTCHAR 0201
ENCODING 513
SWIDTH 541 0
DWIDTH 13 0
BBX 10 19 1 0
BITMAP
4400
CC00
6600
3300
2200
0000
7F00
7F80
01C0
00C0
00C0
3FC0
7FC0
E0C0
C0C0
C0C0
E0C0
7FC0
3FC0
ENDCHAR
STARTCHAR 0202
ENCODING 514
SWIDTH 625 0
DWIDTH 15 0
BBX 15 23 0 0
BITMAP
0380
07C0
06C0
0440
0000
0000
0380
0380
0380
06C0
06C0
0EE0
0C60
0C60
1830
1830
3830
3FF8
3FF8
600C
600C
600C
C006
ENDCHAR
STARTCHAR 0203
ENCODING 515
SWIDTH 541 0
DWIDTH 13 0
BBX 10 19 1 0
BITMAP
0E00
1F00
1B00
1100
0000
0000
7F00
7F80
01C0
00C0
00C0
3FC0
7FC0
E0C0
C0C0
C0C0
E0C0
7FC0
3FC0
ENDCHAR
STARTCHAR 0204
ENCODING 516
SWIDTH 583 0
DWIDTH 14 0
BBX 11 23 2 0
BITMAP
2200
6600
3300
1980
1100
0000
FFC0
FFC0
C000
C000
C000
C000
C000
FFC0
FFC0
C000
C000
C000
C000
C000
C000
FFE0
FFE0
ENDCHAR
STARTCHAR 0205
ENCODING 517
SWIDTH 541 0
DWIDTH 13 0
BBX 11 19 1 0
BITMAP
2200
6600
3300
1980
1100
0000
1F00
3FC0
70C0
6060
C060
FFE0
FFE0
C000
C000
E000
7040
3FC0
1F80
ENDCHAR
STARTCHAR 0206
ENCODING 518
SWIDTH 583 0
DWIDTH 14 0
BBX 11 23 2 0
BITMAP
0E00
1F00
1B00
1100
0000
0000
FFC0
FFC0
C000
C000
C000
C000
C000
FFC0
FFC0
C000
C000
C000
C000
C000
C000
FFE0
FFE0
ENDCHAR
STARTCHAR 0207
ENCODING 519
SWIDTH 541 0
DWIDTH 13 0
BBX 11 19 1 0
BITMAP
0E00
1F00
1B00
1100
0000
0000
1F00
3FC0
70C0
6060
C060
FFE0
FFE0
C000
C000
E000
7040
3FC0
1F80
ENDCHAR
STARTCHAR 0208
ENCODING 520
SWIDTH 250 0
DWIDTH 6 0
BBX 8 23 -2 0
BITMAP
44
CC
66
33
22
00
0C
0C
0C
0C
0C
0C
0C
0C
0C
0C
0C
0C
0C
0C
0C
0C
0C
ENDCHAR
STARTCHAR 0209
ENCODING 521
SWIDTH 250 0
DWIDTH 6 0
BBX 8 19 -2 0
BITMAP
44
CC
66
33
22
00
0C
0C
0C
0C
0C
0C
0C
0C
0C
0C
0C
0C
0C
ENDCHAR
STARTCHAR 020A
ENCODING 522
SWIDTH 250 0
DWIDTH 6 0
BBX 5 23 1 0
BITMAP
70
F8
D8
88
00
00
60
60
60
60
60
60
60
60
60
60
60
60
60
60
60
60
60
ENDCHAR
STARTCHAR 020B
ENCODING 523
SWIDTH 250 0
DWIDTH 6 0
BBX 5 19 1 0
BITMAP
70
F8
D8
88
00
00
60
60
60
60
60
60
60
60
60
60
60
60
60
ENDCHAR
STARTCHAR 020C
ENCODING 524
SWIDTH 750 0
DWIDTH 18 0
BBX 16 23 1 0
BITMAP
0880
1980
0CC0
0660
0440
0000
07E0
1FF8
381C
700E
6006
E007
C003
C003
C003
C003
C003
E007
6006
700E
381C
1FF8
07E0
ENDCHAR
STARTCHAR 020D
ENCODING 525
SWIDTH 583 0
DWIDTH 14 0
BBX 12 19 1 0
BITMAP
2200
6600
3300
1980
1100
0000
0F00
3FC0
70E0
6060
C030
C030
C030
C030
C030
6060
70E0
3FC0
0F00
ENDCHAR
STARTCHAR 020E
ENCODING 526
SWIDTH 750 0
DWIDTH 18 0
BBX 16 23 1 0
BITMAP
01C0
03E0
0360
0220
0000
0000
07E0
1FF8
381C
700E
6006
E007
C003
C003
C003
C003
C003
E007
6006
700E
381C
1FF8
07E0
ENDCHAR
STARTCHAR 020F
ENCODING 527
SWIDTH 583 0
DWIDTH 14 0
BBX 12 19 1 0
BITMAP
0700
0F80
0D80
0880
0000
0000
0F00
3FC0
70E0
6060
C030
C030
C030
C030
C030
6060
70E0
3FC0
0F00
ENDCHAR
STARTCHAR 0210
ENCODING 528
SWIDTH 625 0
DWIDTH 15 0
BBX 13 23 2 0
BITMAP
4400
CC00
6600
3300
2200
0000
FF00
FFC0
C0E0
C030
C030
C030
C030
C0E0
FFC0
FF80
C180
C0C0
C0E0
C060
C030
C038
C018
ENDCHAR
STARTCHAR 0211
ENCODING 529
SWIDTH 375 0
DWIDTH 9 0
BBX 8 19 1 0
BITMAP
44
CC
66
33
22
00
3F
7F
60
60
60
60
60
60
60
60
60
60
60
ENDCHAR
STARTCHAR 0212
ENCODING 530
SWIDTH 625 0
DWIDTH 15 0
BBX 13 23 2 0
BITMAP
0E00
1F00
1B00
1100
0000
0000
FF00
FFC0
C0E0
C030
C030
C030
C030
C0E0
FFC0
FF80
C180
C0C0
C0E0
C060
C030
C038
C018
ENDCHAR
STARTCHAR 0213
ENCODING 531
SWIDTH 375 0
DWIDTH 9 0
BBX 7 19 2 0
BITMAP
38
7C
6C
44
00
00
7E
FE
C0
C0
C0
C0
C0
C0
C0
C0
C0
C0
C0
ENDCHAR
STARTCHAR 0214
ENCODING 532
SWIDTH 708 0
DWIDTH 17 0
BBX 13 23 2 0
BITMAP
2200
6600
3300
1980
1100
0000
C018
C018
C018
C018
C018
C018
C018
C018
C018
C018
C018
C018
C018
6030
7070
3FE0
0F80
ENDCHAR
STARTCHAR 0215
ENCODING 533
SWIDTH 583 0
DWIDTH 14 0
BBX 10 19 2 0
BITMAP
4400
CC00
6600
3300
2200
0000
C0C0
C0C0
C0C0
C0C0
C0C0
C0C0
C0C0
C0C0
C0C0
C0C0
60C0
7FC0
1F80
ENDCHAR
STARTCHAR 0216
ENCODING 534
SWIDTH 708 0
DWIDTH 17 0
BBX 13 23 2 0
BITMAP
0700
0F80
0D80
0880
0000
0000
C018
C018
C018
C018
C018
C018
C018
C018
C018
C018
C018
C018
C018
6030
7070
3FE0
0F80
ENDCHAR
STARTCHAR 0217
ENCODING 535
SWIDTH 583 0
DWIDTH 14 0
BBX 10 19 2 0
BITMAP
0E00
1F00
1B00
1100
0000
0000
C0C0
C0C0
C0C0
C0C0
C0C0
C0C0
C0C0
C0C0
C0C0
C0C0
60C0
7FC0
1F80
ENDCHAR
STARTCHAR 0218
ENCODING 536
SWIDTH 541 0
DWIDTH 13 0
BBX 11 21 1 -4
BITMAP
1F80
7FC0
E080
C000
C000
E000
7800
3C00
0F00
03C0
00C0
0060
0060
0060
C0E0
FFC0
3F00
0000
0600
1E00
1C00
ENDCHAR
STARTCHAR 0219
ENCODING 537
SWIDTH 458 0
DWIDTH 11 0
BBX 9 17 1 -4
BITMAP
3F00
7F00
E100
C000
C000
7800
3E00
0F00
0380
0180
8380
FF00
7E00
0000
0C00
3C00
3800
ENDCHAR
STARTCHAR 021A
ENCODING 538
SWIDTH 500 0
DWIDTH 12 0
BBX 12 21 0 -4
BITMAP
FFF0
FFF0
0600
0600
0600
0600
0600
0600
0600
0600
0600
0600
0600
0600
0600
0600
0600
0000
0600
1E00
1C00
ENDCHAR
STARTCHAR 021B
ENCODING 539
SWIDTH 416 0
DWIDTH 10 0
BBX 7 21 2 -4
BITMAP
C0
C0
C0
C0
FE
FE
C0
C0
C0
C0
C0
C0
C0
C0
E2
7E
3E
00
18
78
70
ENDCHAR
STARTCHAR 021C
ENCODING 540
SWIDTH 541 0
DWIDTH 13 0
BBX 11 21 1 -4
BITMAP
7E00
FF80
4180
00C0
00C0
00C0
00C0
0180
0380
3F00
3F80
03C0
00C0
0060
0060
0060
0060
00C0
03C0
FF00
FC00
ENDCHAR
STARTCHAR 021D
ENCODING 541
SWIDTH 416 0
DWIDTH 10 0
BBX 9 17 0 -4
BITMAP
FC00
FE00
8700
0300
0300
0300
0E00
3C00
3E00
0700
0180
0180
0180
0380
0F00
FE00
F000
ENDCHAR
STARTCHAR 021E
ENCODING 542
SWIDTH 708 0
DWIDTH 17 0
BBX 13 22 2 0
BITMAP
18C0
0D80
0700
0200
0000
C018
C018
C018
C018
C018
C018
C018
FFF8
FFF8
C018
C018
C018
C018
C018
C018
C018
C018
ENDCHAR
STARTCHAR 021F
ENCODING 543
SWIDTH 583 0
DWIDTH 14 0
BBX 10 23 2 0
BITMAP
8800
7000
2000
0000
0000
C000
C000
C000
C000
C000
FE00
FF80
C180
C0C0
C0C0
C0C0
C0C0
C0C0
C0C0
C0C0
C0C0
C0C0
C0C0
ENDCHAR
STARTCHAR 0220
ENCODING 544
SWIDTH 666 0
DWIDTH 16 0
BBX 12 21 2 -4
BITMAP
7F80
FFC0
C0E0
C070
C030
C030
C030
C030
C030
C030
C030
C030
C030
C030
C030
C030
C030
0030
0030
0030
0030
ENDCHAR
STARTCHAR 0221
ENCODING 545
SWIDTH 708 0
DWIDTH 17 0
BBX 16 22 1 -4
BITMAP
0060
0060
0060
0060
0060
1F60
3FE0
70E0
6060
C060
C060
C060
C060
C060
6060
707E
3FFE
0FE3
0063
00E3
01BE
011E
ENDCHAR
STARTCHAR 0222
ENCODING 546
SWIDTH 666 0
DWIDTH 16 0
BBX 14 17 1 0
BITMAP
6018
6018
6018
6018
6018
6018
3070
1FE0
3FF0
7038
C00C
C00C
C00C
C01C
7038
7FF8
1FE0
ENDCHAR
STARTCHAR 0223
ENCODING 547
SWIDTH 583 0
DWIDTH 14 0
BBX 12 18 1 0
BITMAP
6060
6060
6060
6060
6060
6060
30C0
1F80
3FC0
70E0
E070
C030
C030
C030
E070
70E0
3FC0
1F80
ENDCHAR
STARTCHAR 0224
ENCODING 548
SWIDTH 583 0
DWIDTH 14 0
BBX 12 21 1 -4
BITMAP
FFF0
FFF0
0070
0060
00C0
0180
0300
0600
0600
0C00
1800
3800
3000
6000
E000
FFF0
FFF0
0030
0030
01F0
01E0
ENDCHAR
STARTCHAR 0225
ENCODING 549
SWIDTH 458 0
DWIDTH 11 0
BBX 9 17 1 -4
BITMAP
FF80
FF80
0380
0700
0600
0C00
1800
3800
3000
6000
E000
FF80
FF80
0180
0180
0F80
0F00
ENDCHAR
STARTCHAR 0226
ENCODING 550
SWIDTH 625 0
DWIDTH 15 0
BBX 15 22 0 0
BITMAP
0380
0380
0380
0000
0000
0380
0380
0380
06C0
06C0
0EE0
0C60
0C60
1830
1830
3830
3FF8
3FF8
600C
600C
600C
C006
ENDCHAR
STARTCHAR 0227
ENCODING 551
SWIDTH 541 0
DWIDTH 13 0
BBX 10 18 1 0
BITMAP
0E00
0E00
0E00
0000
0000
7F00
7F80
01C0
00C0
00C0
3FC0
7FC0
E0C0
C0C0
C0C0
E0C0
7FC0
3FC0
ENDCHAR
STARTCHAR 0228
ENCODING 552
SWIDTH 583 0
DWIDTH 14 0
BBX 11 21 2 -4
BITMAP
FFC0
FFC0
C000
C000
C000
C000
C000
FFC0
FFC0
C000
C000
C000
C000
C000
C000
FFE0
FFE0
0600
0E00
0600
1C00
ENDCHAR
STARTCHAR 0229
ENCODING 553
SWIDTH 541 0
DWIDTH 13 0
BBX 11 16 1 -3
BITMAP
1F00
3FC0
70C0
6060
C060
FFE0
FFE0
C000
C000
6000
7040
3FC0
0FC0
0600
0300
0F00
ENDCHAR
STARTCHAR 022A
ENCODING 554
SWIDTH 750 0
DWIDTH 18 0
BBX 16 24 1 0
BITMAP
07E0
07E0
0000
0E70
0E70
0E70
0000
07E0
1FF8
381C
700E
6006
E007
C003
C003
C003
C003
C003
E007
6006
700E
381C
1FF8
07E0
ENDCHAR
STARTCHAR 022B
ENCODING 555
SWIDTH 583 0
DWIDTH 14 0
BBX 12 20 1 0
BITMAP
1F80
1F80
0000
39C0
39C0
39C0
0000
0F00
3FC0
70E0
6060
C030
C030
C030
C030
C030
6060
70E0
3FC0
0F00
ENDCHAR
STARTCHAR 022C
ENCODING 556
SWIDTH 750 0
DWIDTH 18 0
BBX 16 24 1 0
BITMAP
07C0
07C0
0000
0720
0FE0
09C0
0000
07E0
1FF8
381C
700E
6006
E007
C003
C003
C003
C003
C003
E007
6006
700E
381C
1FF8
07E0
ENDCHAR
STARTCHAR 022D
ENCODING 557
SWIDTH 583 0
DWIDTH 14 0
BBX 12 20 1 0
BITMAP
1F00
1F00
0000
1C80
3F80
2700
0000
0F00
3FC0
70E0
6060
C030
C030
C030
C030
C030
6060
70E0
3FC0
0F00
ENDCHAR
STARTCHAR 022E
ENCODING 558
SWIDTH 750 0
DWIDTH 18 0
BBX 16 22 1 0
BITMAP
0380
0380
0380
0000
0000
07E0
1FF8
381C
700E
6006
E007
C003
C003
C003
C003
C003
E007
6006
700E
381C
1FF8
07E0
ENDCHAR
STARTCHAR 022F
ENCODING 559
SWIDTH 583 0
DWIDTH 14 0
BBX 12 18 1 0
BITMAP
0E00
0E00
0E00
0000
0000
0F00
3FC0
70E0
6060
C030
C030
C030
C030
C030
6060
70E0
3FC0
0F00
ENDCHAR
STARTCHAR 0230
ENCODING 560
SWIDTH 750 0
DWIDTH 18 0
BBX 16 24 1 0
BITMAP
0FE0
0FE0
0000
0380
0380
0380
0000
07E0
1FF8
381C
700E
6006
E007
C003
C003
C003
C003
C003
E007
6006
700E
381C
1FF8
07E0
ENDCHAR
STARTCHAR 0231
ENCODING 561
SWIDTH 583 0
DWIDTH 14 0
BBX 12 20 1 0
BITMAP
3F80
3F80
0000
0E00
0E00
0E00
0000
0F00
3FC0
70E0
6060
C030
C030
C030
C030
C030
6060
70E0
3FC0
0F00
ENDCHAR
STARTCHAR 0232
ENCODING 562
SWIDTH 583 0
DWIDTH 14 0
BBX 14 21 0 0
BITMAP
1FC0
1FC0
0000
0000
C00C
6018
7038
3030
1860
1860
0CC0
0FC0
0780
0300
0300
0300
0300
0300
0300
0300
0300
ENDCHAR
STARTCHAR 0233
ENCODING 563
SWIDTH 458 0
DWIDTH 11 0
BBX 11 21 0 -4
BITMAP
3F80
3F80
0000
0000
C060
60C0
60C0
60C0
7180
3180
3180
3B00
1B00
1B00
1E00
0E00
0E00
0C00
1C00
F800
F000
ENDCHAR
STARTCHAR 0234
ENCODING 564
SWIDTH 416 0
DWIDTH 10 0
BBX 10 22 0 -4
BITMAP
3000
3000
3000
3000
3000
3000
3000
3000
3000
3000
3000
3000
3000
3000
3000
3F00
3F80
38C0
30C0
70C0
DF80
8F00
ENDCHAR
STARTCHAR 0235
ENCODING 565
SWIDTH 708 0
DWIDTH 17 0
BBX 15 17 2 -5
BITMAP
7E00
FF00
C380
C180
C180
C180
C180
C180
C180
C180
C1F8
C1FC
C186
0186
0386
06FC
0478
ENDCHAR
STARTCHAR 0236
ENCODING 566
SWIDTH 416 0
DWIDTH 10 0
BBX 10 22 0 -4
BITMAP
3000
3000
3000
3000
3000
3F80
3F80
3000
3000
3000
3000
3000
3000
3000
3000
3F00
3F80
38C0
30C0
70C0
DF80
8F00
ENDCHAR
STARTCHAR 0237
ENCODING 567
SWIDTH 250 0
DWIDTH 6 0
BBX 6 17 -2 -4
BITMAP
0C
0C
0C
0C
0C
0C
0C
0C
0C
0C
0C
0C
0C
0C
1C
F8
F0
ENDCHAR
STARTCHAR 0238
ENCODING 568
SWIDTH 916 0
DWIDTH 22 0
BBX 18 18 2 0
BITMAP
00C000
00C000
00C000
00C000
00C000
1EDE00
3FFF00
71E380
E0C1C0
C0C0C0
C0C0C0
C0C0C0
C0C0C0
C0C0C0
E0C180
70C380
3FFF00
1FFE00
ENDCHAR
STARTCHAR 0239
ENCODING 569
SWIDTH 916 0
DWIDTH 22 0
BBX 18 17 2 -4
BITMAP
1FFE00
3FFF00
70C380
E0C180
C0C0C0
C0C0C0
C0C0C0
C0C0C0
C0C0C0
E0C1C0
71E380
3FFF00
1EDE00
00C000
00C000
00C000
00C000
ENDCHAR
STARTCHAR 023A
ENCODING 570
SWIDTH 666 0
DWIDTH 16 0
BBX 16 21 0 -2
BITMAP
000C
001C
0398
0398
07F0
06F0
06F0
0C60
0C70
1CF0
18F0
18D8
3998
3FFC
3FFC
630C
6306
6606
C603
0E00
0C00
ENDCHAR
STARTCHAR 023B
ENCODING 571
SWIDTH 625 0
DWIDTH 15 0
BBX 13 21 1 -2
BITMAP
0010
0030
07F0
1FF8
3878
70E0
60C0
E1C0
C180
C180
C300
C300
C600
C600
6C00
7C00
3C18
3FF8
1FE0
3000
3000
ENDCHAR
STARTCHAR 023C
ENCODING 572
SWIDTH 458 0
DWIDTH 11 0
BBX 9 17 1 -2
BITMAP
0180
0100
1F00
3F80
7200
6600
C600
C400
CC00
CC00
CC00
E800
7800
3F80
1F80
3000
3000
ENDCHAR
STARTCHAR 023D
ENCODING 573
SWIDTH 541 0
DWIDTH 13 0
BBX 13 17 0 0
BITMAP
3000
3000
3000
3000
3000
3000
3000
FF00
FF00
3000
3000
3000
3000
3000
3000
3FF8
3FF8
ENDCHAR
STARTCHAR 023E
ENCODING 574
SWIDTH 625 0
DWIDTH 15 0
BBX 15 20 0 -1
BITMAP
0004
000E
FFFC
FFF8
0338
0330
0360
03C0
03C0
0380
0300
0700
0700
0F00
1B00
3B00
3300
6300
E300
4000
ENDCHAR
STARTCHAR 023F
ENCODING 575
SWIDTH 458 0
DWIDTH 11 0
BBX 9 17 1 -4
BITMAP
3F00
7F00
E100
C000
C000
7000
3E00
0F00
0380
0180
0380
FF00
FE00
6000
3800
1F80
0780
ENDCHAR
STARTCHAR 0240
ENCODING 576
SWIDTH 458 0
DWIDTH 11 0
BBX 9 17 1 -4
BITMAP
FF00
FF00
0700
0600
0C00
1C00
1800
3000
3000
6000
6000
E000
F800
3C00
0E00
0780
0380
ENDCHAR
STARTCHAR 0241
ENCODING 577
SWIDTH 458 0
DWIDTH 11 0
BBX 10 17 0 0
BITMAP
3E00
FF80
41C0
00C0
00C0
00C0
01C0
0380
0F00
0C00
1800
1800
1800
1800
1800
1800
1800
ENDCHAR
STARTCHAR 0242
ENCODING 578
SWIDTH 416 0
DWIDTH 10 0
BBX 9 13 0 0
BITMAP
7E00
FF00
4380
0180
0380
0700
1E00
3C00
3800
3000
3000
3000
3000
ENDCHAR
STARTCHAR 0243
ENCODING 579
SWIDTH 666 0
DWIDTH 16 0
BBX 15 17 0 0
BITMAP
3FE0
3FF8
303C
300C
300C
300C
3038
3FF0
3FF8
301C
3006
FE06
FE06
300E
301C
3FF8
3FE0
ENDCHAR
STARTCHAR 0244
ENCODING 580
SWIDTH 708 0
DWIDTH 17 0
BBX 17 17 0 0
BITMAP
300600
300600
300600
300600
300600
300600
FFFF80
FFFF80
300600
300600
300600
300600
300600
180C00
1C1C00
0FF800
03E000
ENDCHAR
STARTCHAR 0245
ENCODING 581
SWIDTH 666 0
DWIDTH 16 0
BBX 16 17 0 0
BITMAP
0380
0380
07C0
06C0
06E0
0C60
0C70
1C30
1830
1818
3018
300C
300C
600E
6006
E006
C003
ENDCHAR
STARTCHAR 0246
ENCODING 582
SWIDTH 583 0
DWIDTH 14 0
BBX 12 22 2 -3
BITMAP
0020
0070
FFE0
FFE0
C0C0
C0C0
C180
C180
C380
FFC0
FFC0
C600
C600
CE00
CC00
CC00
D800
FFE0
FFE0
3000
7000
2000
ENDCHAR
STARTCHAR 0247
ENCODING 583
SWIDTH 583 0
DWIDTH 14 0
BBX 12 17 1 -2
BITMAP
0080
0180
0F80
3FC0
73E0
6330
C330
FFF0
FFF0
C600
CC00
6C00
7C20
3FE0
1FC0
1800
1000
ENDCHAR
STARTCHAR 0248
ENCODING 584
SWIDTH 500 0
DWIDTH 12 0
BBX 12 17 0 0
BITMAP
0180
0180
0180
0180
0180
0180
0180
0FF0
0FF0
0180
0180
0180
0180
0180
4300
FF00
7E00
ENDCHAR
STARTCHAR 0249
ENCODING 585
SWIDTH 291 0
DWIDTH 7 0
BBX 8 22 -1 -4
BITMAP
0C
0C
00
00
00
0C
0C
0C
0C
0C
7F
7F
0C
0C
0C
0C
0C
0C
0C
1C
F8
F0
ENDCHAR
STARTCHAR 024A
ENCODING 586
SWIDTH 791 0
DWIDTH 19 0
BBX 19 21 1 -4
BITMAP
07E000
1FF800
381C00
700E00
600600
E00700
C00300
C00300
C00300
C00300
C00300
E00700
600700
700F00
381F00
1FFB00
07E300
000300
000300
0003E0
0001E0
ENDCHAR
STARTCHAR 024B
ENCODING 587
SWIDTH 583 0
DWIDTH 14 0
BBX 14 17 1 -4
BITMAP
0FC0
3FE0
7060
6060
C060
C060
C060
C060
C060
6060
70E0
3FE0
1F60
0060
0060
007C
003C
ENDCHAR
STARTCHAR 024C
ENCODING 588
SWIDTH 625 0
DWIDTH 15 0
BBX 15 17 0 0
BITMAP
3FC0
3FF0
3038
300C
300C
300C
300C
3038
FFF0
FFE0
3060
3030
3038
3018
300C
300E
3006
ENDCHAR
STARTCHAR 024D
ENCODING 589
SWIDTH 416 0
DWIDTH 10 0
BBX 10 13 0 0
BITMAP
1FC0
3FC0
3000
3000
3000
3000
FF00
FF00
3000
3000
3000
3000
3000
ENDCHAR
STARTCHAR 024E
ENCODING 590
SWIDTH 625 0
DWIDTH 15 0
BBX 15 17 0 0
BITMAP
C00E
600C
7018
FFFE
FFFE
1860
0CC0
07C0
0780
0300
0300
0300
0300
0300
0300
0300
0300
ENDCHAR
STARTCHAR 024F
ENCODING 591
SWIDTH 500 0
DWIDTH 12 0
BBX 12 17 0 -4
BITMAP
C030
6060
6060
6060
30C0
FFF0
FFF0
1980
1D80
0F80
0F00
0700
0700
0600
0E00
FC00
F800
ENDCHAR
STARTCHAR 0292
ENCODING 658
SWIDTH 458 0
DWIDTH 11 0
BBX 10 17 0 -4
BITMAP
7F80
7F80
0300
0700
0600
0C00
1C00
1E00
1F80
03C0
00C0
00C0
00C0
00C0
8380
FF80
7E00
ENDCHAR
STARTCHAR 02BC
ENCODING 700
SWIDTH 375 0
DWIDTH 9 0
BBX 3 5 3 13
BITMAP
60
60
60
C0
C0
ENDCHAR
STARTCHAR 02C6
ENCODING 710
SWIDTH 375 0
DWIDTH 9 0
BBX 7 4 1 14
BITMAP
10
38
6C
C6
ENDCHAR
STARTCHAR 02C7
ENCODING 711
SWIDTH 375 0
DWIDTH 9 0
BBX 7 4 1 14
BITMAP
C6
6C
38
10
ENDCHAR
STARTCHAR 02C9
ENCODING 713
SWIDTH 375 0
DWIDTH 9 0
BBX 7 2 1 15
BITMAP
FE
FE
ENDCHAR
STARTCHAR 02D8
ENCODING 728
SWIDTH 375 0
DWIDTH 9 0
BBX 6 4 1 15
BITMAP
84
CC
78
78
ENDCHAR
STARTCHAR 02D9
ENCODING 729
SWIDTH 375 0
DWIDTH 9 0
BBX 3 3 3 15
BITMAP
E0
E0
E0
ENDCHAR
STARTCHAR 02DA
ENCODING 730
SWIDTH 375 0
DWIDTH 9 0
BBX 6 5 2 14
BITMAP
78
CC
CC
CC
78
ENDCHAR
STARTCHAR 02DB
ENCODING 731
SWIDTH 375 0
DWIDTH 9 0
BBX 4 4 2 -4
BITMAP
60
C0
F0
70
ENDCHAR
STARTCHAR 02DC
ENCODING 732
SWIDTH 375 0
DWIDTH 9 0
BBX 8 3 1 15
BITMAP
73
FF
CE
ENDCHAR
STARTCHAR 02DD
ENCODING 733
SWIDTH 375 0
DWIDTH 9 0
BBX 8 5 1 14
BITMAP
22
33
66
CC
44
ENDCHAR
STARTCHAR 0311
ENCODING 785
SWIDTH 375 0
DWIDTH 9 0
BBX 5 4 1 15
BITMAP
70
F8
D8
88
ENDCHAR
STARTCHAR 0384
ENCODING 900
SWIDTH 375 0
DWIDTH 9 0
BBX 4 5 4 14
BITMAP
20
30
60
C0
40
ENDCHAR
STARTCHAR 0385
ENCODING 901
SWIDTH 375 0
DWIDTH 9 0
BBX 12 5 -1 14
BITMAP
0200
E370
E670
EC70
0400
ENDCHAR
STARTCHAR 0386
ENCODING 902
SWIDTH 625 0
DWIDTH 15 0
BBX 15 17 0 0
BITMAP
1380
3380
3380
26C0
26C0
0EE0
0C60
0C60
1830
1830
3830
3FF8
3FF8
600C
600C
600C
C006
ENDCHAR
STARTCHAR 0388
ENCODING 904
SWIDTH 625 0
DWIDTH 15 0
BBX 15 17 0 0
BITMAP
4FFC
CFFC
CC00
8C00
8C00
0C00
0C00
0FFC
0FFC
0C00
0C00
0C00
0C00
0C00
0C00
0FFE
0FFE
ENDCHAR
STARTCHAR 0389
ENCODING 905
SWIDTH 791 0
DWIDTH 19 0
BBX 17 17 0 0
BITMAP
4C0180
CC0180
CC0180
8C0180
8C0180
0C0180
0C0180
0FFF80
0FFF80
0C0180
0C0180
0C0180
0C0180
0C0180
0C0180
0C0180
0C0180
ENDCHAR
STARTCHAR 038A
ENCODING 906
SWIDTH 333 0
DWIDTH 8 0
BBX 6 17 0 0
BITMAP
4C
CC
CC
8C
8C
0C
0C
0C
0C
0C
0C
0C
0C
0C
0C
0C
0C
ENDCHAR
STARTCHAR 038C
ENCODING 908
SWIDTH 791 0
DWIDTH 19 0
BBX 19 17 -1 0
BITMAP
40FC00
C3FF00
C70380
8E01C0
8C00C0
1C00E0
180060
180060
180060
180060
180060
1C00E0
0C00C0
0E01C0
070380
03FF00
00FC00
ENDCHAR
STARTCHAR 038E
ENCODING 910
SWIDTH 708 0
DWIDTH 17 0
BBX 18 17 -1 0
BITMAP
4C00C0
C60180
C70380
830300
818600
018600
00CC00
00FC00
007800
003000
003000
003000
003000
003000
003000
003000
003000
ENDCHAR
STARTCHAR 038F
ENCODING 911
SWIDTH 791 0
DWIDTH 19 0
BBX 20 17 -1 0
BITMAP
40FE00
C3FF80
C783C0
8E00E0
8C0060
180030
180030
180030
180030
180030
180030
0C0060
0E00E0
0601C0
038380
1FC7F0
1FC7F0
ENDCHAR
STARTCHAR 0390
ENCODING 912
SWIDTH 291 0
DWIDTH 7 0
BBX 12 19 -3 0
BITMAP
0200
E370
E670
EC70
0400
0000
0600
0600
0600
0600
0600
0600
0600
0600
0600
0600
0600
0780
0380
ENDCHAR
STARTCHAR 0391
ENCODING 913
SWIDTH 625 0
DWIDTH 15 0
BBX 15 17 0 0
BITMAP
0380
0380
0380
06C0
06C0
0EE0
0C60
0C60
1830
1830
3830
3FF8
3FF8
600C
600C
600C
C006
ENDCHAR
STARTCHAR 0392
ENCODING 914
SWIDTH 625 0
DWIDTH 15 0
BBX 12 17 2 0
BITMAP
FF00
FFC0
C1E0
C060
C060
C060
C0C0
FF80
FFC0
C0E0
C030
C030
C030
C070
C0E0
FFC0
FF00
ENDCHAR
STARTCHAR 0393
ENCODING 915
SWIDTH 500 0
DWIDTH 12 0
BBX 10 17 2 0
BITMAP
FFC0
FFC0
C000
C000
C000
C000
C000
C000
C000
C000
C000
C000
C000
C000
C000
C000
C000
ENDCHAR
STARTCHAR 0394
ENCODING 916
SWIDTH 666 0
DWIDTH 16 0
BBX 16 17 0 0
BITMAP
03C0
03C0
07E0
0660
0E70
0C30
0C30
1C38
1818
3818
300C
300C
700E
6006
6006
FFFF
FFFF
ENDCHAR
STARTCHAR 0395
ENCODING 917
SWIDTH 583 0
DWIDTH 14 0
BBX 11 17 2 0
BITMAP
FFC0
FFC0
C000
C000
C000
C000
C000
FFC0
FFC0
C000
C000
C000
C000
C000
C000
FFE0
FFE0
ENDCHAR
STARTCHAR 0396
ENCODING 918
SWIDTH 583 0
DWIDTH 14 0
BBX 12 17 1 0
BITMAP
FFF0
FFF0
0070
0060
00C0
0180
0300
0700
0600
0C00
1800
3800
3000
6000
E000
FFF0
FFF0
ENDCHAR
STARTCHAR 0397
ENCODING 919
SWIDTH 708 0
DWIDTH 17 0
BBX 13 17 2 0
BITMAP
C018
C018
C018
C018
C018
C018
C018
FFF8
FFF8
C018
C018
C018
C018
C018
C018
C018
C018
ENDCHAR
STARTCHAR 0398
ENCODING 920
SWIDTH 791 0
DWIDTH 19 0
BBX 17 17 1 0
BITMAP
07F000
1FFC00
3C1E00
700700
600300
E00380
C00180
CFF980
CFF980
C00180
C00180
E00380
600300
700700
3C1E00
1FFC00
07F000
ENDCHAR
STARTCHAR 0399
ENCODING 921
SWIDTH 250 0
DWIDTH 6 0
BBX 2 17 2 0
BITMAP
C0
C0
C0
C0
C0
C0
C0
C0
C0
C0
C0
C0
C0
C0
C0
C0
C0
ENDCHAR
STARTCHAR 039A
ENCODING 922
SWIDTH 625 0
DWIDTH 15 0
BBX 13 17 2 0
BITMAP
C070
C0E0
C1C0
C380
C700
CE00
DC00
F800
F000
FC00
DE00
CF00
C380
C1C0
C0E0
C070
C038
ENDCHAR
STARTCHAR 039B
ENCODING 923
SWIDTH 666 0
DWIDTH 16 0
BBX 16 17 0 0
BITMAP
0380
0380
07C0
06C0
06E0
0C60
0C70
1C30
1830
1818
3018
300C
300C
600E
6006
E006
C003
ENDCHAR
STARTCHAR 039C
ENCODING 924
SWIDTH 833 0
DWIDTH 20 0
BBX 18 17 1 0
BITMAP
600180
700380
700380
780780
680580
6C0D80
E40980
C618C0
C610C0
C330C0
C330C0
C120C0
C1E0C0
C1E0C0
C0C0C0
C000C0
C000C0
ENDCHAR
STARTCHAR 039D
ENCODING 925
SWIDTH 708 0
DWIDTH 17 0
BBX 13 17 2 0
BITMAP
C018
E018
F018
F818
D818
CC18
CE18
C718
C318
C198
C1D8
C0D8
C078
C038
C038
C018
C008
ENDCHAR
STARTCHAR 039E
ENCODING 926
SWIDTH 541 0
DWIDTH 13 0
BBX 11 17 1 0
BITMAP
FFE0
FFE0
0000
0000
0000
0000
0000
7FC0
7FC0
0000
0000
0000
0000
0000
0000
FFE0
FFE0
ENDCHAR
STARTCHAR 039F
ENCODING 927
SWIDTH 750 0
DWIDTH 18 0
BBX 16 17 1 0
BITMAP
07E0
1FF8
381C
700E
6006
E007
C003
C003
C003
C003
C003
E007
6006
700E
381C
1FF8
07E0
ENDCHAR
STARTCHAR 03A0
ENCODING 928
SWIDTH 708 0
DWIDTH 17 0
BBX 13 17 2 0
BITMAP
FFF8
FFF8
C018
C018
C018
C018
C018
C018
C018
C018
C018
C018
C018
C018
C018
C018
C018
ENDCHAR
STARTCHAR 03A1
ENCODING 929
SWIDTH 625 0
DWIDTH 15 0
BBX 12 17 2 0
BITMAP
FF00
FFC0
C0E0
C070
C030
C030
C030
C070
C0E0
FFC0
FF00
C000
C000
C000
C000
C000
C000
ENDCHAR
STARTCHAR 03A3
ENCODING 931
SWIDTH 583 0
DWIDTH 14 0
BBX 12 17 1 0
BITMAP
FFF0
FFF0
6000
3000
3800
1800
0C00
0600
0300
0600
0C00
1800
3000
7000
6000
FFF0
FFF0
ENDCHAR
STARTCHAR 03A4
ENCODING 932
SWIDTH 500 0
DWIDTH 12 0
BBX 12 17 0 0
BITMAP
FFF0
FFF0
0600
0600
0600
0600
0600
0600
0600
0600
0600
0600
0600
0600
0600
0600
0600
ENDCHAR
STARTCHAR 03A5
ENCODING 933
SWIDTH 583 0
DWIDTH 14 0
BBX 14 17 0 0
BITMAP
C00C
6018
7038
3030
1860
1860
0CC0
0FC0
0780
0300
0300
0300
0300
0300
0300
0300
0300
ENDCHAR
STARTCHAR 03A6
ENCODING 934
SWIDTH 833 0
DWIDTH 20 0
BBX 18 18 1 0
BITMAP
00C000
00C000
07F800
1FFE00
38C700
70C380
E0C1C0
C0C0C0
C0C0C0
C0C0C0
C0C0C0
E0C1C0
60C380
38C700
1FFE00
07F800
00C000
00C000
ENDCHAR
STARTCHAR 03A7
ENCODING 935
SWIDTH 625 0
DWIDTH 15 0
BBX 14 17 1 0
BITMAP
E01C
6018
3030
3870
1860
0CC0
0FC0
0780
0300
0780
0FC0
0CC0
1860
3870
7030
6018
E01C
ENDCHAR
STARTCHAR 03A8
ENCODING 936
SWIDTH 833 0
DWIDTH 20 0
BBX 16 17 2 0
BITMAP
C183
C183
C183
C183
C183
C183
C183
C183
C187
6186
719E
3FFC
0FF0
0180
0180
0180
0180
ENDCHAR
STARTCHAR 03A9
ENCODING 937
SWIDTH 791 0
DWIDTH 19 0
BBX 17 17 1 0
BITMAP
07F000
1FFC00
3C1E00
700700
600300
C00180
C00180
C00180
C00180
C00180
C00180
600300
700700
300E00
1C1C00
FE3F80
FE3F80
ENDCHAR
STARTCHAR 03AA
ENCODING 938
SWIDTH 250 0
DWIDTH 6 0
BBX 8 22 -1 0
BITMAP
E7
E7
E7
00
00
18
18
18
18
18
18
18
18
18
18
18
18
18
18
18
18
18
ENDCHAR
STARTCHAR 03AB
ENCODING 939
SWIDTH 583 0
DWIDTH 14 0
BBX 14 22 0 0
BITMAP
1CE0
1CE0
1CE0
0000
0000
C00C
6018
7038
3030
1860
1860
0CC0
0FC0
0780
0300
0300
0300
0300
0300
0300
0300
0300
ENDCHAR
STARTCHAR 03AC
ENCODING 940
SWIDTH 625 0
DWIDTH 15 0
BBX 14 19 1 0
BITMAP
0100
0180
0300
0600
0200
0000
0FE0
3FF0
7830
6030
C030
C030
C030
C030
C030
6030
7070
3FFC
0F8C
ENDCHAR
STARTCHAR 03AD
ENCODING 941
SWIDTH 500 0
DWIDTH 12 0
BBX 10 19 1 0
BITMAP
0400
0600
0C00
1800
0800
0000
3F80
7F80
E080
C000
E000
7E00
7E00
C000
C000
C000
E0C0
7FC0
3F80
ENDCHAR
STARTCHAR 03AE
ENCODING 942
SWIDTH 583 0
DWIDTH 14 0
BBX 10 23 2 -4
BITMAP
0400
0600
0C00
1800
0800
0000
7F00
FF80
C180
C0C0
C0C0
C0C0
C0C0
C0C0
C0C0
C0C0
C0C0
C0C0
C0C0
00C0
00C0
00C0
00C0
ENDCHAR
STARTCHAR 03AF
ENCODING 943
SWIDTH 291 0
DWIDTH 7 0
BBX 4 19 2 0
BITMAP
20
30
60
C0
40
00
C0
C0
C0
C0
C0
C0
C0
C0
C0
C0
C0
F0
70
ENDCHAR
STARTCHAR 03B0
ENCODING 944
SWIDTH 583 0
DWIDTH 14 0
BBX 12 19 1 0
BITMAP
0200
E370
E670
EC70
0400
0000
6060
6060
6060
6060
6060
6060
6060
6060
6060
6060
30C0
3FC0
1F80
ENDCHAR
STARTCHAR 03B1
ENCODING 945
SWIDTH 625 0
DWIDTH 15 0
BBX 14 13 1 0
BITMAP
0FE0
3FF0
7830
6030
C030
C030
C030
C030
C030
6030
7070
3FFC
0F8C
ENDCHAR
STARTCHAR 03B2
ENCODING 946
SWIDTH 625 0
DWIDTH 15 0
BBX 12 22 2 -4
BITMAP
1F00
7FC0
70E0
C060
C060
C060
C0C0
C700
C7C0
C0E0
C070
C030
C030
C030
C070
E0E0
FFC0
DF00
C000
C000
C000
C000
ENDCHAR
STARTCHAR 03B3
ENCODING 947
SWIDTH 500 0
DWIDTH 12 0
BBX 11 17 0 -4
BITMAP
C060
C060
60C0
60C0
60C0
3180
3180
3300
1B00
1F00
1E00
1C00
1C00
0C00
0C00
0C00
0C00
ENDCHAR
STARTCHAR 03B4
ENCODING 948
SWIDTH 583 0
DWIDTH 14 0
BBX 12 18 1 0
BITMAP
0FC0
3FE0
3020
3800
1E00
1F80
38C0
7060
6060
C030
C030
C030
C030
C030
6060
70E0
3FC0
1F80
ENDCHAR
STARTCHAR 03B5
ENCODING 949
SWIDTH 500 0
DWIDTH 12 0
BBX 10 13 1 0
BITMAP
3F80
7F80
E080
C000
E000
7E00
7E00
C000
C000
C000
E0C0
7FC0
3F80
ENDCHAR
STARTCHAR 03B6
ENCODING 950
SWIDTH 458 0
DWIDTH 11 0
BBX 10 22 1 -4
BITMAP
7FC0
7FC0
0380
0700
0E00
1C00
3800
3000
6000
6000
C000
C000
C000
C000
C000
7000
7F00
1F80
01C0
00C0
00C0
0180
ENDCHAR
STARTCHAR 03B7
ENCODING 951
SWIDTH 583 0
DWIDTH 14 0
BBX 10 17 2 -4
BITMAP
7F00
FF80
C180
C0C0
C0C0
C0C0
C0C0
C0C0
C0C0
C0C0
C0C0
C0C0
C0C0
00C0
00C0
00C0
00C0
ENDCHAR
STARTCHAR 03B8
ENCODING 952
SWIDTH 583 0
DWIDTH 14 0
BBX 12 18 1 0
BITMAP
0F00
3FC0
70E0
6060
6060
C030
C030
C030
FFF0
FFF0
C030
C030
C030
6060
6060
70E0
3FC0
0F00
ENDCHAR
STARTCHAR 03B9
ENCODING 953
SWIDTH 291 0
DWIDTH 7 0
BBX 4 13 2 0
BITMAP
C0
C0
C0
C0
C0
C0
C0
C0
C0
C0
C0
F0
70
ENDCHAR
STARTCHAR 03BA
ENCODING 954
SWIDTH 541 0
DWIDTH 13 0
BBX 11 13 2 0
BITMAP
C1C0
C380
C700
CE00
DC00
F800
F800
DC00
CE00
C700
C380
C1C0
C0E0
ENDCHAR
STARTCHAR 03BB
ENCODING 955
SWIDTH 500 0
DWIDTH 12 0
BBX 12 18 0 0
BITMAP
F000
F800
1C00
0C00
0600
0600
0F00
0F00
0F00
1980
1980
19C0
30C0
30C0
6060
6060
6060
C030
ENDCHAR
STARTCHAR 03BC
ENCODING 956
SWIDTH 583 0
DWIDTH 14 0
BBX 10 17 2 -4
BITMAP
C0C0
C0C0
C0C0
C0C0
C0C0
C0C0
C0C0
C0C0
C0C0
C0C0
E0C0
FFC0
DF80
C000
C000
C000
C000
ENDCHAR
STARTCHAR 03BD
ENCODING 957
SWIDTH 500 0
DWIDTH 12 0
BBX 12 13 0 0
BITMAP
C030
E070
6060
6060
70E0
30C0
30C0
1980
1980
1F80
0F00
0F00
0600
ENDCHAR
STARTCHAR 03BE
ENCODING 958
SWIDTH 458 0
DWIDTH 11 0
BBX 10 22 1 -4
BITMAP
0F80
3F80
7000
6000
6000
6000
6000
3800
0F80
3F80
7000
E000
C000
C000
C000
7000
3F00
0FC0
00C0
00C0
00C0
0180
ENDCHAR
STARTCHAR 03BF
ENCODING 959
SWIDTH 583 0
DWIDTH 14 0
BBX 12 13 1 0
BITMAP
0F00
3FC0
70E0
6060
C030
C030
C030
C030
C030
6060
70E0
3FC0
0F00
ENDCHAR
STARTCHAR 03C0
ENCODING 960
SWIDTH 583 0
DWIDTH 14 0
BBX 10 13 2 0
BITMAP
FFC0
FFC0
C0C0
C0C0
C0C0
C0C0
C0C0
C0C0
C0C0
C0C0
C0C0
C0C0
C0C0
ENDCHAR
STARTCHAR 03C1
ENCODING 961
SWIDTH 583 0
DWIDTH 14 0
BBX 11 17 2 -4
BITMAP
1F00
7F80
61C0
E0E0
C060
C060
C060
C060
C060
C0C0
E1C0
FF80
DF00
C000
C000
C000
C000
ENDCHAR
STARTCHAR 03C2
ENCODING 962
SWIDTH 458 0
DWIDTH 11 0
BBX 10 17 1 -4
BITMAP
0F80
3FC0
7040
6000
C000
C000
C000
C000
C000
E000
7800
3F80
0FC0
00C0
00C0
00C0
0180
ENDCHAR
STARTCHAR 03C3
ENCODING 963
SWIDTH 625 0
DWIDTH 15 0
BBX 14 13 1 0
BITMAP
0FFC
3FFC
70C0
6060
C030
C030
C030
C030
C030
6070
70E0
3FC0
0F80
ENDCHAR
STARTCHAR 03C4
ENCODING 964
SWIDTH 416 0
DWIDTH 10 0
BBX 9 13 0 0
BITMAP
FF80
FF80
1800
1800
1800
1800
1800
1800
1800
1800
1800
0F00
0F00
ENDCHAR
STARTCHAR 03C5
ENCODING 965
SWIDTH 583 0
DWIDTH 14 0
BBX 10 13 2 0
BITMAP
C0C0
C0C0
C0C0
C0C0
C0C0
C0C0
C0C0
C0C0
C0C0
C0C0
6180
7F80
3F00
ENDCHAR
STARTCHAR 03C6
ENCODING 966
SWIDTH 750 0
DWIDTH 18 0
BBX 16 17 1 -4
BITMAP
07F0
1FFC
799E
6186
C183
C183
C183
C183
C183
6186
799E
3FFC
0FF0
0180
0180
0180
0180
ENDCHAR
STARTCHAR 03C7
ENCODING 967
SWIDTH 500 0
DWIDTH 12 0
BBX 12 13 0 0
BITMAP
E070
6060
30C0
1980
1F80
0F00
0600
0F00
1F80
39C0
30C0
6060
E070
ENDCHAR
STARTCHAR 03C8
ENCODING 968
SWIDTH 750 0
DWIDTH 18 0
BBX 14 17 2 -4
BITMAP
C30C
C30C
C30C
C30C
C30C
C30C
C30C
C30C
C30C
6318
7338
3FF0
1FE0
0300
0300
0300
0300
ENDCHAR
STARTCHAR 03C9
ENCODING 969
SWIDTH 833 0
DWIDTH 20 0
BBX 18 13 1 0
BITMAP
300300
700380
600180
60C180
C0C0C0
C0C0C0
C0C0C0
C0C0C0
C0C0C0
E1C1C0
61E180
7FFF80
1E1E00
ENDCHAR
STARTCHAR 03CA
ENCODING 970
SWIDTH 291 0
DWIDTH 7 0
BBX 8 18 -1 0
BITMAP
E7
E7
E7
00
00
18
18
18
18
18
18
18
18
18
18
18
1E
0E
ENDCHAR
STARTCHAR 03CB
ENCODING 971
SWIDTH 583 0
DWIDTH 14 0
BBX 10 18 2 0
BITMAP
7380
7380
7380
0000
0000
C0C0
C0C0
C0C0
C0C0
C0C0
C0C0
C0C0
C0C0
C0C0
C0C0
6180
7F80
3F00
ENDCHAR
STARTCHAR 03CC
ENCODING 972
SWIDTH 583 0
DWIDTH 14 0
BBX 12 19 1 0
BITMAP
0100
0180
0300
0600
0200
0000
0F00
3FC0
70E0
6060
C030
C030
C030
C030
C030
6060
70E0
3FC0
0F00
ENDCHAR
STARTCHAR 03CD
ENCODING 973
SWIDTH 583 0
DWIDTH 14 0
BBX 10 19 2 0
BITMAP
0200
0300
0600
0C00
0400
0000
C0C0
C0C0
C0C0
C0C0
C0C0
C0C0
C0C0
C0C0
C0C0
C0C0
6180
7F80
3F00
ENDCHAR
STARTCHAR 03CE
ENCODING 974
SWIDTH 833 0
DWIDTH 20 0
BBX 18 19 1 0
BITMAP
002000
003000
006000
00C000
004000
000000
300300
700380
600180
60C180
C0C0C0
C0C0C0
C0C0C0
C0C0C0
C0C0C0
E1C1C0
61E180
7FFF80
1E1E00
ENDCHAR
STARTCHAR 0400
ENCODING 1024
SWIDTH 583 0
DWIDTH 14 0
BBX 11 23 2 0
BITMAP
0800
1C00
0E00
0700
0200
0000
FFC0
FFC0
C000
C000
C000
C000
C000
FFC0
FFC0
C000
C000
C000
C000
C000
C000
FFE0
FFE0
ENDCHAR
STARTCHAR 0401
ENCODING 1025
SWIDTH 583 0
DWIDTH 14 0
BBX 11 22 2 0
BITMAP
7380
7380
7380
0000
0000
FFC0
FFC0
C000
C000
C000
C000
C000
FFC0
FFC0
C000
C000
C000
C000
C000
C000
FFE0
FFE0
ENDCHAR
STARTCHAR 0402
ENCODING 1026
SWIDTH 750 0
DWIDTH 18 0
BBX 17 17 0 0
BITMAP
FFF800
FFF800
060000
060000
060000
060000
07F800
07FE00
060700
060380
060180
060180
060180
060180
060300
061F00
061C00
ENDCHAR
STARTCHAR 0403
ENCODING 1027
SWIDTH 500 0
DWIDTH 12 0
BBX 10 23 2 0
BITMAP
0200
0700
0E00
1C00
0800
0000
FFC0
FFC0
C000
C000
C000
C000
C000
C000
C000
C000
C000
C000
C000
C000
C000
C000
C000
ENDCHAR
STARTCHAR 0404
ENCODING 1028
SWIDTH 625 0
DWIDTH 15 0
BBX 13 17 1 0
BITMAP
07F0
1FF8
3818
7000
6000
C000
C000
FFC0
FFC0
C000
C000
E000
6000
7000
3810
1FF8
07F0
ENDCHAR
STARTCHAR 0405
ENCODING 1029
SWIDTH 541 0
DWIDTH 13 0
BBX 11 17 1 0
BITMAP
1F80
7FC0
E080
C000
C000
E000
7800
3C00
0F00
03C0
00C0
0060
0060
0060
C0E0
FFC0
3F00
ENDCHAR
STARTCHAR 0406
ENCODING 1030
SWIDTH 250 0
DWIDTH 6 0
BBX 2 17 2 0
BITMAP
C0
C0
C0
C0
C0
C0
C0
C0
C0
C0
C0
C0
C0
C0
C0
C0
C0
ENDCHAR
STARTCHAR 0407
ENCODING 1031
SWIDTH 250 0
DWIDTH 6 0
BBX 8 22 -1 0
BITMAP
E7
E7
E7
00
00
18
18
18
18
18
18
18
18
18
18
18
18
18
18
18
18
18
ENDCHAR
STARTCHAR 0408
ENCODING 1032
SWIDTH 500 0
DWIDTH 12 0
BBX 10 17 0 0
BITMAP
00C0
00C0
00C0
00C0
00C0
00C0
00C0
00C0
00C0
00C0
00C0
00C0
00C0
00C0
4180
FF80
3E00
ENDCHAR
STARTCHAR 0409
ENCODING 1033
SWIDTH 1041 0
DWIDTH 25 0
BBX 24 17 0 -1
BITMAP
07FE00
07FE00
060600
060600
060600
060600
0607F0
0607FC
06060E
0E0607
0C0603
0C0603
0C0603
180607
38060E
F007FC
E007F0
ENDCHAR
STARTCHAR 040A
ENCODING 1034
SWIDTH 1041 0
DWIDTH 25 0
BBX 22 17 2 0
BITMAP
C03000
C03000
C03000
C03000
C03000
C03000
FFFFC0
FFFFF0
C03038
C0301C
C0300C
C0300C
C0300C
C0301C
C03038
C03FF0
C03FC0
ENDCHAR
STARTCHAR 040B
ENCODING 1035
SWIDTH 750 0
DWIDTH 18 0
BBX 16 17 0 0
BITMAP
FFF8
FFF8
0600
0600
0600
0600
07F8
07FE
0606
0603
0603
0603
0603
0603
0603
0603
0603
ENDCHAR
STARTCHAR 040C
ENCODING 1036
SWIDTH 625 0
DWIDTH 15 0
BBX 13 23 2 0
BITMAP
0100
0380
0700
0E00
0400
0000
C070
C0E0
C1C0
C380
C700
CE00
DC00
F800
F000
FC00
DE00
CF00
C380
C1C0
C0E0
C070
C038
ENDCHAR
STARTCHAR 040D
ENCODING 1037
SWIDTH 708 0
DWIDTH 17 0
BBX 13 23 2 0
BITMAP
0800
1C00
0E00
0700
0200
0000
C018
C038
C078
C078
C0D8
C1D8
C198
C318
C618
CE18
CC18
D818
F018
F018
E018
C018
8018
ENDCHAR
STARTCHAR 040E
ENCODING 1038
SWIDTH 583 0
DWIDTH 14 0
BBX 14 23 0 0
BITMAP
1860
1CE0
0FC0
0780
0000
0000
C00C
6018
6018
3038
3830
1830
1C60
0C60
0660
06C0
03C0
0380
0180
0300
0700
7E00
7C00
ENDCHAR
STARTCHAR 040F
ENCODING 1039
SWIDTH 708 0
DWIDTH 17 0
BBX 13 21 2 -4
BITMAP
C018
C018
C018
C018
C018
C018
C018
C018
C018
C018
C018
C018
C018
C018
C018
FFF8
FFF8
0600
0600
0600
0600
ENDCHAR
STARTCHAR 0410
ENCODING 1040
SWIDTH 625 0
DWIDTH 15 0
BBX 15 17 0 0
BITMAP
0380
0380
0380
06C0
06C0
0EE0
0C60
0C60
1830
1830
3830
3FF8
3FF8
600C
600C
600C
C006
ENDCHAR
STARTCHAR 0411
ENCODING 1041
SWIDTH 625 0
DWIDTH 15 0
BBX 12 17 2 0
BITMAP
FFC0
FFC0
C000
C000
C000
C000
FF00
FFC0
C0E0
C070
C030
C030
C030
C070
C0E0
FFC0
FF00
ENDCHAR
STARTCHAR 0412
ENCODING 1042
SWIDTH 625 0
DWIDTH 15 0
BBX 12 17 2 0
BITMAP
FF00
FFC0
C1E0
C060
C060
C060
C0C0
FF80
FFC0
C0E0
C030
C030
C030
C070
C0E0
FFC0
FF00
ENDCHAR
STARTCHAR 0413
ENCODING 1043
SWIDTH 500 0
DWIDTH 12 0
BBX 10 17 2 0
BITMAP
FFC0
FFC0
C000
C000
C000
C000
C000
C000
C000
C000
C000
C000
C000
C000
C000
C000
C000
ENDCHAR
STARTCHAR 0414
ENCODING 1044
SWIDTH 708 0
DWIDTH 17 0
BBX 16 21 0 -4
BITMAP
07FC
07FC
060C
060C
060C
060C
060C
060C
0E0C
0C0C
0C0C
0C0C
180C
180C
380C
FFFF
FFFF
C003
C003
C003
C003
ENDCHAR
STARTCHAR 0415
ENCODING 1045
SWIDTH 583 0
DWIDTH 14 0
BBX 11 17 2 0
BITMAP
FFC0
FFC0
C000
C000
C000
C000
C000
FFC0
FFC0
C000
C000
C000
C000
C000
C000
FFE0
FFE0
ENDCHAR
STARTCHAR 0416
ENCODING 1046
SWIDTH 916 0
DWIDTH 22 0
BBX 20 17 1 0
BITMAP
E06070
7060E0
3861C0
186180
0C6300
066600
036C00
01F800
036C00
066600
0C6300
1C6380
186180
3060C0
7060E0
606060
E06070
ENDCHAR
STARTCHAR 0417
ENCODING 1047
SWIDTH 583 0
DWIDTH 14 0
BBX 12 17 1 0
BITMAP
3F00
7FC0
20E0
0060
0060
0060
01C0
1F80
1FC0
00E0
0030
0030
0030
0030
C0E0
FFE0
3F80
ENDCHAR
STARTCHAR 0418
ENCODING 1048
SWIDTH 708 0
DWIDTH 17 0
BBX 13 17 2 0
BITMAP
C018
C038
C078
C078
C0D8
C1D8
C198
C318
C618
CE18
CC18
D818
F018
F018
E018
C018
8018
ENDCHAR
STARTCHAR 0419
ENCODING 1049
SWIDTH 708 0
DWIDTH 17 0
BBX 13 23 2 0
BITMAP
30C0
39C0
1F80
0F00
0000
0000
C018
C038
C078
C078
C0D8
C1D8
C198
C318
C618
CE18
CC18
D818
F018
F018
E018
C018
8018
ENDCHAR
STARTCHAR 041A
ENCODING 1050
SWIDTH 625 0
DWIDTH 15 0
BBX 13 17 2 0
BITMAP
C070
C0E0
C1C0
C380
C700
CE00
DC00
F800
F000
FC00
DE00
CF00
C380
C1C0
C0E0
C070
C038
ENDCHAR
STARTCHAR 041B
ENCODING 1051
SWIDTH 708 0
DWIDTH 17 0
BBX 15 17 0 0
BITMAP
03FE
03FE
0306
0306
0306
0306
0306
0306
0306
0606
0606
0606
0E06
1C06
3806
F806
E006
ENDCHAR
STARTCHAR 041C
ENCODING 1052
SWIDTH 833 0
DWIDTH 20 0
BBX 18 17 1 0
BITMAP
600180
700380
700380
780780
680580
6C0D80
E40980
C618C0
C610C0
C330C0
C330C0
C120C0
C1E0C0
C1E0C0
C0C0C0
C000C0
C000C0
ENDCHAR
STARTCHAR 041D
ENCODING 1053
SWIDTH 708 0
DWIDTH 17 0
BBX 13 17 2 0
BITMAP
C018
C018
C018
C018
C018
C018
C018
FFF8
FFF8
C018
C018
C018
C018
C018
C018
C018
C018
ENDCHAR
STARTCHAR 041E
ENCODING 1054
SWIDTH 750 0
DWIDTH 18 0
BBX 16 17 1 0
BITMAP
07E0
1FF8
381C
700E
6006
E007
C003
C003
C003
C003
C003
E007
6006
700E
381C
1FF8
07E0
ENDCHAR
STARTCHAR 041F
ENCODING 1055
SWIDTH 708 0
DWIDTH 17 0
BBX 13 17 2 0
BITMAP
FFF8
FFF8
C018
C018
C018
C018
C018
C018
C018
C018
C018
C018
C018
C018
C018
C018
C018
ENDCHAR
STARTCHAR 0420
ENCODING 1056
SWIDTH 625 0
DWIDTH 15 0
BBX 12 17 2 0
BITMAP
FF00
FFC0
C0E0
C070
C030
C030
C030
C070
C0E0
FFC0
FF00
C000
C000
C000
C000
C000
C000
ENDCHAR
STARTCHAR 0421
ENCODING 1057
SWIDTH 625 0
DWIDTH 15 0
BBX 13 17 1 0
BITMAP
07E0
1FF8
3818
7000
6000
E000
C000
C000
C000
C000
C000
C000
6000
7000
3818
1FF8
07F0
ENDCHAR
STARTCHAR 0422
ENCODING 1058
SWIDTH 500 0
DWIDTH 12 0
BBX 12 17 0 0
BITMAP
FFF0
FFF0
0600
0600
0600
0600
0600
0600
0600
0600
0600
0600
0600
0600
0600
0600
0600
ENDCHAR
STARTCHAR 0423
ENCODING 1059
SWIDTH 583 0
DWIDTH 14 0
BBX 14 17 0 0
BITMAP
C00C
6018
6018
3038
3830
1830
1C60
0C60
0660
06C0
03C0
0380
0180
0300
0700
7E00
7C00
ENDCHAR
STARTCHAR 0424
ENCODING 1060
SWIDTH 833 0
DWIDTH 20 0
BBX 18 18 1 0
BITMAP
00C000
00C000
07F800
1FFE00
38C700
70C380
E0C1C0
C0C0C0
C0C0C0
C0C0C0
C0C0C0
E0C1C0
60C380
38C700
1FFE00
07F800
00C000
00C000
ENDCHAR
STARTCHAR 0425
ENCODING 1061
SWIDTH 625 0
DWIDTH 15 0
BBX 14 17 1 0
BITMAP
E01C
6018
3030
3870
1860
0CC0
0FC0
0780
0300
0780
0FC0
0CC0
1860
3870
7030
6018
E01C
ENDCHAR
STARTCHAR 0426
ENCODING 1062
SWIDTH 708 0
DWIDTH 17 0
BBX 14 21 2 -4
BITMAP
C030
C030
C030
C030
C030
C030
C030
C030
C030
C030
C030
C030
C030
C030
C030
FFFC
FFFC
000C
000C
000C
000C
ENDCHAR
STARTCHAR 0427
ENCODING 1063
SWIDTH 625 0
DWIDTH 15 0
BBX 12 17 1 0
BITMAP
C030
C030
C030
C030
C030
C030
C030
E030
7030
7FF0
1FF0
0030
0030
0030
0030
0030
0030
ENDCHAR
STARTCHAR 0428
ENCODING 1064
SWIDTH 1000 0
DWIDTH 24 0
BBX 20 17 2 0
BITMAP
C06030
C06030
C06030
C06030
C06030
C06030
C06030
C06030
C06030
C06030
C06030
C06030
C06030
C06030
C06030
FFFFF0
FFFFF0
ENDCHAR
STARTCHAR 0429
ENCODING 1065
SWIDTH 1000 0
DWIDTH 24 0
BBX 21 21 2 -4
BITMAP
C06060
C06060
C06060
C06060
C06060
C06060
C06060
C06060
C06060
C06060
C06060
C06060
C06060
C06060
C06060
FFFFF8
FFFFF8
000018
000018
000018
000018
ENDCHAR
STARTCHAR 042A
ENCODING 1066
SWIDTH 708 0
DWIDTH 17 0
BBX 16 17 0 0
BITMAP
FE00
FE00
0600
0600
0600
0600
07F0
07FC
060E
0607
0603
0603
0603
0607
060E
07FC
07F0
ENDCHAR
STARTCHAR 042B
ENCODING 1067
SWIDTH 875 0
DWIDTH 21 0
BBX 17 17 2 0
BITMAP
C00180
C00180
C00180
C00180
C00180
C00180
FE0180
FF8180
C1C180
C0E180
C06180
C06180
C06180
C0E180
C1C180
FF8180
FE0180
ENDCHAR
STARTCHAR 042C
ENCODING 1068
SWIDTH 625 0
DWIDTH 15 0
BBX 12 17 2 0
BITMAP
C000
C000
C000
C000
C000
C000
FF00
FFC0
C0E0
C070
C030
C030
C030
C070
C0E0
FFC0
FF00
ENDCHAR
STARTCHAR 042D
ENCODING 1069
SWIDTH 625 0
DWIDTH 15 0
BBX 13 17 1 0
BITMAP
7F00
FFC0
C0E0
0070
0030
0018
0018
1FF8
1FF8
0018
0018
0038
0030
0070
C0E0
FFC0
7F00
ENDCHAR
STARTCHAR 042E
ENCODING 1070
SWIDTH 1041 0
DWIDTH 25 0
BBX 22 17 2 0
BITMAP
C01F80
C07FE0
C0E070
C1C038
C18018
C3801C
C3000C
FF000C
FF000C
C3000C
C3000C
C3801C
C18018
C1C038
C0E070
C07FE0
C01F80
ENDCHAR
STARTCHAR 042F
ENCODING 1071
SWIDTH 625 0
DWIDTH 15 0
BBX 12 17 1 0
BITMAP
0FF0
1FF0
3830
6030
6030
6030
6030
3830
3FF0
0FF0
0C30
1830
3030
3030
6030
6030
C030
ENDCHAR
STARTCHAR 0430
ENCODING 1072
SWIDTH 541 0
DWIDTH 13 0
BBX 10 13 1 0
BITMAP
7F00
7F80
01C0
00C0
00C0
3FC0
7FC0
E0C0
C0C0
C0C0
E0C0
7FC0
3FC0
ENDCHAR
STARTCHAR 0431
ENCODING 1073
SWIDTH 583 0
DWIDTH 14 0
BBX 12 18 1 0
BITMAP
01E0
0FE0
3E00
3000
6000
4F80
FFC0
F0E0
C070
C030
C030
C030
C030
C030
6060
70E0
3FC0
1F80
ENDCHAR
STARTCHAR 0432
ENCODING 1074
SWIDTH 541 0
DWIDTH 13 0
BBX 10 13 2 0
BITMAP
FE00
FF00
C380
C180
C380
FF00
FF80
C1C0
C0C0
C0C0
C1C0
FF80
FF00
ENDCHAR
STARTCHAR 0433
ENCODING 1075
SWIDTH 416 0
DWIDTH 10 0
BBX 8 13 2 0
BITMAP
FF
FF
C0
C0
C0
C0
C0
C0
C0
C0
C0
C0
C0
ENDCHAR
STARTCHAR 0434
ENCODING 1076
SWIDTH 583 0
DWIDTH 14 0
BBX 14 16 0 -3
BITMAP
0FF0
0FF0
0C30
0C30
0C30
0C30
1C30
1830
1830
3830
3030
FFFC
FFFC
C00C
C00C
C00C
ENDCHAR
STARTCHAR 0435
ENCODING 1077
SWIDTH 541 0
DWIDTH 13 0
BBX 11 13 1 0
BITMAP
1F00
3FC0
70C0
6060
C060
FFE0
FFE0
C000
C000
E000
7040
3FC0
1F80
ENDCHAR
STARTCHAR 0436
ENCODING 1078
SWIDTH 750 0
DWIDTH 18 0
BBX 18 13 0 0
BITMAP
70C380
38C700
18CE00
0CCC00
06D800
03F000
06D800
0CCC00
18C600
38C700
30C300
60C180
E0C1C0
ENDCHAR
STARTCHAR 0437
ENCODING 1079
SWIDTH 500 0
DWIDTH 12 0
BBX 10 13 1 0
BITMAP
7F00
FF80
81C0
00C0
01C0
3F80
3F80
01C0
00C0
00C0
81C0
FF80
7F00
ENDCHAR
STARTCHAR 0438
ENCODING 1080
SWIDTH 583 0
DWIDTH 14 0
BBX 10 13 2 0
BITMAP
C0C0
C1C0
C3C0
C7C0
C6C0
CCC0
CCC0
D8C0
D8C0
F0C0
E0C0
E0C0
C0C0
ENDCHAR
STARTCHAR 0439
ENCODING 1081
SWIDTH 583 0
DWIDTH 14 0
BBX 10 19 2 0
BITMAP
30C0
39C0
1F80
0F00
0000
0000
C0C0
C1C0
C3C0
C7C0
C6C0
CCC0
CCC0
D8C0
D8C0
F0C0
E0C0
E0C0
C0C0
ENDCHAR
STARTCHAR 043A
ENCODING 1082
SWIDTH 541 0
DWIDTH 13 0
BBX 11 13 2 0
BITMAP
C1C0
C380
C700
CE00
DC00
F800
F800
DC00
CE00
C700
C380
C1C0
C0E0
ENDCHAR
STARTCHAR 043B
ENCODING 1083
SWIDTH 583 0
DWIDTH 14 0
BBX 12 13 0 0
BITMAP
0FF0
0FF0
0C30
0C30
0C30
0C30
0C30
1C30
1830
3830
7030
F030
C030
ENDCHAR
STARTCHAR 043C
ENCODING 1084
SWIDTH 791 0
DWIDTH 19 0
BBX 15 13 2 0
BITMAP
600C
701C
5014
D836
C826
CC66
C446
C6C6
C6C6
C386
C386
C006
C006
ENDCHAR
STARTCHAR 043D
ENCODING 1085
SWIDTH 583 0
DWIDTH 14 0
BBX 10 13 2 0
BITMAP
C0C0
C0C0
C0C0
C0C0
C0C0
FFC0
FFC0
C0C0
C0C0
C0C0
C0C0
C0C0
C0C0
ENDCHAR
STARTCHAR 043E
ENCODING 1086
SWIDTH 583 0
DWIDTH 14 0
BBX 12 13 1 0
BITMAP
0F00
3FC0
70E0
6060
C030
C030
C030
C030
C030
6060
70E0
3FC0
0F00
ENDCHAR
STARTCHAR 043F
ENCODING 1087
SWIDTH 583 0
DWIDTH 14 0
BBX 10 13 2 0
BITMAP
FFC0
FFC0
C0C0
C0C0
C0C0
C0C0
C0C0
C0C0
C0C0
C0C0
C0C0
C0C0
C0C0
ENDCHAR
STARTCHAR 0440
ENCODING 1088
SWIDTH 583 0
DWIDTH 14 0
BBX 11 17 2 -4
BITMAP
7E00
FF80
C1C0
C0C0
C060
C060
C060
C060
C060
C0E0
E1C0
FF80
DF00
C000
C000
C000
C000
ENDCHAR
STARTCHAR 0441
ENCODING 1089
SWIDTH 458 0
DWIDTH 11 0
BBX 10 13 1 0
BITMAP
0FC0
3FC0
7000
6000
C000
C000
C000
C000
C000
6000
7000
3FC0
0FC0
ENDCHAR
STARTCHAR 0442
ENCODING 1090
SWIDTH 416 0
DWIDTH 10 0
BBX 10 13 0 0
BITMAP
FFC0
FFC0
0C00
0C00
0C00
0C00
0C00
0C00
0C00
0C00
0C00
0C00
0C00
ENDCHAR
STARTCHAR 0443
ENCODING 1091
SWIDTH 458 0
DWIDTH 11 0
BBX 11 17 0 -4
BITMAP
C060
60C0
60C0
60C0
7180
3180
3180
3B00
1B00
1B00
1E00
0E00
0E00
0C00
1C00
F800
F000
ENDCHAR
STARTCHAR 0444
ENCODING 1092
SWIDTH 750 0
DWIDTH 18 0
BBX 16 22 1 -4
BITMAP
0180
0180
0180
0180
0180
0FF0
3FFC
799E
6186
C183
C183
C183
C183
C183
6186
799E
3FFC
0FF0
0180
0180
0180
0180
ENDCHAR
STARTCHAR 0445
ENCODING 1093
SWIDTH 500 0
DWIDTH 12 0
BBX 12 13 0 0
BITMAP
E070
6060
30C0
1980
1F80
0F00
0600
0F00
1F80
39C0
30C0
6060
E070
ENDCHAR
STARTCHAR 0446
ENCODING 1094
SWIDTH 583 0
DWIDTH 14 0
BBX 12 16 2 -3
BITMAP
C0C0
C0C0
C0C0
C0C0
C0C0
C0C0
C0C0
C0C0
C0C0
C0C0
C0C0
FFF0
FFF0
0030
0030
0030
ENDCHAR
STARTCHAR 0447
ENCODING 1095
SWIDTH 541 0
DWIDTH 13 0
BBX 9 13 2 0
BITMAP
C180
C180
C180
C180
C180
E180
7F80
3F80
0180
0180
0180
0180
0180
ENDCHAR
STARTCHAR 0448
ENCODING 1096
SWIDTH 833 0
DWIDTH 20 0
BBX 16 13 2 0
BITMAP
C183
C183
C183
C183
C183
C183
C183
C183
C183
C183
C183
FFFF
FFFF
ENDCHAR
STARTCHAR 0449
ENCODING 1097
SWIDTH 833 0
DWIDTH 20 0
BBX 18 16 2 -3
BITMAP
C18300
C18300
C18300
C18300
C18300
C18300
C18300
C18300
C18300
C18300
C18300
FFFFC0
FFFFC0
0000C0
0000C0
0000C0
ENDCHAR
STARTCHAR 044A
ENCODING 1098
SWIDTH 583 0
DWIDTH 14 0
BBX 13 13 0 0
BITMAP
F800
F800
1800
1800
1FC0
1FF0
1838
1818
1818
1818
1838
1FF0
1FE0
ENDCHAR
STARTCHAR 044B
ENCODING 1099
SWIDTH 750 0
DWIDTH 18 0
BBX 14 13 2 0
BITMAP
C00C
C00C
C00C
C00C
C00C
FF0C
FF8C
C1CC
C0CC
C0CC
C1CC
FF8C
FF0C
ENDCHAR
STARTCHAR 044C
ENCODING 1100
SWIDTH 541 0
DWIDTH 13 0
BBX 10 13 2 0
BITMAP
C000
C000
C000
C000
FE00
FF80
C1C0
C0C0
C0C0
C0C0
C1C0
FF80
FF00
ENDCHAR
STARTCHAR 044D
ENCODING 1101
SWIDTH 500 0
DWIDTH 12 0
BBX 10 13 1 0
BITMAP
FC00
FF00
8380
0180
00C0
1FC0
1FC0
00C0
00C0
0180
0380
FF00
FE00
ENDCHAR
STARTCHAR 044E
ENCODING 1102
SWIDTH 791 0
DWIDTH 19 0
BBX 16 13 2 0
BITMAP
C0F8
C1FC
C38E
C706
C603
FE03
FE03
C603
C603
C306
C38E
C1FC
C0F8
ENDCHAR
STARTCHAR 044F
ENCODING 1103
SWIDTH 541 0
DWIDTH 13 0
BBX 11 13 0 0
BITMAP
0FE0
3FE0
7060
6060
6060
7060
3FE0
1FE0
3060
3060
6060
6060
C060
ENDCHAR
STARTCHAR 0450
ENCODING 1104
SWIDTH 541 0
DWIDTH 13 0
BBX 11 19 1 0
BITMAP
0800
1C00
0E00
0700
0200
0000
1F00
3FC0
70C0
6060
C060
FFE0
FFE0
C000
C000
E000
7040
3FC0
1F80
ENDCHAR
STARTCHAR 0451
ENCODING 1105
SWIDTH 541 0
DWIDTH 13 0
BBX 11 18 1 0
BITMAP
39C0
39C0
39C0
0000
0000
1F00
3FC0
70C0
6060
C060
FFE0
FFE0
C000
C000
E000
7040
3FC0
1F80
ENDCHAR
STARTCHAR 0452
ENCODING 1106
SWIDTH 583 0
DWIDTH 14 0
BBX 12 22 0 -4
BITMAP
3000
FF00
FF00
3000
3000
3F80
3FE0
3060
3030
3030
3030
3030
3030
3030
3030
3030
3030
3030
0030
0030
01F0
01E0
ENDCHAR
STARTCHAR 0453
ENCODING 1107
SWIDTH 416 0
DWIDTH 10 0
BBX 8 19 2 0
BITMAP
02
07
0E
1C
08
00
FF
FF
C0
C0
C0
C0
C0
C0
C0
C0
C0
C0
C0
ENDCHAR
STARTCHAR 0454
ENCODING 1108
SWIDTH 500 0
DWIDTH 12 0
BBX 10 13 1 0
BITMAP
0FC0
3FC0
7040
6000
C000
FE00
FE00
C000
C000
6000
7040
3FC0
1FC0
ENDCHAR
STARTCHAR 0455
ENCODING 1109
SWIDTH 458 0
DWIDTH 11 0
BBX 9 13 1 0
BITMAP
3F00
7F00
E100
C000
C000
7800
3E00
0F00
0380
0180
8380
FF00
7E00
ENDCHAR
STARTCHAR 0456
ENCODING 1110
SWIDTH 250 0
DWIDTH 6 0
BBX 2 18 2 0
BITMAP
C0
C0
00
00
00
C0
C0
C0
C0
C0
C0
C0
C0
C0
C0
C0
C0
C0
ENDCHAR
STARTCHAR 0457
ENCODING 1111
SWIDTH 250 0
DWIDTH 6 0
BBX 8 18 -1 0
BITMAP
E7
E7
E7
00
00
18
18
18
18
18
18
18
18
18
18
18
18
18
ENDCHAR
STARTCHAR 0458
ENCODING 1112
SWIDTH 250 0
DWIDTH 6 0
BBX 6 22 -2 -4
BITMAP
0C
0C
00
00
00
0C
0C
0C
0C
0C
0C
0C
0C
0C
0C
0C
0C
0C
0C
1C
F8
F0
ENDCHAR
STARTCHAR 0459
ENCODING 1113
SWIDTH 875 0
DWIDTH 21 0
BBX 20 13 0 0
BITMAP
0FF000
0FF000
0C3000
0C3000
0C3000
0C3FC0
0C3FE0
1C3070
183030
383030
703070
F03FE0
C03FC0
ENDCHAR
STARTCHAR 045A
ENCODING 1114
SWIDTH 833 0
DWIDTH 20 0
BBX 17 13 2 0
BITMAP
C0C000
C0C000
C0C000
C0C000
C0C000
C0FE00
FFFF00
FFC380
C0C180
C0C180
C0C380
C0FF00
C0FE00
ENDCHAR
STARTCHAR 045B
ENCODING 1115
SWIDTH 583 0
DWIDTH 14 0
BBX 12 18 0 0
BITMAP
3000
FF00
FF00
3000
3000
3F80
3FE0
3060
3030
3030
3030
3030
3030
3030
3030
3030
3030
3030
ENDCHAR
STARTCHAR 045C
ENCODING 1116
SWIDTH 541 0
DWIDTH 13 0
BBX 11 19 2 0
BITMAP
0200
0700
0E00
1C00
0800
0000
C1C0
C380
C700
CE00
DC00
F800
F800
DC00
CE00
C700
C380
C1C0
C0E0
ENDCHAR
STARTCHAR 045D
ENCODING 1117
SWIDTH 583 0
DWIDTH 14 0
BBX 10 19 2 0
BITMAP
1000
3800
1C00
0E00
0400
0000
C0C0
C1C0
C3C0
C7C0
C6C0
CCC0
CCC0
D8C0
D8C0
F0C0
E0C0
E0C0
C0C0
ENDCHAR
STARTCHAR 045E
ENCODING 1118
SWIDTH 458 0
DWIDTH 11 0
BBX 11 23 0 -4
BITMAP
1860
1CE0
0FC0
0780
0000
0000
C060
60C0
60C0
60C0
7180
3180
3180
3B00
1B00
1B00
1E00
0E00
0E00
0C00
1C00
F800
F000
ENDCHAR
STARTCHAR 045F
ENCODING 1119
SWIDTH 583 0
DWIDTH 14 0
BBX 10 16 2 -3
BITMAP
C0C0
C0C0
C0C0
C0C0
C0C0
C0C0
C0C0
C0C0
C0C0
C0C0
C0C0
FFC0
FFC0
0C00
0C00
0C00
ENDCHAR
STARTCHAR 0462
ENCODING 1122
SWIDTH 708 0
DWIDTH 17 0
BBX 16 18 0 0
BITMAP
0C00
0C00
FFF0
FFF0
0C00
0C00
0C00
0FF0
0FFC
0C0E
0C07
0C03
0C03
0C03
0C07
0C0E
0FFC
0FF0
ENDCHAR
STARTCHAR 0463
ENCODING 1123
SWIDTH 583 0
DWIDTH 14 0
BBX 13 18 0 0
BITMAP
1800
1800
1800
1800
1800
FFC0
FFC0
1800
1800
1FC0
1FF0
1838
1818
1818
1818
1838
1FF0
1FE0
ENDCHAR
STARTCHAR 0472
ENCODING 1138
SWIDTH 750 0
DWIDTH 18 0
BBX 16 17 1 0
BITMAP
07E0
1FF8
3C1C
700E
6006
E007
C003
DE03
FFC7
E1FF
C07B
C003
6006
700E
381C
1FF8
07E0
ENDCHAR
STARTCHAR 0473
ENCODING 1139
SWIDTH 583 0
DWIDTH 14 0
BBX 12 13 1 0
BITMAP
0F00
3FC0
70E0
4060
FC30
FE30
E7F0
C1F0
C030
6060
70E0
3FC0
0F00
ENDCHAR
STARTCHAR 0474
ENCODING 1140
SWIDTH 791 0
DWIDTH 19 0
BBX 19 17 0 0
BITMAP
C001C0
6003E0
600600
600600
300C00
300C00
381800
181800
183800
0C3000
0C3000
066000
066000
07E000
03C000
03C000
018000
ENDCHAR
STARTCHAR 0475
ENCODING 1141
SWIDTH 583 0
DWIDTH 14 0
BBX 14 13 0 0
BITMAP
C03C
E07C
6060
6060
70C0
30C0
31C0
1980
1980
1F00
0F00
0F00
0600
ENDCHAR
STARTCHAR 048A
ENCODING 1162
SWIDTH 750 0
DWIDTH 18 0
BBX 16 27 2 -4
BITMAP
1860
1CE0
0FC0
0780
0000
0000
C00C
C01C
C03C
C07C
C06C
C0CC
C1CC
C38C
C70C
C60C
CC0C
DC0C
F80C
F00C
E00C
C00F
800F
0003
0006
000E
0004
ENDCHAR
STARTCHAR 048B
ENCODING 1163
SWIDTH 625 0
DWIDTH 15 0
BBX 13 23 2 -4
BITMAP
30C0
39C0
1F80
0F00
0000
0000
C060
C0E0
C1E0
C3E0
C760
C660
CC60
DC60
D860
F060
F060
E078
C078
0018
0030
0070
0020
ENDCHAR
STARTCHAR 048C
ENCODING 1164
SWIDTH 625 0
DWIDTH 15 0
BBX 14 18 0 0
BITMAP
3000
3000
FE00
FE00
3000
3000
3000
3FC0
3FF0
3038
301C
300C
300C
300C
301C
3038
3FF0
3FC0
ENDCHAR
STARTCHAR 048D
ENCODING 1165
SWIDTH 541 0
DWIDTH 13 0
BBX 12 13 0 0
BITMAP
3000
FF00
FF00
3000
3000
3FC0
3FE0
3070
3030
3030
3070
3FE0
3FC0
ENDCHAR
STARTCHAR 048E
ENCODING 1166
SWIDTH 625 0
DWIDTH 15 0
BBX 12 17 2 0
BITMAP
FF00
FFC0
C0E0
C070
C030
C030
C430
C670
C6E0
FFC0
FF80
C180
C0C0
C080
C000
C000
C000
ENDCHAR
STARTCHAR 048F
ENCODING 1167
SWIDTH 583 0
DWIDTH 14 0
BBX 11 17 2 -4
BITMAP
7E00
FF80
C1C0
C0C0
C060
C060
C060
C060
C460
C6E0
E3C0
FFC0
DF80
C0C0
C0C0
C000
C000
ENDCHAR
STARTCHAR 0490
ENCODING 1168
SWIDTH 500 0
DWIDTH 12 0
BBX 10 20 2 0
BITMAP
00C0
00C0
00C0
FFC0
FFC0
C000
C000
C000
C000
C000
C000
C000
C000
C000
C000
C000
C000
C000
C000
C000
ENDCHAR
STARTCHAR 0491
ENCODING 1169
SWIDTH 416 0
DWIDTH 10 0
BBX 8 16 2 0
BITMAP
03
03
03
FF
FF
C0
C0
C0
C0
C0
C0
C0
C0
C0
C0
C0
ENDCHAR
STARTCHAR 0492
ENCODING 1170
SWIDTH 541 0
DWIDTH 13 0
BBX 13 17 0 0
BITMAP
3FF8
3FF8
3000
3000
3000
3000
3000
FF00
FF00
3000
3000
3000
3000
3000
3000
3000
3000
ENDCHAR
STARTCHAR 0493
ENCODING 1171
SWIDTH 416 0
DWIDTH 10 0
BBX 10 13 0 0
BITMAP
3FC0
3FC0
3000
3000
3000
3000
FF00
FF00
3000
3000
3000
3000
3000
ENDCHAR
STARTCHAR 0494
ENCODING 1172
SWIDTH 625 0
DWIDTH 15 0
BBX 12 21 2 -4
BITMAP
FFC0
FFC0
C000
C000
C000
C000
FF00
FFC0
C1E0
C060
C070
C030
C030
C030
C030
C030
C070
0060
01E0
0FC0
0F00
ENDCHAR
STARTCHAR 0495
ENCODING 1173
SWIDTH 541 0
DWIDTH 13 0
BBX 10 17 2 -4
BITMAP
FF00
FF00
C000
C000
C000
FE00
FF80
C180
C0C0
C0C0
C0C0
C0C0
C0C0
01C0
0180
0F80
0E00
ENDCHAR
STARTCHAR 0496
ENCODING 1174
SWIDTH 916 0
DWIDTH 22 0
BBX 21 21 1 -4
BITMAP
E06070
7060E0
3861C0
186380
0C6300
066600
036C00
01F800
036C00
066600
0C6300
1C6180
186180
3060C0
706060
606078
E06038
000018
000018
000018
000018
ENDCHAR
STARTCHAR 0497
ENCODING 1175
SWIDTH 791 0
DWIDTH 19 0
BBX 19 16 0 -3
BITMAP
70C1C0
38C380
18C600
0CCC00
06D800
03F000
06D800
0CCC00
18C600
38C300
30C180
60C1E0
E0C0E0
000060
000060
000060
ENDCHAR
STARTCHAR 0498
ENCODING 1176
SWIDTH 583 0
DWIDTH 14 0
BBX 12 20 1 -3
BITMAP
3F00
7FC0
20E0
0060
0060
0060
01C0
1F80
1FC0
00E0
0030
0030
0030
0030
C0E0
FFE0
3F80
0600
0300
0F00
ENDCHAR
STARTCHAR 0499
ENCODING 1177
SWIDTH 500 0
DWIDTH 12 0
BBX 10 16 1 -3
BITMAP
7F00
FF80
81C0
00C0
01C0
3F80
3F80
01C0
00C0
00C0
81C0
FF80
7F00
0C00
0600
1E00
ENDCHAR
STARTCHAR 049A
ENCODING 1178
SWIDTH 666 0
DWIDTH 16 0
BBX 14 21 2 -4
BITMAP
C030
C060
C0C0
C380
C700
CE00
DC00
F000
DC00
CE00
C700
C380
C1C0
C0E0
C070
C03C
C01C
000C
000C
000C
000C
ENDCHAR
STARTCHAR 049B
ENCODING 1179
SWIDTH 541 0
DWIDTH 13 0
BBX 11 16 2 -4
BITMAP
C180
C300
C600
CC00
D800
F000
D800
CC00
CE00
C700
C380
C1E0
C0E0
0060
0060
0060
ENDCHAR
STARTCHAR 049C
ENCODING 1180
SWIDTH 750 0
DWIDTH 18 0
BBX 15 17 2 0
BITMAP
C00E
C01C
C038
CC70
CCE0
CDC0
CF80
FF00
FF80
CD80
CCC0
CC60
CC70
C030
C018
C00C
C00E
ENDCHAR
STARTCHAR 049D
ENCODING 1181
SWIDTH 583 0
DWIDTH 14 0
BBX 12 13 2 0
BITMAP
C0E0
C0C0
D980
DB00
DF00
FE00
FF00
DB00
D980
D9C0
C0C0
C060
C070
ENDCHAR
STARTCHAR 049E
ENCODING 1182
SWIDTH 625 0
DWIDTH 15 0
BBX 15 17 0 0
BITMAP
301C
3038
FC70
FCE0
31C0
3380
3700
3E00
3C00
3F00
3780
33C0
30E0
3070
3038
301C
300E
ENDCHAR
STARTCHAR 049F
ENCODING 1183
SWIDTH 541 0
DWIDTH 13 0
BBX 13 13 0 0
BITMAP
3070
30E0
FDC0
FF80
3700
3E00
3C00
3700
3300
3180
30C0
3070
3038
ENDCHAR
STARTCHAR 04A0
ENCODING 1184
SWIDTH 750 0
DWIDTH 18 0
BBX 18 17 0 0
BITMAP
FC0300
FC0600
0C0C00
0C1800
0C3000
0C6000
0CC000
0D8000
0F0000
0FC000
0DE000
0C7800
0C3C00
0C0E00
0C0700
0C0380
0C01C0
ENDCHAR
STARTCHAR 04A1
ENCODING 1185
SWIDTH 625 0
DWIDTH 15 0
BBX 15 13 0 0
BITMAP
F81C
F838
1870
18E0
19C0
1B80
1F00
1B80
19E0
1870
1838
181C
180E
ENDCHAR
STARTCHAR 04A2
ENCODING 1186
SWIDTH 708 0
DWIDTH 17 0
BBX 15 21 2 -4
BITMAP
C018
C018
C018
C018
C018
C018
C018
FFF8
FFF8
C018
C018
C018
C018
C018
C018
C01E
C01E
0006
0006
0006
0006
ENDCHAR
STARTCHAR 04A3
ENCODING 1187
SWIDTH 583 0
DWIDTH 14 0
BBX 12 16 2 -3
BITMAP
C0C0
C0C0
C0C0
C0C0
C0C0
FFC0
FFC0
C0C0
C0C0
C0C0
C0C0
C0F0
C0F0
0030
0030
0030
ENDCHAR
STARTCHAR 04A4
ENCODING 1188
SWIDTH 833 0
DWIDTH 20 0
BBX 18 17 2 0
BITMAP
C00FC0
C00FC0
C00C00
C00C00
C00C00
C00C00
C00C00
FFFC00
FFFC00
C00C00
C00C00
C00C00
C00C00
C00C00
C00C00
C00C00
C00C00
ENDCHAR
STARTCHAR 04A5
ENCODING 1189
SWIDTH 666 0
DWIDTH 16 0
BBX 14 13 2 0
BITMAP
C07C
C07C
C060
C060
C060
FFE0
FFE0
C060
C060
C060
C060
C060
C060
ENDCHAR
STARTCHAR 04A6
ENCODING 1190
SWIDTH 1041 0
DWIDTH 25 0
BBX 22 21 2 -4
BITMAP
FFF000
FFF000
C03000
C03000
C03000
C03000
C03FC0
C03FF0
C03078
C03018
C0301C
C0300C
C0300C
C0300C
C0300C
C0300C
C0301C
000018
000078
0003F0
0003C0
ENDCHAR
STARTCHAR 04A7
ENCODING 1191
SWIDTH 875 0
DWIDTH 21 0
BBX 18 17 2 -4
BITMAP
FFC000
FFC000
C0C000
C0C000
C0C000
C0FE00
C0FF80
C0C180
C0C0C0
C0C0C0
C0C0C0
C0C0C0
C0C0C0
0001C0
000180
000F80
000E00
ENDCHAR
STARTCHAR 04A8
ENCODING 1192
SWIDTH 791 0
DWIDTH 19 0
BBX 16 21 1 -4
BITMAP
03F0
0FF8
3C00
7000
607C
E0FE
C0C6
C183
C183
C183
C183
E183
6187
7186
3D9C
1FF8
03F0
0060
0038
001F
0007
ENDCHAR
STARTCHAR 04A9
ENCODING 1193
SWIDTH 625 0
DWIDTH 15 0
BBX 13 16 1 -3
BITMAP
0F80
3F80
7000
61E0
C3F0
C738
C618
C618
C618
6638
7670
3FE0
0F80
0380
01F0
0070
ENDCHAR
STARTCHAR 04AA
ENCODING 1194
SWIDTH 625 0
DWIDTH 15 0
BBX 13 21 1 -4
BITMAP
07E0
1FF8
3818
7000
6000
E000
C000
C000
C000
C000
C000
C000
6000
7000
3818
1FF8
07F0
0300
0380
0180
0780
ENDCHAR
STARTCHAR 04AB
ENCODING 1195
SWIDTH 458 0
DWIDTH 11 0
BBX 10 17 1 -4
BITMAP
0FC0
3FC0
7000
6000
C000
C000
C000
C000
C000
6000
7000
3FC0
0FC0
0600
0700
0300
0F00
ENDCHAR
STARTCHAR 04AC
ENCODING 1196
SWIDTH 500 0
DWIDTH 12 0
BBX 12 21 0 -4
BITMAP
FFF0
FFF0
0600
0600
0600
0600
0600
0600
0600
0600
0600
0600
0600
0600
0600
0780
0780
0180
0180
0180
0180
ENDCHAR
STARTCHAR 04AD
ENCODING 1197
SWIDTH 416 0
DWIDTH 10 0
BBX 10 16 0 -3
BITMAP
FFC0
FFC0
0C00
0C00
0C00
0C00
0C00
0C00
0C00
0C00
0C00
0F00
0F00
0300
0300
0300
ENDCHAR
STARTCHAR 04AE
ENCODING 1198
SWIDTH 583 0
DWIDTH 14 0
BBX 14 17 0 0
BITMAP
C00C
6018
7038
3030
1860
1860
0CC0
0FC0
0780
0300
0300
0300
0300
0300
0300
0300
0300
ENDCHAR
STARTCHAR 04AF
ENCODING 1199
SWIDTH 500 0
DWIDTH 12 0
BBX 12 17 0 -4
BITMAP
C030
E070
6060
6060
30C0
30C0
39C0
1980
1F80
0F00
0F00
0600
0600
0600
0600
0600
0600
ENDCHAR
STARTCHAR 04B0
ENCODING 1200
SWIDTH 583 0
DWIDTH 14 0
BBX 14 17 0 0
BITMAP
C00C
6018
6038
3030
3860
1860
0CC0
0FC0
0780
0300
1FE0
1FE0
0300
0300
0300
0300
0300
ENDCHAR
STARTCHAR 04B1
ENCODING 1201
SWIDTH 500 0
DWIDTH 12 0
BBX 12 17 0 -4
BITMAP
C030
6060
6060
6060
30C0
30C0
1080
1980
0900
0F00
0600
3FC0
3FC0
0600
0600
0600
0600
ENDCHAR
STARTCHAR 04B2
ENCODING 1202
SWIDTH 666 0
DWIDTH 16 0
BBX 15 21 1 -4
BITMAP
E01C
6018
3030
1870
1860
0CC0
07C0
0780
0300
0780
0EC0
0CE0
1860
3830
7038
601E
E00E
0006
0006
0006
0006
ENDCHAR
STARTCHAR 04B3
ENCODING 1203
SWIDTH 541 0
DWIDTH 13 0
BBX 13 16 0 -3
BITMAP
E070
7060
30C0
1980
0F80
0F00
0600
0F00
1D80
39C0
30E0
6078
E038
0018
0018
0018
ENDCHAR
STARTCHAR 04B4
ENCODING 1204
SWIDTH 833 0
DWIDTH 20 0
BBX 19 21 0 -4
BITMAP
FFF180
FFF180
060180
060180
060180
060180
060180
060180
060180
060180
060180
060180
060180
060180
060180
07FFE0
07FFE0
000060
000060
000060
000060
ENDCHAR
STARTCHAR 04B5
ENCODING 1205
SWIDTH 666 0
DWIDTH 16 0
BBX 15 16 0 -3
BITMAP
FF8C
FF8C
0C0C
0C0C
0C0C
0C0C
0C0C
0C0C
0C0C
0C0C
0C0C
0FFE
0FFE
0006
0006
0006
ENDCHAR
STARTCHAR 04B6
ENCODING 1206
SWIDTH 666 0
DWIDTH 16 0
BBX 14 21 1 -5
BITMAP
C030
C030
C030
C030
C030
C030
C030
E030
7030
7FF0
1FF0
0030
0030
0030
0030
003C
003C
000C
000C
000C
000C
ENDCHAR
STARTCHAR 04B7
ENCODING 1207
SWIDTH 541 0
DWIDTH 13 0
BBX 11 16 2 -3
BITMAP
C180
C180
C180
C180
C180
E180
7F80
3F80
0180
0180
0180
01E0
01E0
0060
0060
0060
ENDCHAR
STARTCHAR 04B8
ENCODING 1208
SWIDTH 625 0
DWIDTH 15 0
BBX 12 17 1 0
BITMAP
C030
C030
C030
C030
C030
C030
C630
C630
7630
7FF0
1FF0
0630
0630
0630
0030
0030
0030
ENDCHAR
STARTCHAR 04B9
ENCODING 1209
SWIDTH 541 0
DWIDTH 13 0
BBX 9 13 2 0
BITMAP
C180
C180
C180
C180
CD80
ED80
7F80
3F80
0D80
0D80
0180
0180
0180
ENDCHAR
STARTCHAR 04BA
ENCODING 1210
SWIDTH 625 0
DWIDTH 15 0
BBX 11 17 2 0
BITMAP
C000
C000
C000
C000
C000
C000
FF00
FFC0
C1C0
C0E0
C060
C060
C060
C060
C060
C060
C060
ENDCHAR
STARTCHAR 04BB
ENCODING 1211
SWIDTH 583 0
DWIDTH 14 0
BBX 10 18 2 0
BITMAP
C000
C000
C000
C000
C000
FE00
FF80
C180
C0C0
C0C0
C0C0
C0C0
C0C0
C0C0
C0C0
C0C0
C0C0
C0C0
ENDCHAR
STARTCHAR 04BC
ENCODING 1212
SWIDTH 833 0
DWIDTH 20 0
BBX 19 17 0 0
BITMAP
007E00
01FF00
038380
0700C0
C600C0
CC0060
EC0060
7FFFE0
3FFFE0
0C0000
0C0000
0E0000
060000
070000
03C0C0
01FFC0
007F00
ENDCHAR
STARTCHAR 04BD
ENCODING 1213
SWIDTH 666 0
DWIDTH 16 0
BBX 15 13 0 0
BITMAP
01F0
03FC
C70C
CE06
EC06
7FFE
3FFE
0C00
0C00
0E00
0704
03FC
01F8
ENDCHAR
STARTCHAR 04BE
ENCODING 1214
SWIDTH 833 0
DWIDTH 20 0
BBX 19 21 0 -4
BITMAP
007E00
01FF00
038380
0700C0
C600C0
CC0060
EC0060
7FFFE0
3FFFE0
0C0000
0C0000
0E0000
060000
070000
03C0C0
01FFC0
003F80
001800
001800
001800
001800
ENDCHAR
STARTCHAR 04BF
ENCODING 1215
SWIDTH 666 0
DWIDTH 16 0
BBX 15 16 0 -3
BITMAP
01F0
03FC
C70C
CE06
EC06
7FFE
3FFE
0C00
0C00
0600
0704
03FC
00FC
0060
0060
0060
ENDCHAR
STARTCHAR 04C0
ENCODING 1216
SWIDTH 250 0
DWIDTH 6 0
BBX 2 17 2 0
BITMAP
C0
C0
C0
C0
C0
C0
C0
C0
C0
C0
C0
C0
C0
C0
C0
C0
C0
ENDCHAR
STARTCHAR 04C1
ENCODING 1217
SWIDTH 916 0
DWIDTH 22 0
BBX 20 23 1 0
BITMAP
030C00
039C00
01F800
00F000
000000
000000
E06070
7060E0
3861C0
186180
0C6300
066600
036C00
01F800
036C00
066600
0C6300
1C6380
186180
3060C0
7060E0
606060
E06070
ENDCHAR
STARTCHAR 04C2
ENCODING 1218
SWIDTH 750 0
DWIDTH 18 0
BBX 18 19 0 0
BITMAP
030C00
039C00
01F800
00F000
000000
000000
70C380
38C700
18CE00
0CCC00
06D800
03F000
06D800
0CCC00
18C600
38C700
30C300
60C180
E0C1C0
ENDCHAR
STARTCHAR 04C3
ENCODING 1219
SWIDTH 625 0
DWIDTH 15 0
BBX 12 21 2 -4
BITMAP
C070
C0E0
C1C0
C380
C600
CC00
D800
FF00
FFC0
C1E0
C060
C070
C030
C030
C030
C030
C070
0060
01E0
0FC0
0F00
ENDCHAR
STARTCHAR 04C4
ENCODING 1220
SWIDTH 541 0
DWIDTH 13 0
BBX 10 17 2 -4
BITMAP
C180
C300
C600
CC00
D800
FE00
FF00
C380
C1C0
C0C0
C0C0
C0C0
C0C0
01C0
0180
0F00
0E00
ENDCHAR
STARTCHAR 04C5
ENCODING 1221
SWIDTH 708 0
DWIDTH 17 0
BBX 17 21 0 -4
BITMAP
03FE00
03FE00
030600
030600
030600
030600
030600
030600
030600
060600
060600
060600
0E0600
1C0600
380600
F80780
E00780
000180
000300
000700
000200
ENDCHAR
STARTCHAR 04C6
ENCODING 1222
SWIDTH 625 0
DWIDTH 15 0
BBX 15 17 0 -4
BITMAP
0FF8
0FF8
0C18
0C18
0C18
0C18
0C18
1C18
1818
3818
7018
F01E
C01E
0006
000C
000C
0008
ENDCHAR
STARTCHAR 04C7
ENCODING 1223
SWIDTH 708 0
DWIDTH 17 0
BBX 13 21 2 -4
BITMAP
C018
C018
C018
C018
C018
C018
C018
FFF8
FFF8
C018
C018
C018
C018
C018
C018
C018
C018
0018
0018
00F8
00F0
ENDCHAR
STARTCHAR 04C8
ENCODING 1224
SWIDTH 583 0
DWIDTH 14 0
BBX 10 17 2 -4
BITMAP
C0C0
C0C0
C0C0
C0C0
C0C0
FFC0
FFC0
C0C0
C0C0
C0C0
C0C0
C0C0
C0C0
00C0
00C0
07C0
0780
ENDCHAR
STARTCHAR 04C9
ENCODING 1225
SWIDTH 708 0
DWIDTH 17 0
BBX 15 21 2 -4
BITMAP
C018
C018
C018
C018
C018
C018
C018
FFF8
FFF8
C018
C018
C018
C018
C018
C018
C01E
C01E
0006
000C
001C
0008
ENDCHAR
STARTCHAR 04CA
ENCODING 1226
SWIDTH 583 0
DWIDTH 14 0
BBX 12 17 2 -4
BITMAP
C0C0
C0C0
C0C0
C0C0
C0C0
FFC0
FFC0
C0C0
C0C0
C0C0
C0C0
C0F0
C0F0
0030
0060
0060
0040
ENDCHAR
STARTCHAR 04CB
ENCODING 1227
SWIDTH 625 0
DWIDTH 15 0
BBX 11 21 2 -4
BITMAP
C060
C060
C060
C060
C060
C060
C060
C060
6060
7FE0
1FE0
0060
0060
0060
0060
01E0
01E0
0180
0180
0180
0180
ENDCHAR
STARTCHAR 04CC
ENCODING 1228
SWIDTH 541 0
DWIDTH 13 0
BBX 9 16 2 -3
BITMAP
C180
C180
C180
C180
C180
E180
7F80
3F80
0180
0180
0180
0780
0780
0600
0600
0600
ENDCHAR
STARTCHAR 04CD
ENCODING 1229
SWIDTH 916 0
DWIDTH 22 0
BBX 20 21 1 -4
BITMAP
600180
700380
700380
780780
680580
6C0D80
E40980
C618C0
C610C0
C330C0
C330C0
C120C0
C1E0C0
C1E0C0
C0C0C0
C000F0
C000F0
000030
000060
0000E0
000040
ENDCHAR
STARTCHAR 04CE
ENCODING 1230
SWIDTH 750 0
DWIDTH 18 0
BBX 16 17 2 -4
BITMAP
6018
7018
502C
D82C
C86C
CC4C
C4CC
C6CC
C68C
C38C
C38C
C00F
C00F
0003
0006
0006
0004
ENDCHAR
STARTCHAR 04CF
ENCODING 1231
SWIDTH 250 0
DWIDTH 6 0
BBX 2 17 2 0
BITMAP
C0
C0
C0
C0
C0
C0
C0
C0
C0
C0
C0
C0
C0
C0
C0
C0
C0
ENDCHAR
STARTCHAR 04D0
ENCODING 1232
SWIDTH 625 0
DWIDTH 15 0
BBX 15 23 0 0
BITMAP
0C30
0E70
07E0
03C0
0000
0000
0380
0380
0380
06C0
06C0
0EE0
0C60
0C60
1830
1830
3830
3FF8
3FF8
600C
600C
600C
C006
ENDCHAR
STARTCHAR 04D1
ENCODING 1233
SWIDTH 541 0
DWIDTH 13 0
BBX 10 19 1 0
BITMAP
30C0
39C0
1F80
0F00
0000
0000
7F00
7F80
01C0
00C0
00C0
3FC0
7FC0
E0C0
C0C0
C0C0
E0C0
7FC0
3FC0
ENDCHAR
STARTCHAR 04D2
ENCODING 1234
SWIDTH 625 0
DWIDTH 15 0
BBX 15 22 0 0
BITMAP
0E70
0E70
0E70
0000
0000
0380
0380
0380
06C0
06C0
0EE0
0C60
0C60
1830
1830
3830
3FF8
3FF8
600C
600C
600C
C006
ENDCHAR
STARTCHAR 04D3
ENCODING 1235
SWIDTH 541 0
DWIDTH 13 0
BBX 10 18 1 0
BITMAP
39C0
39C0
39C0
0000
0000
7F00
7F80
01C0
00C0
00C0
3FC0
7FC0
E0C0
C0C0
C0C0
E0C0
7FC0
3FC0
ENDCHAR
STARTCHAR 04D4
ENCODING 1236
SWIDTH 916 0
DWIDTH 22 0
BBX 21 17 0 0
BITMAP
003FF0
007FF0
00F800
00D800
019800
019800
031800
031FF0
061FF0
0C1800
0C1800
1FF800
1FF800
301800
701800
601FF8
C01FF8
ENDCHAR
STARTCHAR 04D5
ENCODING 1237
SWIDTH 875 0
DWIDTH 21 0
BBX 19 13 1 0
BITMAP
7E1F00
7FBFC0
01F0C0
00E060
00C060
3FFFE0
7FFFE0
E0C000
C0C000
C0E000
E0F040
7FFFC0
3F1F80
ENDCHAR
STARTCHAR 04D6
ENCODING 1238
SWIDTH 583 0
DWIDTH 14 0
BBX 11 23 2 0
BITMAP
6180
7380
3F00
1E00
0000
0000
FFC0
FFC0
C000
C000
C000
C000
C000
FFC0
FFC0
C000
C000
C000
C000
C000
C000
FFE0
FFE0
ENDCHAR
STARTCHAR 04D7
ENCODING 1239
SWIDTH 541 0
DWIDTH 13 0
BBX 11 19 1 0
BITMAP
30C0
39C0
1F80
0F00
0000
0000
1F00
3FC0
70C0
6060
C060
FFE0
FFE0
C000
C000
E000
7040
3FC0
1F80
ENDCHAR
STARTCHAR 04D8
ENCODING 1240
SWIDTH 708 0
DWIDTH 17 0
BBX 15 17 1 0
BITMAP
1FC0
7FF0
6078
001C
000C
0006
0006
0006
FFFE
FFFE
C006
C006
E00C
601C
7838
3FF0
0FC0
ENDCHAR
STARTCHAR 04D9
ENCODING 1241
SWIDTH 541 0
DWIDTH 13 0
BBX 11 13 1 0
BITMAP
3F00
7F80
41C0
00C0
0060
0060
FFE0
FFE0
C060
C0C0
61C0
7F80
1F00
ENDCHAR
STARTCHAR 04DA
ENCODING 1242
SWIDTH 708 0
DWIDTH 17 0
BBX 15 22 1 0
BITMAP
0E70
0E70
0E70
0000
0000
1FC0
7FF0
6078
001C
000C
0006
0006
0006
FFFE
FFFE
C006
C006
E00C
601C
7838
3FF0
0FC0
ENDCHAR
STARTCHAR 04DB
ENCODING 1243
SWIDTH 541 0
DWIDTH 13 0
BBX 11 18 1 0
BITMAP
39C0
39C0
39C0
0000
0000
3F00
7F80
41C0
00C0
0060
0060
FFE0
FFE0
C060
C0C0
61C0
7F80
1F00
ENDCHAR
STARTCHAR 04DC
ENCODING 1244
SWIDTH 916 0
DWIDTH 22 0
BBX 20 22 1 0
BITMAP
039C00
039C00
039C00
000000
000000
E06070
7060E0
3861C0
186180
0C6300
066600
036C00
01F800
036C00
066600
0C6300
1C6380
186180
3060C0
7060E0
606060
E06070
ENDCHAR
STARTCHAR 04DD
ENCODING 1245
SWIDTH 750 0
DWIDTH 18 0
BBX 18 18 0 0
BITMAP
039C00
039C00
039C00
000000
000000
70C380
38C700
18CE00
0CCC00
06D800
03F000
06D800
0CCC00
18C600
38C700
30C300
60C180
E0C1C0
ENDCHAR
STARTCHAR 04DE
ENCODING 1246
SWIDTH 583 0
DWIDTH 14 0
BBX 12 22 1 0
BITMAP
39C0
39C0
39C0
0000
0000
3F00
7FC0
20E0
0060
0060
0060
01C0
1F80
1FC0
00E0
0030
0030
0030
0030
C0E0
FFE0
3F80
ENDCHAR
STARTCHAR 04DF
ENCODING 1247
SWIDTH 500 0
DWIDTH 12 0
BBX 10 18 1 0
BITMAP
7380
7380
7380
0000
0000
7F00
FF80
81C0
00C0
01C0
3F80
3F80
01C0
00C0
00C0
81C0
FF80
7F00
ENDCHAR
STARTCHAR 04E0
ENCODING 1248
SWIDTH 583 0
DWIDTH 14 0
BBX 12 17 1 0
BITMAP
7FF0
7FF0
0060
00C0
0180
0300
0600
0F80
0FC0
00E0
0070
0030
0030
0030
C0E0
FFE0
3F80
ENDCHAR
STARTCHAR 04E1
ENCODING 1249
SWIDTH 458 0
DWIDTH 11 0
BBX 10 17 0 -4
BITMAP
7F80
7F80
0300
0700
0600
0C00
1C00
1E00
1F80
03C0
00C0
00C0
00C0
00C0
8380
FF80
7E00
ENDCHAR
STARTCHAR 04E2
ENCODING 1250
SWIDTH 708 0
DWIDTH 17 0
BBX 13 21 2 0
BITMAP
1FC0
1FC0
0000
0000
C018
C038
C078
C078
C0D8
C1D8
C198
C318
C618
CE18
CC18
D818
F018
F018
E018
C018
8018
ENDCHAR
STARTCHAR 04E3
ENCODING 1251
SWIDTH 583 0
DWIDTH 14 0
BBX 10 17 2 0
BITMAP
3F80
3F80
0000
0000
C0C0
C1C0
C3C0
C7C0
C6C0
CCC0
CCC0
D8C0
D8C0
F0C0
E0C0
E0C0
C0C0
ENDCHAR
STARTCHAR 04E4
ENCODING 1252
SWIDTH 708 0
DWIDTH 17 0
BBX 13 22 2 0
BITMAP
1CE0
1CE0
1CE0
0000
0000
C018
C038
C078
C078
C0D8
C1D8
C198
C318
C618
CE18
CC18
D818
F018
F018
E018
C018
8018
ENDCHAR
STARTCHAR 04E5
ENCODING 1253
SWIDTH 583 0
DWIDTH 14 0
BBX 10 18 2 0
BITMAP
39C0
39C0
39C0
0000
0000
C0C0
C1C0
C3C0
C7C0
C6C0
CCC0
CCC0
D8C0
D8C0
F0C0
E0C0
E0C0
C0C0
ENDCHAR
STARTCHAR 04E6
ENCODING 1254
SWIDTH 750 0
DWIDTH 18 0
BBX 16 22 1 0
BITMAP
0738
0738
0738
0000
0000
07E0
1FF8
381C
700E
6006
E007
C003
C003
C003
C003
C003
E007
6006
700E
381C
1FF8
07E0
ENDCHAR
STARTCHAR 04E7
ENCODING 1255
SWIDTH 583 0
DWIDTH 14 0
BBX 12 18 1 0
BITMAP
1CE0
1CE0
1CE0
0000
0000
0F00
3FC0
70E0
6060
C030
C030
C030
C030
C030
6060
70E0
3FC0
0F00
ENDCHAR
STARTCHAR 04E8
ENCODING 1256
SWIDTH 750 0
DWIDTH 18 0
BBX 16 17 1 0
BITMAP
07E0
1FF8
381C
700E
6006
C003
C003
FFFF
FFFF
C003
C003
E007
6006
700E
381C
1FF8
07E0
ENDCHAR
STARTCHAR 04E9
ENCODING 1257
SWIDTH 583 0
DWIDTH 14 0
BBX 12 13 1 0
BITMAP
0F00
3FC0
70E0
6060
C030
FFF0
FFF0
C030
C030
6060
70E0
3FC0
0F00
ENDCHAR
STARTCHAR 04EA
ENCODING 1258
SWIDTH 750 0
DWIDTH 18 0
BBX 16 22 1 0
BITMAP
0738
0738
0738
0000
0000
07E0
1FF8
381C
700E
6006
C003
C003
FFFF
FFFF
C003
C003
E007
6006
700E
381C
1FF8
07E0
ENDCHAR
STARTCHAR 04EB
ENCODING 1259
SWIDTH 583 0
DWIDTH 14 0
BBX 12 18 1 0
BITMAP
1CE0
1CE0
1CE0
0000
0000
0F00
3FC0
70E0
6060
C030
FFF0
FFF0
C030
C030
6060
70E0
3FC0
0F00
ENDCHAR
STARTCHAR 04EC
ENCODING 1260
SWIDTH 625 0
DWIDTH 15 0
BBX 13 22 1 0
BITMAP
7380
7380
7380
0000
0000
7F00
FFC0
C0E0
0070
0030
0018
0018
1FF8
1FF8
0018
0018
0038
0030
0070
C0E0
FFC0
7F00
ENDCHAR
STARTCHAR 04ED
ENCODING 1261
SWIDTH 500 0
DWIDTH 12 0
BBX 10 18 1 0
BITMAP
E700
E700
E700
0000
0000
FC00
FF00
8380
0180
00C0
1FC0
1FC0
00C0
00C0
0180
0380
FF00
FE00
ENDCHAR
STARTCHAR 04EE
ENCODING 1262
SWIDTH 583 0
DWIDTH 14 0
BBX 14 21 0 0
BITMAP
0FE0
0FE0
0000
0000
C00C
6018
6018
3038
3830
1830
1C60
0C60
0660
06C0
03C0
0380
0180
0300
0700
7E00
7C00
ENDCHAR
STARTCHAR 04EF
ENCODING 1263
SWIDTH 458 0
DWIDTH 11 0
BBX 11 21 0 -4
BITMAP
1FC0
1FC0
0000
0000
C060
60C0
60C0
60C0
7180
3180
3180
3B00
1B00
1B00
1E00
0E00
0E00
0C00
1C00
F800
F000
ENDCHAR
STARTCHAR 04F0
ENCODING 1264
SWIDTH 583 0
DWIDTH 14 0
BBX 14 22 0 0
BITMAP
0E70
0E70
0E70
0000
0000
C00C
6018
6018
3038
3830
1830
1C60
0C60
0660
06C0
03C0
0380
0180
0300
0700
7E00
7C00
ENDCHAR
STARTCHAR 04F1
ENCODING 1265
SWIDTH 458 0
DWIDTH 11 0
BBX 11 22 0 -4
BITMAP
1CE0
1CE0
1CE0
0000
0000
C060
60C0
60C0
60C0
7180
3180
3180
3B00
1B00
1B00
1E00
0E00
0E00
0C00
1C00
F800
F000
ENDCHAR
STARTCHAR 04F2
ENCODING 1266
SWIDTH 583 0
DWIDTH 14 0
BBX 14 23 0 0
BITMAP
0220
0330
0660
0CC0
0440
0000
C00C
6018
6018
3038
3830
1830
1C60
0C60
0660
06C0
03C0
0380
0180
0300
0700
7E00
7C00
ENDCHAR
STARTCHAR 04F3
ENCODING 1267
SWIDTH 458 0
DWIDTH 11 0
BBX 11 23 0 -4
BITMAP
0440
0660
0CC0
1980
0880
0000
C060
60C0
60C0
60C0
7180
3180
3180
3B00
1B00
1B00
1E00
0E00
0E00
0C00
1C00
F800
F000
ENDCHAR
STARTCHAR 04F4
ENCODING 1268
SWIDTH 625 0
DWIDTH 15 0
BBX 12 22 1 0
BITMAP
1CE0
1CE0
1CE0
0000
0000
C030
C030
C030
C030
C030
C030
C030
E030
7030
7FF0
1FF0
0030
0030
0030
0030
0030
0030
ENDCHAR
STARTCHAR 04F5
ENCODING 1269
SWIDTH 541 0
DWIDTH 13 0
BBX 9 18 2 0
BITMAP
E700
E700
E700
0000
0000
C180
C180
C180
C180
C180
E180
7F80
3F80
0180
0180
0180
0180
0180
ENDCHAR
STARTCHAR 04F6
ENCODING 1270
SWIDTH 500 0
DWIDTH 12 0
BBX 10 21 2 -4
BITMAP
FFC0
FFC0
C000
C000
C000
C000
C000
C000
C000
C000
C000
C000
C000
C000
C000
F000
F000
3000
3000
3000
3000
ENDCHAR
STARTCHAR 04F7
ENCODING 1271
SWIDTH 416 0
DWIDTH 10 0
BBX 8 16 2 -3
BITMAP
FF
FF
C0
C0
C0
C0
C0
C0
C0
C0
C0
F0
F0
30
30
30
ENDCHAR
STARTCHAR 04F8
ENCODING 1272
SWIDTH 875 0
DWIDTH 21 0
BBX 17 22 2 0
BITMAP
073800
073800
073800
000000
000000
C00180
C00180
C00180
C00180
C00180
C00180
FE0180
FF8180
C1C180
C0E180
C06180
C06180
C06180
C0E180
C1C180
FF8180
FE0180
ENDCHAR
STARTCHAR 04F9
ENCODING 1273
SWIDTH 750 0
DWIDTH 18 0
BBX 14 18 2 0
BITMAP
0E70
0E70
0E70
0000
0000
C00C
C00C
C00C
C00C
C00C
FF0C
FF8C
C1CC
C0CC
C0CC
C1CC
FF8C
FF0C
ENDCHAR
STARTCHAR 1E80
ENCODING 7808
SWIDTH 958 0
DWIDTH 23 0
BBX 21 23 1 0
BITMAP
008000
01C000
00E000
007000
002000
000000
C00018
C00018
E03038
607030
607030
605830
60D870
70D870
30DC60
318C60
318C60
3B8EE0
1B06C0
1B06C0
1E07C0
0E0380
0E0380
ENDCHAR
STARTCHAR 1E81
ENCODING 7809
SWIDTH 791 0
DWIDTH 19 0
BBX 19 19 0 0
BITMAP
010000
038000
01C000
00E000
004000
000000
C04060
C0E0E0
60E0C0
60E0C0
61B0C0
31B180
31B180
33B980
1B1B00
1B1B00
1F1F00
0E0E00
0E0E00
ENDCHAR
STARTCHAR 1E82
ENCODING 7810
SWIDTH 958 0
DWIDTH 23 0
BBX 21 23 1 0
BITMAP
000800
001C00
003800
007000
002000
000000
C00018
C00018
E03038
607030
607030
605830
60D870
70D870
30DC60
318C60
318C60
3B8EE0
1B06C0
1B06C0
1E07C0
0E0380
0E0380
ENDCHAR
STARTCHAR 1E83
ENCODING 7811
SWIDTH 791 0
DWIDTH 19 0
BBX 19 19 0 0
BITMAP
001000
003800
007000
00E000
004000
000000
C04060
C0E0E0
60E0C0
60E0C0
61B0C0
31B180
31B180
33B980
1B1B00
1B1B00
1F1F00
0E0E00
0E0E00
ENDCHAR
STARTCHAR 1E84
ENCODING 7812
SWIDTH 958 0
DWIDTH 23 0
BBX 21 22 1 0
BITMAP
039C00
039C00
039C00
000000
000000
C00018
C00018
E03038
607030
607030
605830
60D870
70D870
30DC60
318C60
318C60
3B8EE0
1B06C0
1B06C0
1E07C0
0E0380
0E0380
ENDCHAR
STARTCHAR 1E85
ENCODING 7813
SWIDTH 791 0
DWIDTH 19 0
BBX 19 18 0 0
BITMAP
073800
073800
073800
000000
000000
C04060
C0E0E0
60E0C0
60E0C0
61B0C0
31B180
31B180
33B980
1B1B00
1B1B00
1F1F00
0E0E00
0E0E00
ENDCHAR
STARTCHAR 1EF2
ENCODING 7922
SWIDTH 583 0
DWIDTH 14 0
BBX 14 23 0 0
BITMAP
0400
0E00
0700
0380
0100
0000
C00C
6018
7038
3030
1860
1860
0CC0
0FC0
0780
0300
0300
0300
0300
0300
0300
0300
0300
ENDCHAR
STARTCHAR 1EF3
ENCODING 7923
SWIDTH 458 0
DWIDTH 11 0
BBX 11 24 0 -4
BITMAP
0800
1C00
0E00
0700
0200
0000
0000
C060
60C0
60C0
60C0
7180
3180
3180
3B00
1B00
1B00
1E00
0E00
0E00
0C00
1C00
F800
F000
ENDCHAR
STARTCHAR 1F00
ENCODING 7936
SWIDTH 625 0
DWIDTH 15 0
BBX 14 19 1 0
BITMAP
0300
0300
0100
0200
0400
0000
0FE0
3FF0
7830
6030
C030
C030
C030
C030
C030
6030
7070
3FFC
0F8C
ENDCHAR
STARTCHAR 1F01
ENCODING 7937
SWIDTH 625 0
DWIDTH 15 0
BBX 14 19 1 0
BITMAP
0600
0600
0400
0200
0100
0000
0FE0
3FF0
7830
6030
C030
C030
C030
C030
C030
6030
7070
3FFC
0F8C
ENDCHAR
STARTCHAR 1F02
ENCODING 7938
SWIDTH 625 0
DWIDTH 15 0
BBX 14 19 1 0
BITMAP
1C80
1D80
1CC0
38C0
3060
0000
0FE0
3FF0
7830
6030
C030
C030
C030
C030
C030
6030
7070
3FFC
0F8C
ENDCHAR
STARTCHAR 1F03
ENCODING 7939
SWIDTH 625 0
DWIDTH 15 0
BBX 14 19 1 0
BITMAP
3900
3B80
3980
18C0
0C40
0000
0FE0
3FF0
7830
6030
C030
C030
C030
C030
C030
6030
7070
3FFC
0F8C
ENDCHAR
STARTCHAR 1F04
ENCODING 7940
SWIDTH 625 0
DWIDTH 15 0
BBX 14 19 1 0
BITMAP
0E20
0E70
0E60
1CC0
1880
0000
0FE0
3FF0
7830
6030
C030
C030
C030
C030
C030
6030
7070
3FFC
0F8C
ENDCHAR
STARTCHAR 1F05
ENCODING 7941
SWIDTH 625 0
DWIDTH 15 0
BBX 14 19 1 0
BITMAP
3840
38E0
38C0
1980
0D00
0000
0FE0
3FF0
7830
6030
C030
C030
C030
C030
C030
6030
7070
3FFC
0F8C
ENDCHAR
STARTCHAR 1F06
ENCODING 7942
SWIDTH 625 0
DWIDTH 15 0
BBX 14 22 1 0
BITMAP
0780
0FC0
0840
0000
0300
0300
0300
0400
0000
0FE0
3FF0
7830
6030
C030
C030
C030
C030
C030
6030
7070
3FFC
0F8C
ENDCHAR
STARTCHAR 1F07
ENCODING 7943
SWIDTH 625 0
DWIDTH 15 0
BBX 14 22 1 0
BITMAP
0780
0FC0
0840
0000
0300
0300
0300
0080
0000
0FE0
3FF0
7830
6030
C030
C030
C030
C030
C030
6030
7070
3FFC
0F8C
ENDCHAR
STARTCHAR 1F08
ENCODING 7944
SWIDTH 625 0
DWIDTH 15 0
BBX 16 17 -1 0
BITMAP
61C0
61C0
21C0
4360
8360
0770
0630
0630
0C18
0C18
1C18
1FFC
1FFC
3006
3006
3006
6003
ENDCHAR
STARTCHAR 1F09
ENCODING 7945
SWIDTH 625 0
DWIDTH 15 0
BBX 15 17 0 0
BITMAP
6380
6380
4380
26C0
16C0
0EE0
0C60
0C60
1830
1830
3830
3FF8
3FF8
600C
600C
600C
C006
ENDCHAR
STARTCHAR 1F0A
ENCODING 7946
SWIDTH 833 0
DWIDTH 20 0
BBX 19 17 -1 0
BITMAP
723800
763800
733800
E36C00
C1EC00
00EE00
00C600
00C600
018300
018300
038300
03FF80
03FF80
0600C0
0600C0
0600C0
0C0060
ENDCHAR
STARTCHAR 1F0B
ENCODING 7947
SWIDTH 708 0
DWIDTH 17 0
BBX 20 17 -3 0
BITMAP
E41C00
EE1C00
E61C00
633600
313600
007700
006300
006300
00C180
00C180
01C180
01FFC0
01FFC0
030060
030060
030060
060030
ENDCHAR
STARTCHAR 1F0C
ENCODING 7948
SWIDTH 708 0
DWIDTH 17 0
BBX 18 17 -2 0
BITMAP
717000
73F000
737000
E6D800
C4D800
01DC00
018C00
018C00
030600
030600
070600
07FF00
07FF00
0C0180
0C0180
0C0180
1800C0
ENDCHAR
STARTCHAR 1F0D
ENCODING 7949
SWIDTH 750 0
DWIDTH 18 0
BBX 18 17 -1 0
BITMAP
E17000
E3F000
E37000
66D800
34D800
01DC00
018C00
018C00
030600
030600
070600
07FF00
07FF00
0C0180
0C0180
0C0180
1800C0
ENDCHAR
STARTCHAR 1F0E
ENCODING 7950
SWIDTH 625 0
DWIDTH 15 0
BBX 16 19 -1 0
BITMAP
7800
FC00
85C0
01C0
31C0
3360
3360
4770
0630
0630
0C18
0C18
1C18
1FFC
1FFC
3006
3006
3006
6003
ENDCHAR
STARTCHAR 1F0F
ENCODING 7951
SWIDTH 666 0
DWIDTH 16 0
BBX 15 19 0 0
BITMAP
7800
FC00
8780
0380
3380
36C0
36C0
0EE0
0C60
0C60
1830
1830
3830
3FF8
3FF8
600C
600C
600C
C006
ENDCHAR
STARTCHAR 1F10
ENCODING 7952
SWIDTH 500 0
DWIDTH 12 0
BBX 10 19 1 0
BITMAP
0600
0600
0200
0400
0800
0000
3F80
7F80
E080
C000
E000
7E00
7E00
C000
C000
C000
E0C0
7FC0
3F80
ENDCHAR
STARTCHAR 1F11
ENCODING 7953
SWIDTH 500 0
DWIDTH 12 0
BBX 10 19 1 0
BITMAP
1800
1800
1000
0800
0400
0000
3F80
7F80
E080
C000
E000
7E00
7E00
C000
C000
C000
E0C0
7FC0
3F80
ENDCHAR
STARTCHAR 1F12
ENCODING 7954
SWIDTH 500 0
DWIDTH 12 0
BBX 10 19 1 0
BITMAP
3900
3B00
3980
7180
60C0
0000
3F80
7F80
E080
C000
E000
7E00
7E00
C000
C000
C000
E0C0
7FC0
3F80
ENDCHAR
STARTCHAR 1F13
ENCODING 7955
SWIDTH 500 0
DWIDTH 12 0
BBX 10 19 1 0
BITMAP
E400
EE00
E600
6300
3100
0000
3F80
7F80
E080
C000
E000
7E00
7E00
C000
C000
C000
E0C0
7FC0
3F80
ENDCHAR
STARTCHAR 1F14
ENCODING 7956
SWIDTH 500 0
DWIDTH 12 0
BBX 11 19 1 0
BITMAP
1C40
1CE0
1CC0
3980
3100
0000
3F80
7F80
E080
C000
E000
7E00
7E00
C000
C000
C000
E0C0
7FC0
3F80
ENDCHAR
STARTCHAR 1F15
ENCODING 7957
SWIDTH 500 0
DWIDTH 12 0
BBX 10 19 1 0
BITMAP
7080
71C0
7180
3300
1A00
0000
3F80
7F80
E080
C000
E000
7E00
7E00
C000
C000
C000
E0C0
7FC0
3F80
ENDCHAR
STARTCHAR 1F18
ENCODING 7960
SWIDTH 625 0
DWIDTH 15 0
BBX 17 17 -2 0
BITMAP
63FF00
63FF00
230000
430000
830000
030000
030000
03FF00
03FF00
030000
030000
030000
030000
030000
030000
03FF80
03FF80
ENDCHAR
STARTCHAR 1F19
ENCODING 7961
SWIDTH 625 0
DWIDTH 15 0
BBX 15 17 0 0
BITMAP
CFFC
CFFC
8C00
4C00
2C00
0C00
0C00
0FFC
0FFC
0C00
0C00
0C00
0C00
0C00
0C00
0FFE
0FFE
ENDCHAR
STARTCHAR 1F1A
ENCODING 7962
SWIDTH 833 0
DWIDTH 20 0
BBX 20 17 -1 0
BITMAP
727FE0
767FE0
736000
E36000
C1E000
006000
006000
007FE0
007FE0
006000
006000
006000
006000
006000
006000
007FF0
007FF0
ENDCHAR
STARTCHAR 1F1B
ENCODING 7963
SWIDTH 791 0
DWIDTH 19 0
BBX 20 17 -1 0
BITMAP
E47FE0
EE7FE0
E66000
636000
316000
006000
006000
007FE0
007FE0
006000
006000
006000
006000
006000
006000
007FF0
007FF0
ENDCHAR
STARTCHAR 1F1C
ENCODING 7964
SWIDTH 791 0
DWIDTH 19 0
BBX 21 17 -2 0
BITMAP
713FF0
73BFF0
733000
E63000
C43000
003000
003000
003FF0
003FF0
003000
003000
003000
003000
003000
003000
003FF8
003FF8
ENDCHAR
STARTCHAR 1F1D
ENCODING 7965
SWIDTH 833 0
DWIDTH 20 0
BBX 20 17 -1 0
BITMAP
E17FE0
E3FFE0
E36000
666000
346000
006000
006000
007FE0
007FE0
006000
006000
006000
006000
006000
006000
007FF0
007FF0
ENDCHAR
STARTCHAR 1F20
ENCODING 7968
SWIDTH 583 0
DWIDTH 14 0
BBX 10 23 2 -4
BITMAP
0600
0600
0200
0400
0800
0000
7F00
FF80
C180
C0C0
C0C0
C0C0
C0C0
C0C0
C0C0
C0C0
C0C0
C0C0
C0C0
00C0
00C0
00C0
00C0
ENDCHAR
STARTCHAR 1F21
ENCODING 7969
SWIDTH 583 0
DWIDTH 14 0
BBX 10 23 2 -4
BITMAP
1800
1800
1000
0800
0400
0000
7F00
FF80
C180
C0C0
C0C0
C0C0
C0C0
C0C0
C0C0
C0C0
C0C0
C0C0
C0C0
00C0
00C0
00C0
00C0
ENDCHAR
STARTCHAR 1F22
ENCODING 7970
SWIDTH 583 0
DWIDTH 14 0
BBX 10 23 2 -4
BITMAP
3900
3B00
3980
7180
60C0
0000
7F00
FF80
C180
C0C0
C0C0
C0C0
C0C0
C0C0
C0C0
C0C0
C0C0
C0C0
C0C0
00C0
00C0
00C0
00C0
ENDCHAR
STARTCHAR 1F23
ENCODING 7971
SWIDTH 583 0
DWIDTH 14 0
BBX 10 23 2 -4
BITMAP
E400
EE00
E600
6300
3100
0000
7F00
FF80
C180
C0C0
C0C0
C0C0
C0C0
C0C0
C0C0
C0C0
C0C0
C0C0
C0C0
00C0
00C0
00C0
00C0
ENDCHAR
STARTCHAR 1F24
ENCODING 7972
SWIDTH 583 0
DWIDTH 14 0
BBX 11 23 2 -4
BITMAP
1C40
1CE0
1CC0
3980
3100
0000
7F00
FF80
C180
C0C0
C0C0
C0C0
C0C0
C0C0
C0C0
C0C0
C0C0
C0C0
C0C0
00C0
00C0
00C0
00C0
ENDCHAR
STARTCHAR 1F25
ENCODING 7973
SWIDTH 583 0
DWIDTH 14 0
BBX 10 23 2 -4
BITMAP
7080
71C0
7180
3300
1A00
0000
7F00
FF80
C180
C0C0
C0C0
C0C0
C0C0
C0C0
C0C0
C0C0
C0C0
C0C0
C0C0
00C0
00C0
00C0
00C0
ENDCHAR
STARTCHAR 1F26
ENCODING 7974
SWIDTH 583 0
DWIDTH 14 0
BBX 10 26 2 -4
BITMAP
1E00
3F00
2100
0000
0C00
0C00
0C00
1000
0000
7F00
FF80
C180
C0C0
C0C0
C0C0
C0C0
C0C0
C0C0
C0C0
C0C0
C0C0
C0C0
00C0
00C0
00C0
00C0
ENDCHAR
STARTCHAR 1F27
ENCODING 7975
SWIDTH 583 0
DWIDTH 14 0
BBX 10 26 2 -4
BITMAP
1E00
3F00
2100
0000
0C00
0C00
0C00
0200
0000
7F00
FF80
C180
C0C0
C0C0
C0C0
C0C0
C0C0
C0C0
C0C0
C0C0
C0C0
C0C0
00C0
00C0
00C0
00C0
ENDCHAR
STARTCHAR 1F28
ENCODING 7976
SWIDTH 750 0
DWIDTH 18 0
BBX 19 17 -2 0
BITMAP
630060
630060
230060
430060
830060
030060
030060
03FFE0
03FFE0
030060
030060
030060
030060
030060
030060
030060
030060
ENDCHAR
STARTCHAR 1F29
ENCODING 7977
SWIDTH 750 0
DWIDTH 18 0
BBX 17 17 0 0
BITMAP
CC0180
CC0180
8C0180
4C0180
2C0180
0C0180
0C0180
0FFF80
0FFF80
0C0180
0C0180
0C0180
0C0180
0C0180
0C0180
0C0180
0C0180
ENDCHAR
STARTCHAR 1F2A
ENCODING 7978
SWIDTH 958 0
DWIDTH 23 0
BBX 22 17 -1 0
BITMAP
72600C
76600C
73600C
E3600C
C1E00C
00600C
00600C
007FFC
007FFC
00600C
00600C
00600C
00600C
00600C
00600C
00600C
00600C
ENDCHAR
STARTCHAR 1F2B
ENCODING 7979
SWIDTH 958 0
DWIDTH 23 0
BBX 22 17 -1 0
BITMAP
E4600C
EE600C
E6600C
63600C
31600C
00600C
00600C
007FFC
007FFC
00600C
00600C
00600C
00600C
00600C
00600C
00600C
00600C
ENDCHAR
STARTCHAR 1F2C
ENCODING 7980
SWIDTH 916 0
DWIDTH 22 0
BBX 23 17 -2 0
BITMAP
713006
73B006
733006
E63006
C43006
003006
003006
003FFE
003FFE
003006
003006
003006
003006
003006
003006
003006
003006
ENDCHAR
STARTCHAR 1F2D
ENCODING 7981
SWIDTH 958 0
DWIDTH 23 0
BBX 22 17 -1 0
BITMAP
E1600C
E3E00C
E3600C
66600C
34600C
00600C
00600C
007FFC
007FFC
00600C
00600C
00600C
00600C
00600C
00600C
00600C
00600C
ENDCHAR
STARTCHAR 1F2E
ENCODING 7982
SWIDTH 875 0
DWIDTH 21 0
BBX 20 19 -1 0
BITMAP
780000
FC0000
858030
018030
318030
318030
318030
418030
018030
01FFF0
01FFF0
018030
018030
018030
018030
018030
018030
018030
018030
ENDCHAR
STARTCHAR 1F2F
ENCODING 7983
SWIDTH 875 0
DWIDTH 21 0
BBX 19 19 0 0
BITMAP
780000
FC0000
870060
030060
330060
330060
330060
0B0060
030060
03FFE0
03FFE0
030060
030060
030060
030060
030060
030060
030060
030060
ENDCHAR
STARTCHAR 1F30
ENCODING 7984
SWIDTH 291 0
DWIDTH 7 0
BBX 4 19 2 0
BITMAP
60
60
20
40
80
00
C0
C0
C0
C0
C0
C0
C0
C0
C0
C0
C0
F0
70
ENDCHAR
STARTCHAR 1F31
ENCODING 7985
SWIDTH 291 0
DWIDTH 7 0
BBX 5 19 1 0
BITMAP
C0
C0
80
40
20
00
60
60
60
60
60
60
60
60
60
60
60
78
38
ENDCHAR
STARTCHAR 1F32
ENCODING 7986
SWIDTH 291 0
DWIDTH 7 0
BBX 9 19 -1 0
BITMAP
7200
7600
7300
E300
C180
0000
1800
1800
1800
1800
1800
1800
1800
1800
1800
1800
1800
1E00
0E00
ENDCHAR
STARTCHAR 1F33
ENCODING 7987
SWIDTH 291 0
DWIDTH 7 0
BBX 8 19 -1 0
BITMAP
E4
EE
E6
63
31
00
18
18
18
18
18
18
18
18
18
18
18
1E
0E
ENDCHAR
STARTCHAR 1F34
ENCODING 7988
SWIDTH 291 0
DWIDTH 7 0
BBX 9 19 0 0
BITMAP
7100
7380
7300
E600
C400
0000
3000
3000
3000
3000
3000
3000
3000
3000
3000
3000
3000
3C00
1C00
ENDCHAR
STARTCHAR 1F35
ENCODING 7989
SWIDTH 291 0
DWIDTH 7 0
BBX 9 19 -1 0
BITMAP
E100
E380
E300
6600
3400
0000
1800
1800
1800
1800
1800
1800
1800
1800
1800
1800
1800
1E00
0E00
ENDCHAR
STARTCHAR 1F36
ENCODING 7990
SWIDTH 291 0
DWIDTH 7 0
BBX 6 22 0 0
BITMAP
78
FC
84
00
30
30
30
40
00
30
30
30
30
30
30
30
30
30
30
30
3C
1C
ENDCHAR
STARTCHAR 1F37
ENCODING 7991
SWIDTH 291 0
DWIDTH 7 0
BBX 6 22 0 0
BITMAP
78
FC
84
00
30
30
30
08
00
30
30
30
30
30
30
30
30
30
30
30
3C
1C
ENDCHAR
STARTCHAR 1F38
ENCODING 7992
SWIDTH 333 0
DWIDTH 8 0
BBX 8 17 -2 0
BITMAP
63
63
23
43
83
03
03
03
03
03
03
03
03
03
03
03
03
ENDCHAR
STARTCHAR 1F39
ENCODING 7993
SWIDTH 333 0
DWIDTH 8 0
BBX 6 17 0 0
BITMAP
CC
CC
8C
4C
2C
0C
0C
0C
0C
0C
0C
0C
0C
0C
0C
0C
0C
ENDCHAR
STARTCHAR 1F3A
ENCODING 7994
SWIDTH 541 0
DWIDTH 13 0
BBX 11 17 -1 0
BITMAP
6460
6C60
6660
C660
8360
0060
0060
0060
0060
0060
0060
0060
0060
0060
0060
0060
0060
ENDCHAR
STARTCHAR 1F3B
ENCODING 7995
SWIDTH 500 0
DWIDTH 12 0
BBX 10 17 0 0
BITMAP
C8C0
DCC0
CCC0
46C0
22C0
00C0
00C0
00C0
00C0
00C0
00C0
00C0
00C0
00C0
00C0
00C0
00C0
ENDCHAR
STARTCHAR 1F3C
ENCODING 7996
SWIDTH 500 0
DWIDTH 12 0
BBX 12 17 -2 0
BITMAP
6230
6730
6630
CC30
8830
0030
0030
0030
0030
0030
0030
0030
0030
0030
0030
0030
0030
ENDCHAR
STARTCHAR 1F3D
ENCODING 7997
SWIDTH 541 0
DWIDTH 13 0
BBX 10 17 0 0
BITMAP
C2C0
C7C0
C6C0
4CC0
28C0
00C0
00C0
00C0
00C0
00C0
00C0
00C0
00C0
00C0
00C0
00C0
00C0
ENDCHAR
STARTCHAR 1F3E
ENCODING 7998
SWIDTH 458 0
DWIDTH 11 0
BBX 9 19 -1 0
BITMAP
7800
FC00
8580
0180
3180
3180
3180
4180
0180
0180
0180
0180
0180
0180
0180
0180
0180
0180
0180
ENDCHAR
STARTCHAR 1F3F
ENCODING 7999
SWIDTH 458 0
DWIDTH 11 0
BBX 8 19 0 0
BITMAP
78
FC
87
03
33
33
33
0B
03
03
03
03
03
03
03
03
03
03
03
ENDCHAR
STARTCHAR 1F40
ENCODING 8000
SWIDTH 583 0
DWIDTH 14 0
BBX 12 19 1 0
BITMAP
0300
0300
0100
0200
0400
0000
0F00
3FC0
70E0
6060
C030
C030
C030
C030
C030
6060
70E0
3FC0
0F00
ENDCHAR
STARTCHAR 1F41
ENCODING 8001
SWIDTH 583 0
DWIDTH 14 0
BBX 12 19 1 0
BITMAP
0C00
0C00
0800
0400
0200
0000
0F00
3FC0
70E0
6060
C030
C030
C030
C030
C030
6060
70E0
3FC0
0F00
ENDCHAR
STARTCHAR 1F42
ENCODING 8002
SWIDTH 583 0
DWIDTH 14 0
BBX 12 19 1 0
BITMAP
1900
1B00
1980
3180
20C0
0000
0F00
3FC0
70E0
6060
C030
C030
C030
C030
C030
6060
70E0
3FC0
0F00
ENDCHAR
STARTCHAR 1F43
ENCODING 8003
SWIDTH 583 0
DWIDTH 14 0
BBX 12 19 1 0
BITMAP
3200
3700
3300
1180
0880
0000
0F00
3FC0
70E0
6060
C030
C030
C030
C030
C030
6060
70E0
3FC0
0F00
ENDCHAR
STARTCHAR 1F44
ENCODING 8004
SWIDTH 583 0
DWIDTH 14 0
BBX 12 19 1 0
BITMAP
0C40
0CE0
0CC0
1980
1100
0000
0F00
3FC0
70E0
6060
C030
C030
C030
C030
C030
6060
70E0
3FC0
0F00
ENDCHAR
STARTCHAR 1F45
ENCODING 8005
SWIDTH 583 0
DWIDTH 14 0
BBX 12 19 1 0
BITMAP
3080
31C0
3180
1300
0A00
0000
0F00
3FC0
70E0
6060
C030
C030
C030
C030
C030
6060
70E0
3FC0
0F00
ENDCHAR
STARTCHAR 1F48
ENCODING 8008
SWIDTH 791 0
DWIDTH 19 0
BBX 19 17 -2 0
BITMAP
60FC00
63FF00
270380
4E01C0
8C00C0
1C00E0
180060
180060
180060
180060
180060
1C00E0
0C00C0
0E01C0
070380
03FF00
00FC00
ENDCHAR
STARTCHAR 1F49
ENCODING 8009
SWIDTH 833 0
DWIDTH 20 0
BBX 18 17 0 0
BITMAP
C1F800
C7FE00
8E0700
5C0380
380180
3801C0
3000C0
3000C0
3000C0
3000C0
3000C0
3801C0
180180
1C0380
0E0700
07FE00
01F800
ENDCHAR
STARTCHAR 1F4A
ENCODING 8010
SWIDTH 1000 0
DWIDTH 24 0
BBX 24 17 -1 0
BITMAP
6407E0
6C1FF8
66381C
C6700E
836006
00E007
00C003
00C003
00C003
00C003
00C003
00E007
006006
00700E
00381C
001FF8
0007E0
ENDCHAR
STARTCHAR 1F4B
ENCODING 8011
SWIDTH 1000 0
DWIDTH 24 0
BBX 22 17 0 0
BITMAP
C81F80
DC7FE0
CCE070
47C038
238018
03801C
03000C
03000C
03000C
03000C
03000C
03801C
018018
01C038
00E070
007FE0
001F80
ENDCHAR
STARTCHAR 1F4C
ENCODING 8012
SWIDTH 958 0
DWIDTH 23 0
BBX 23 17 -2 0
BITMAP
620FC0
673FF0
667038
CCE01C
88C00C
01C00E
018006
018006
018006
018006
018006
01C00E
00C00C
00E01C
007038
003FF0
000FC0
ENDCHAR
STARTCHAR 1F4D
ENCODING 8013
SWIDTH 958 0
DWIDTH 23 0
BBX 22 17 0 0
BITMAP
C21F80
C77FE0
C6E070
4DC038
298018
03801C
03000C
03000C
03000C
03000C
03000C
03801C
018018
01C038
00E070
007FE0
001F80
ENDCHAR
STARTCHAR 1F50
ENCODING 8016
SWIDTH 583 0
DWIDTH 14 0
BBX 10 19 2 0
BITMAP
0600
0600
0200
0400
0800
0000
C0C0
C0C0
C0C0
C0C0
C0C0
C0C0
C0C0
C0C0
C0C0
C0C0
6180
7F80
3F00
ENDCHAR
STARTCHAR 1F51
ENCODING 8017
SWIDTH 583 0
DWIDTH 14 0
BBX 10 19 2 0
BITMAP
1800
1800
1000
0800
0400
0000
C0C0
C0C0
C0C0
C0C0
C0C0
C0C0
C0C0
C0C0
C0C0
C0C0
6180
7F80
3F00
ENDCHAR
STARTCHAR 1F52
ENCODING 8018
SWIDTH 583 0
DWIDTH 14 0
BBX 10 19 2 0
BITMAP
3900
3B00
3980
7180
60C0
0000
C0C0
C0C0
C0C0
C0C0
C0C0
C0C0
C0C0
C0C0
C0C0
C0C0
6180
7F80
3F00
ENDCHAR
STARTCHAR 1F53
ENCODING 8019
SWIDTH 583 0
DWIDTH 14 0
BBX 10 19 2 0
BITMAP
E400
EE00
E600
6300
3100
0000
C0C0
C0C0
C0C0
C0C0
C0C0
C0C0
C0C0
C0C0
C0C0
C0C0
6180
7F80
3F00
ENDCHAR
STARTCHAR 1F54
ENCODING 8020
SWIDTH 583 0
DWIDTH 14 0
BBX 11 19 2 0
BITMAP
1C40
1CE0
1CC0
3980
3100
0000
C0C0
C0C0
C0C0
C0C0
C0C0
C0C0
C0C0
C0C0
C0C0
C0C0
6180
7F80
3F00
ENDCHAR
STARTCHAR 1F55
ENCODING 8021
SWIDTH 583 0
DWIDTH 14 0
BBX 10 19 2 0
BITMAP
7080
71C0
7180
3300
1A00
0000
C0C0
C0C0
C0C0
C0C0
C0C0
C0C0
C0C0
C0C0
C0C0
C0C0
6180
7F80
3F00
ENDCHAR
STARTCHAR 1F56
ENCODING 8022
SWIDTH 583 0
DWIDTH 14 0
BBX 10 22 2 0
BITMAP
1E00
3F00
2100
0000
0C00
0C00
0C00
1000
0000
C0C0
C0C0
C0C0
C0C0
C0C0
C0C0
C0C0
C0C0
C0C0
C0C0
6180
7F80
3F00
ENDCHAR
STARTCHAR 1F57
ENCODING 8023
SWIDTH 583 0
DWIDTH 14 0
BBX 10 22 2 0
BITMAP
1E00
3F00
2100
0000
0C00
0C00
0C00
0200
0000
C0C0
C0C0
C0C0
C0C0
C0C0
C0C0
C0C0
C0C0
C0C0
C0C0
6180
7F80
3F00
ENDCHAR
STARTCHAR 1F59
ENCODING 8025
SWIDTH 708 0
DWIDTH 17 0
BBX 17 17 0 0
BITMAP
D80180
CC0300
8E0700
460600
230C00
030C00
019800
01F800
00F000
006000
006000
006000
006000
006000
006000
006000
006000
ENDCHAR
STARTCHAR 1F5B
ENCODING 8027
SWIDTH 875 0
DWIDTH 21 0
BBX 21 17 -1 0
BITMAP
E58018
EEC030
E6E070
636060
3130C0
0030C0
001980
001F80
000F00
000600
000600
000600
000600
000600
000600
000600
000600
ENDCHAR
STARTCHAR 1F5D
ENCODING 8029
SWIDTH 916 0
DWIDTH 22 0
BBX 23 17 -1 0
BITMAP
E16006
E3B00C
E3381C
661818
340C30
000C30
000660
0007E0
0003C0
000180
000180
000180
000180
000180
000180
000180
000180
ENDCHAR
STARTCHAR 1F5F
ENCODING 8031
SWIDTH 833 0
DWIDTH 20 0
BBX 20 19 0 0
BITMAP
780000
FC0000
870030
018060
31C0E0
30C0C0
306180
086180
003300
003F00
001E00
000C00
000C00
000C00
000C00
000C00
000C00
000C00
000C00
ENDCHAR
STARTCHAR 1F60
ENCODING 8032
SWIDTH 833 0
DWIDTH 20 0
BBX 18 19 1 0
BITMAP
006000
006000
002000
004000
008000
000000
300300
700380
600180
60C180
C0C0C0
C0C0C0
C0C0C0
C0C0C0
C0C0C0
E1C1C0
61E180
7FFF80
1E1E00
ENDCHAR
STARTCHAR 1F61
ENCODING 8033
SWIDTH 833 0
DWIDTH 20 0
BBX 18 19 1 0
BITMAP
018000
018000
010000
008000
004000
000000
300300
700380
600180
60C180
C0C0C0
C0C0C0
C0C0C0
C0C0C0
C0C0C0
E1C1C0
61E180
7FFF80
1E1E00
ENDCHAR
STARTCHAR 1F62
ENCODING 8034
SWIDTH 833 0
DWIDTH 20 0
BBX 18 19 1 0
BITMAP
039000
03B000
039800
071800
060C00
000000
300300
700380
600180
60C180
C0C0C0
C0C0C0
C0C0C0
C0C0C0
C0C0C0
E1C1C0
61E180
7FFF80
1E1E00
ENDCHAR
STARTCHAR 1F63
ENCODING 8035
SWIDTH 833 0
DWIDTH 20 0
BBX 18 19 1 0
BITMAP
0E4000
0EE000
0E6000
063000
031000
000000
300300
700380
600180
60C180
C0C0C0
C0C0C0
C0C0C0
C0C0C0
C0C0C0
E1C1C0
61E180
7FFF80
1E1E00
ENDCHAR
STARTCHAR 1F64
ENCODING 8036
SWIDTH 833 0
DWIDTH 20 0
BBX 18 19 1 0
BITMAP
01C400
01CE00
01CC00
039800
031000
000000
300300
700380
600180
60C180
C0C0C0
C0C0C0
C0C0C0
C0C0C0
C0C0C0
E1C1C0
61E180
7FFF80
1E1E00
ENDCHAR
STARTCHAR 1F65
ENCODING 8037
SWIDTH 833 0
DWIDTH 20 0
BBX 18 19 1 0
BITMAP
070800
071C00
071800
033000
01A000
000000
300300
700380
600180
60C180
C0C0C0
C0C0C0
C0C0C0
C0C0C0
C0C0C0
E1C1C0
61E180
7FFF80
1E1E00
ENDCHAR
STARTCHAR 1F66
ENCODING 8038
SWIDTH 833 0
DWIDTH 20 0
BBX 18 22 1 0
BITMAP
01E000
03F000
021000
000000
00C000
00C000
00C000
010000
000000
300300
700380
600180
60C180
C0C0C0
C0C0C0
C0C0C0
C0C0C0
C0C0C0
E1C1C0
61E180
7FFF80
1E1E00
ENDCHAR
STARTCHAR 1F67
ENCODING 8039
SWIDTH 833 0
DWIDTH 20 0
BBX 18 22 1 0
BITMAP
01E000
03F000
021000
000000
00C000
00C000
00C000
002000
000000
300300
700380
600180
60C180
C0C0C0
C0C0C0
C0C0C0
C0C0C0
C0C0C0
E1C1C0
61E180
7FFF80
1E1E00
ENDCHAR
STARTCHAR 1F68
ENCODING 8040
SWIDTH 791 0
DWIDTH 19 0
BBX 20 17 -2 0
BITMAP
60FE00
63FF80
2783C0
4E00E0
8C0060
180030
180030
180030
180030
180030
180030
0C0060
0E00E0
0601C0
038380
1FC7F0
1FC7F0
ENDCHAR
STARTCHAR 1F69
ENCODING 8041
SWIDTH 833 0
DWIDTH 20 0
BBX 19 17 0 0
BITMAP
C1FC00
C7FF00
8F0780
5C01C0
3800C0
300060
300060
300060
300060
300060
300060
1800C0
1C01C0
0C0380
070700
3F8FE0
3F8FE0
ENDCHAR
STARTCHAR 1F6A
ENCODING 8042
SWIDTH 1000 0
DWIDTH 24 0
BBX 25 17 -1 0
BITMAP
7207F000
761FFC00
733C1E00
E3700700
C1E00300
00C00180
00C00180
00C00180
00C00180
00C00180
00C00180
00600300
00700700
00300E00
001C1C00
00FE3F80
00FE3F80
ENDCHAR
STARTCHAR 1F6B
ENCODING 8043
SWIDTH 1000 0
DWIDTH 24 0
BBX 24 17 -1 0
BITMAP
E40FE0
EE3FF8
E6783C
63E00E
31C006
018003
018003
018003
018003
018003
018003
00C006
00E00E
00601C
003838
01FC7F
01FC7F
ENDCHAR
STARTCHAR 1F6C
ENCODING 8044
SWIDTH 958 0
DWIDTH 23 0
BBX 24 17 -2 0
BITMAP
710FE0
73BFF8
73783C
E6E00E
C4C006
018003
018003
018003
018003
018003
018003
00C006
00E00E
00601C
003838
01FC7F
01FC7F
ENDCHAR
STARTCHAR 1F6D
ENCODING 8045
SWIDTH 958 0
DWIDTH 23 0
BBX 23 17 -1 0
BITMAP
E11FC0
E3FFF0
E3F078
67C01C
35800C
030006
030006
030006
030006
030006
030006
01800C
01C01C
00C038
007070
03F8FE
03F8FE
ENDCHAR
STARTCHAR 1F6E
ENCODING 8046
SWIDTH 875 0
DWIDTH 21 0
BBX 21 19 -1 0
BITMAP
780000
FC0000
847F00
01FFC0
33C1E0
370070
360030
4C0018
0C0018
0C0018
0C0018
0C0018
0C0018
060030
070070
0300E0
01C1C0
0FE3F8
0FE3F8
ENDCHAR
STARTCHAR 1F6F
ENCODING 8047
SWIDTH 916 0
DWIDTH 22 0
BBX 21 19 0 0
BITMAP
780000
FC0000
847F00
01FFC0
33C1E0
370070
360030
0C0018
0C0018
0C0018
0C0018
0C0018
0C0018
060030
070070
0300E0
01C1C0
0FE3F8
0FE3F8
ENDCHAR
STARTCHAR 1F70
ENCODING 8048
SWIDTH 625 0
DWIDTH 15 0
BBX 14 19 1 0
BITMAP
0400
0E00
0700
0380
0080
0000
0FE0
3FF0
7830
6030
C030
C030
C030
C030
C030
6030
7070
3FFC
0F8C
ENDCHAR
STARTCHAR 1F71
ENCODING 8049
SWIDTH 625 0
DWIDTH 15 0
BBX 14 19 1 0
BITMAP
0080
01C0
0380
0700
0400
0000
0FE0
3FF0
7830
6030
C030
C030
C030
C030
C030
6030
7070
3FFC
0F8C
ENDCHAR
STARTCHAR 1F72
ENCODING 8050
SWIDTH 500 0
DWIDTH 12 0
BBX 10 19 1 0
BITMAP
1000
3800
1C00
0E00
0200
0000
3F80
7F80
E080
C000
E000
7E00
7E00
C000
C000
C000
E0C0
7FC0
3F80
ENDCHAR
STARTCHAR 1F73
ENCODING 8051
SWIDTH 500 0
DWIDTH 12 0
BBX 10 19 1 0
BITMAP
0200
0700
0E00
1C00
1000
0000
3F80
7F80
E080
C000
E000
7E00
7E00
C000
C000
C000
E0C0
7FC0
3F80
ENDCHAR
STARTCHAR 1F74
ENCODING 8052
SWIDTH 583 0
DWIDTH 14 0
BBX 10 23 2 -4
BITMAP
1000
3800
1C00
0E00
0200
0000
7F00
FF80
C180
C0C0
C0C0
C0C0
C0C0
C0C0
C0C0
C0C0
C0C0
C0C0
C0C0
00C0
00C0
00C0
00C0
ENDCHAR
STARTCHAR 1F75
ENCODING 8053
SWIDTH 583 0
DWIDTH 14 0
BBX 10 23 2 -4
BITMAP
0200
0700
0E00
1C00
1000
0000
7F00
FF80
C180
C0C0
C0C0
C0C0
C0C0
C0C0
C0C0
C0C0
C0C0
C0C0
C0C0
00C0
00C0
00C0
00C0
ENDCHAR
STARTCHAR 1F76
ENCODING 8054
SWIDTH 291 0
DWIDTH 7 0
BBX 6 19 0 0
BITMAP
40
E0
70
38
08
00
30
30
30
30
30
30
30
30
30
30
30
3C
1C
ENDCHAR
STARTCHAR 1F77
ENCODING 8055
SWIDTH 291 0
DWIDTH 7 0
BBX 5 19 1 0
BITMAP
10
38
70
E0
80
00
60
60
60
60
60
60
60
60
60
60
60
78
38
ENDCHAR
STARTCHAR 1F78
ENCODING 8056
SWIDTH 583 0
DWIDTH 14 0
BBX 12 19 1 0
BITMAP
0800
1C00
0E00
0700
0100
0000
0F00
3FC0
70E0
6060
C030
C030
C030
C030
C030
6060
70E0
3FC0
0F00
ENDCHAR
STARTCHAR 1F79
ENCODING 8057
SWIDTH 583 0
DWIDTH 14 0
BBX 12 19 1 0
BITMAP
0100
0380
0700
0E00
0800
0000
0F00
3FC0
70E0
6060
C030
C030
C030
C030
C030
6060
70E0
3FC0
0F00
ENDCHAR
STARTCHAR 1F7A
ENCODING 8058
SWIDTH 583 0
DWIDTH 14 0
BBX 10 19 2 0
BITMAP
1000
3800
1C00
0E00
0200
0000
C0C0
C0C0
C0C0
C0C0
C0C0
C0C0
C0C0
C0C0
C0C0
C0C0
6180
7F80
3F00
ENDCHAR
STARTCHAR 1F7B
ENCODING 8059
SWIDTH 583 0
DWIDTH 14 0
BBX 10 19 2 0
BITMAP
0200
0700
0E00
1C00
1000
0000
C0C0
C0C0
C0C0
C0C0
C0C0
C0C0
C0C0
C0C0
C0C0
C0C0
6180
7F80
3F00
ENDCHAR
STARTCHAR 1F7C
ENCODING 8060
SWIDTH 833 0
DWIDTH 20 0
BBX 18 19 1 0
BITMAP
010000
038000
01C000
00E000
002000
000000
300300
700380
600180
60C180
C0C0C0
C0C0C0
C0C0C0
C0C0C0
C0C0C0
E1C1C0
61E180
7FFF80
1E1E00
ENDCHAR
STARTCHAR 1F7D
ENCODING 8061
SWIDTH 833 0
DWIDTH 20 0
BBX 18 19 1 0
BITMAP
002000
007000
00E000
01C000
010000
000000
300300
700380
600180
60C180
C0C0C0
C0C0C0
C0C0C0
C0C0C0
C0C0C0
E1C1C0
61E180
7FFF80
1E1E00
ENDCHAR
STARTCHAR 1F80
ENCODING 8064
SWIDTH 625 0
DWIDTH 15 0
BBX 14 23 1 -4
BITMAP
0300
0300
0100
0200
0400
0000
0FE0
3FF0
7830
6030
C030
C030
C030
C030
C030
6030
7070
3FFC
0F8C
0000
0300
0300
01C0
ENDCHAR
STARTCHAR 1F81
ENCODING 8065
SWIDTH 625 0
DWIDTH 15 0
BBX 14 23 1 -4
BITMAP
0600
0600
0400
0200
0100
0000
0FE0
3FF0
7830
6030
C030
C030
C030
C030
C030
6030
7070
3FFC
0F8C
0000
0300
0300
01C0
ENDCHAR
STARTCHAR 1F82
ENCODING 8066
SWIDTH 625 0
DWIDTH 15 0
BBX 14 25 1 -6
BITMAP
0E40
0EC0
0E60
1C60
1830
0000
0FE0
3FF0
7830
6030
C030
C030
C030
C030
C030
6030
7070
3FFC
0F8C
0000
0000
0300
0300
03C0
01C0
ENDCHAR
STARTCHAR 1F83
ENCODING 8067
SWIDTH 625 0
DWIDTH 15 0
BBX 14 23 1 -4
BITMAP
3900
3B80
3980
18C0
0C40
0000
0FE0
3FF0
7830
6030
C030
C030
C030
C030
C030
6030
7070
3FFC
0F8C
0000
0300
0300
01C0
ENDCHAR
STARTCHAR 1F84
ENCODING 8068
SWIDTH 625 0
DWIDTH 15 0
BBX 14 23 1 -4
BITMAP
1C40
1CE0
1CC0
3980
3100
0000
0FE0
3FF0
7830
6030
C030
C030
C030
C030
C030
6030
7070
3FFC
0F8C
0000
0300
0300
01C0
ENDCHAR
STARTCHAR 1F85
ENCODING 8069
SWIDTH 625 0
DWIDTH 15 0
BBX 14 23 1 -4
BITMAP
3840
38E0
38C0
1980
0D00
0000
0FE0
3FF0
7830
6030
C030
C030
C030
C030
C030
6030
7070
3FFC
0F8C
0000
0300
0300
01C0
ENDCHAR
STARTCHAR 1F86
ENCODING 8070
SWIDTH 625 0
DWIDTH 15 0
BBX 14 26 1 -4
BITMAP
0780
0FC0
0840
0000
0300
0300
0300
0400
0000
0FE0
3FF0
7830
6030
C030
C030
C030
C030
C030
6030
7070
3FFC
0F8C
0000
0300
0300
01C0
ENDCHAR
STARTCHAR 1F87
ENCODING 8071
SWIDTH 625 0
DWIDTH 15 0
BBX 14 26 1 -4
BITMAP
0780
0FC0
0840
0000
0300
0300
0300
0080
0000
0FE0
3FF0
7830
6030
C030
C030
C030
C030
C030
6030
7070
3FFC
0F8C
0000
0300
0300
01C0
ENDCHAR
STARTCHAR 1F88
ENCODING 8072
SWIDTH 958 0
DWIDTH 23 0
BBX 22 17 0 0
BITMAP
638000
638000
238000
46C000
86C030
0EE030
0C6030
0C6030
183030
183030
383030
3FF830
3FF830
600C30
600C30
600C3C
C0061C
ENDCHAR
STARTCHAR 1F89
ENCODING 8073
SWIDTH 958 0
DWIDTH 23 0
BBX 22 17 0 0
BITMAP
338000
338000
238000
16C000
0EC030
0EE030
0C6030
0C6030
183030
183030
383030
3FF830
3FF830
600C30
600C30
600C3C
C0061C
ENDCHAR
STARTCHAR 1F8A
ENCODING 8074
SWIDTH 1041 0
DWIDTH 25 0
BBX 26 17 -1 0
BITMAP
72380000
76380000
73380000
E36C0000
C1EC0300
00EE0300
00C60300
00C60300
01830300
01830300
03830300
03FF8300
03FF8300
0600C300
0600C300
0600C3C0
0C0061C0
ENDCHAR
STARTCHAR 1F8B
ENCODING 8075
SWIDTH 1041 0
DWIDTH 25 0
BBX 25 17 -1 0
BITMAP
E4700000
EE700000
E6700000
63D80000
31D80600
01DC0600
018C0600
018C0600
03060600
03060600
07060600
07FF0600
07FF0600
0C018600
0C018600
0C018780
1800C380
ENDCHAR
STARTCHAR 1F8C
ENCODING 8076
SWIDTH 1000 0
DWIDTH 24 0
BBX 26 17 -2 0
BITMAP
71700000
73F00000
73700000
E6D80000
C4D80300
01DC0300
018C0300
018C0300
03060300
03060300
07060300
07FF0300
07FF0300
0C018300
0C018300
0C0183C0
1800C1C0
ENDCHAR
STARTCHAR 1F8D
ENCODING 8077
SWIDTH 1041 0
DWIDTH 25 0
BBX 25 17 -1 0
BITMAP
E1700000
E3F00000
E3700000
66D80000
34D80600
01DC0600
018C0600
018C0600
03060600
03060600
07060600
07FF0600
07FF0600
0C018600
0C018600
0C018780
1800C380
ENDCHAR
STARTCHAR 1F8E
ENCODING 8078
SWIDTH 958 0
DWIDTH 23 0
BBX 23 19 -1 0
BITMAP
780000
FC0000
85C000
01C000
31C000
336000
336018
477018
063018
063018
0C1818
0C1818
1C1818
1FFC18
1FFC18
300618
300618
30061E
60030E
ENDCHAR
STARTCHAR 1F8F
ENCODING 8079
SWIDTH 958 0
DWIDTH 23 0
BBX 22 19 0 0
BITMAP
780000
FC0000
878000
038000
338000
36C000
36C030
0EE030
0C6030
0C6030
183030
183030
383030
3FF830
3FF830
600C30
600C30
600C3C
C0061C
ENDCHAR
STARTCHAR 1F90
ENCODING 8080
SWIDTH 583 0
DWIDTH 14 0
BBX 10 23 2 -4
BITMAP
0600
0600
0200
0400
0800
0000
7F00
FF80
C180
C0C0
C0C0
C0C0
C0C0
C0C0
C0C0
C0C0
C0C0
C0C0
C0C0
00C0
C0C0
C0C0
70C0
ENDCHAR
STARTCHAR 1F91
ENCODING 8081
SWIDTH 583 0
DWIDTH 14 0
BBX 10 23 2 -4
BITMAP
1800
1800
1000
0800
0400
0000
7F00
FF80
C180
C0C0
C0C0
C0C0
C0C0
C0C0
C0C0
C0C0
C0C0
C0C0
C0C0
00C0
C0C0
C0C0
70C0
ENDCHAR
STARTCHAR 1F92
ENCODING 8082
SWIDTH 583 0
DWIDTH 14 0
BBX 10 25 2 -6
BITMAP
7200
7600
7300
E300
C180
0000
7F00
FF80
C180
C0C0
C0C0
C0C0
C0C0
C0C0
C0C0
C0C0
C0C0
C0C0
C0C0
00C0
00C0
C0C0
C0C0
F000
7000
ENDCHAR
STARTCHAR 1F93
ENCODING 8083
SWIDTH 583 0
DWIDTH 14 0
BBX 10 23 2 -4
BITMAP
7200
7700
7300
3180
1880
0000
7F00
FF80
C180
C0C0
C0C0
C0C0
C0C0
C0C0
C0C0
C0C0
C0C0
C0C0
C0C0
00C0
C0C0
C0C0
70C0
ENDCHAR
STARTCHAR 1F94
ENCODING 8084
SWIDTH 583 0
DWIDTH 14 0
BBX 10 23 2 -4
BITMAP
3880
39C0
3980
7300
6200
0000
7F00
FF80
C180
C0C0
C0C0
C0C0
C0C0
C0C0
C0C0
C0C0
C0C0
C0C0
C0C0
00C0
C0C0
C0C0
70C0
ENDCHAR
STARTCHAR 1F95
ENCODING 8085
SWIDTH 583 0
DWIDTH 14 0
BBX 10 23 2 -4
BITMAP
E100
E380
E300
6600
3400
0000
7F00
FF80
C180
C0C0
C0C0
C0C0
C0C0
C0C0
C0C0
C0C0
C0C0
C0C0
C0C0
00C0
C0C0
C0C0
70C0
ENDCHAR
STARTCHAR 1F96
ENCODING 8086
SWIDTH 583 0
DWIDTH 14 0
BBX 10 26 2 -4
BITMAP
1E00
3F00
2100
0000
0C00
0C00
0C00
1000
0000
7F00
FF80
C180
C0C0
C0C0
C0C0
C0C0
C0C0
C0C0
C0C0
C0C0
C0C0
C0C0
00C0
C0C0
C0C0
70C0
ENDCHAR
STARTCHAR 1F97
ENCODING 8087
SWIDTH 583 0
DWIDTH 14 0
BBX 10 26 2 -4
BITMAP
1E00
3F00
2100
0000
0C00
0C00
0C00
0200
0000
7F00
FF80
C180
C0C0
C0C0
C0C0
C0C0
C0C0
C0C0
C0C0
C0C0
C0C0
C0C0
00C0
C0C0
C0C0
70C0
ENDCHAR
STARTCHAR 1F98
ENCODING 8088
SWIDTH 1041 0
DWIDTH 25 0
BBX 27 17 -2 0
BITMAP
63006000
63006000
23006000
43006000
83006180
03006180
03006180
03FFE180
03FFE180
03006180
03006180
03006180
03006180
03006180
03006180
030061E0
030060E0
ENDCHAR
STARTCHAR 1F99
ENCODING 8089
SWIDTH 1041 0
DWIDTH 25 0
BBX 25 17 0 0
BITMAP
CC018000
CC018000
8C018000
4C018000
2C018600
0C018600
0C018600
0FFF8600
0FFF8600
0C018600
0C018600
0C018600
0C018600
0C018600
0C018600
0C018780
0C018380
ENDCHAR
STARTCHAR 1F9A
ENCODING 8090
SWIDTH 1250 0
DWIDTH 30 0
BBX 30 17 -1 0
BITMAP
72600C00
76600C00
73600C00
E3600C00
C1E00C30
00600C30
00600C30
007FFC30
007FFC30
00600C30
00600C30
00600C30
00600C30
00600C30
00600C30
00600C3C
00600C1C
ENDCHAR
STARTCHAR 1F9B
ENCODING 8091
SWIDTH 1208 0
DWIDTH 29 0
BBX 30 17 -1 0
BITMAP
E4600C00
EE600C00
E6600C00
63600C00
31600C30
00600C30
00600C30
007FFC30
007FFC30
00600C30
00600C30
00600C30
00600C30
00600C30
00600C30
00600C3C
00600C1C
ENDCHAR
STARTCHAR 1F9C
ENCODING 8092
SWIDTH 1208 0
DWIDTH 29 0
BBX 31 17 -2 0
BITMAP
71300600
73B00600
73300600
E6300600
C4300618
00300618
00300618
003FFE18
003FFE18
00300618
00300618
00300618
00300618
00300618
00300618
0030061E
0030060E
ENDCHAR
STARTCHAR 1F9D
ENCODING 8093
SWIDTH 1250 0
DWIDTH 30 0
BBX 30 17 -1 0
BITMAP
E1600C00
E3E00C00
E3600C00
66600C00
34600C30
00600C30
00600C30
007FFC30
007FFC30
00600C30
00600C30
00600C30
00600C30
00600C30
00600C30
00600C3C
00600C1C
ENDCHAR
STARTCHAR 1F9E
ENCODING 8094
SWIDTH 1166 0
DWIDTH 28 0
BBX 28 19 -1 0
BITMAP
78000000
FC000000
85803000
01803000
31803000
31803000
318030C0
418030C0
018030C0
01FFF0C0
01FFF0C0
018030C0
018030C0
018030C0
018030C0
018030C0
018030C0
018030F0
01803070
ENDCHAR
STARTCHAR 1F9F
ENCODING 8095
SWIDTH 1166 0
DWIDTH 28 0
BBX 27 19 0 0
BITMAP
78000000
FC000000
87006000
03006000
33006000
33006000
33006180
0B006180
03006180
03FFE180
03FFE180
03006180
03006180
03006180
03006180
03006180
03006180
030061E0
030060E0
ENDCHAR
STARTCHAR 1FA0
ENCODING 8096
SWIDTH 833 0
DWIDTH 20 0
BBX 18 23 1 -4
BITMAP
006000
006000
002000
004000
008000
000000
300300
700380
600180
60C180
C0C0C0
C0C0C0
C0C0C0
C0C0C0
C0C0C0
E1C1C0
61E180
7FFF80
1E1E00
000000
00C000
00C000
007000
ENDCHAR
STARTCHAR 1FA1
ENCODING 8097
SWIDTH 833 0
DWIDTH 20 0
BBX 18 23 1 -4
BITMAP
018000
018000
010000
008000
004000
000000
300300
700380
600180
60C180
C0C0C0
C0C0C0
C0C0C0
C0C0C0
C0C0C0
E1C1C0
61E180
7FFF80
1E1E00
000000
00C000
00C000
007000
ENDCHAR
STARTCHAR 1FA2
ENCODING 8098
SWIDTH 833 0
DWIDTH 20 0
BBX 18 25 1 -6
BITMAP
039000
03B000
039800
071800
060C00
000000
300300
700380
600180
60C180
C0C0C0
C0C0C0
C0C0C0
C0C0C0
C0C0C0
E1C1C0
61E180
7FFF80
1E1E00
000000
000000
00C000
00C000
00F000
007000
ENDCHAR
STARTCHAR 1FA3
ENCODING 8099
SWIDTH 833 0
DWIDTH 20 0
BBX 18 23 1 -4
BITMAP
0E4000
0EE000
0E6000
063000
031000
000000
300300
700380
600180
60C180
C0C0C0
C0C0C0
C0C0C0
C0C0C0
C0C0C0
E1C1C0
61E180
7FFF80
1E1E00
000000
00C000
00C000
007000
ENDCHAR
STARTCHAR 1FA4
ENCODING 8100
SWIDTH 833 0
DWIDTH 20 0
BBX 18 23 1 -4
BITMAP
01C400
01CE00
01CC00
039800
031000
000000
300300
700380
600180
60C180
C0C0C0
C0C0C0
C0C0C0
C0C0C0
C0C0C0
E1C1C0
61E180
7FFF80
1E1E00
000000
00C000
00C000
007000
ENDCHAR
STARTCHAR 1FA5
ENCODING 8101
SWIDTH 833 0
DWIDTH 20 0
BBX 18 23 1 -4
BITMAP
070800
071C00
071800
033000
01A000
000000
300300
700380
600180
60C180
C0C0C0
C0C0C0
C0C0C0
C0C0C0
C0C0C0
E1C1C0
61E180
7FFF80
1E1E00
000000
00C000
00C000
007000
ENDCHAR
STARTCHAR 1FA6
ENCODING 8102
SWIDTH 833 0
DWIDTH 20 0
BBX 18 26 1 -4
BITMAP
01E000
03F000
021000
000000
00C000
00C000
00C000
010000
000000
300300
700380
600180
60C180
C0C0C0
C0C0C0
C0C0C0
C0C0C0
C0C0C0
E1C1C0
61E180
7FFF80
1E1E00
000000
00C000
00C000
007000
ENDCHAR
STARTCHAR 1FA7
ENCODING 8103
SWIDTH 833 0
DWIDTH 20 0
BBX 18 26 1 -4
BITMAP
01E000
03F000
021000
000000
00C000
00C000
00C000
002000
000000
300300
700380
600180
60C180
C0C0C0
C0C0C0
C0C0C0
C0C0C0
C0C0C0
E1C1C0
61E180
7FFF80
1E1E00
000000
00C000
00C000
007000
ENDCHAR
STARTCHAR 1FA8
ENCODING 8104
SWIDTH 1083 0
DWIDTH 26 0
BBX 27 17 -2 0
BITMAP
60FE0000
63FF8000
2783C000
4E00E000
8C006180
18003180
18003180
18003180
18003180
18003180
18003180
0C006180
0E00E180
0601C180
03838180
1FC7F1E0
1FC7F0E0
ENDCHAR
STARTCHAR 1FA9
ENCODING 8105
SWIDTH 1083 0
DWIDTH 26 0
BBX 26 17 0 0
BITMAP
C1FC0000
C7FF0000
8F078000
5C01C000
3800C300
30006300
30006300
30006300
30006300
30006300
30006300
1800C300
1C01C300
0C038300
07070300
3F8FE3C0
3F8FE1C0
ENDCHAR
STARTCHAR 1FAA
ENCODING 8106
SWIDTH 1291 0
DWIDTH 31 0
BBX 31 17 -1 0
BITMAP
7207F000
761FFC00
733C1E00
E3700700
C1E00318
00C00198
00C00198
00C00198
00C00198
00C00198
00C00198
00600318
00700718
00300E18
001C1C18
00FE3F9E
00FE3F8E
ENDCHAR
STARTCHAR 1FAB
ENCODING 8107
SWIDTH 1291 0
DWIDTH 31 0
BBX 31 17 -1 0
BITMAP
E40FE000
EE3FF800
E6783C00
63E00E00
31C00618
01800318
01800318
01800318
01800318
01800318
01800318
00C00618
00E00E18
00601C18
00383818
01FC7F1E
01FC7F0E
ENDCHAR
STARTCHAR 1FAC
ENCODING 8108
SWIDTH 1208 0
DWIDTH 29 0
BBX 31 17 -2 0
BITMAP
710FE000
73BFF800
73783C00
E6E00E00
C4C00618
01800318
01800318
01800318
01800318
01800318
01800318
00C00618
00E00E18
00601C18
00383818
01FC7F1E
01FC7F0E
ENDCHAR
STARTCHAR 1FAD
ENCODING 8109
SWIDTH 1250 0
DWIDTH 30 0
BBX 30 17 -1 0
BITMAP
E11FC000
E3FFF000
E3F07800
67C01C00
35800C30
03000630
03000630
03000630
03000630
03000630
03000630
01800C30
01C01C30
00C03830
00707030
03F8FE3C
03F8FE1C
ENDCHAR
STARTCHAR 1FAE
ENCODING 8110
SWIDTH 1166 0
DWIDTH 28 0
BBX 28 19 -1 0
BITMAP
78000000
FC000000
847F0000
01FFC000
33C1E000
37007000
360030C0
4C0018C0
0C0018C0
0C0018C0
0C0018C0
0C0018C0
0C0018C0
060030C0
070070C0
0300E0C0
01C1C0C0
0FE3F8F0
0FE3F870
ENDCHAR
STARTCHAR 1FAF
ENCODING 8111
SWIDTH 1166 0
DWIDTH 28 0
BBX 28 19 0 0
BITMAP
78000000
FC000000
847F0000
01FFC000
33C1E000
37007000
360030C0
0C0018C0
0C0018C0
0C0018C0
0C0018C0
0C0018C0
0C0018C0
060030C0
070070C0
0300E0C0
01C1C0C0
0FE3F8F0
0FE3F870
ENDCHAR
STARTCHAR 1FB0
ENCODING 8112
SWIDTH 625 0
DWIDTH 15 0
BBX 14 19 1 0
BITMAP
0840
0CC0
0780
0780
0000
0000
0FE0
3FF0
7830
6030
C030
C030
C030
C030
C030
6030
7070
3FFC
0F8C
ENDCHAR
STARTCHAR 1FB1
ENCODING 8113
SWIDTH 625 0
DWIDTH 15 0
BBX 14 17 1 0
BITMAP
1FC0
1FC0
0000
0000
0FE0
3FF0
7830
6030
C030
C030
C030
C030
C030
6030
7070
3FFC
0F8C
ENDCHAR
STARTCHAR 1FB2
ENCODING 8114
SWIDTH 625 0
DWIDTH 15 0
BBX 14 23 1 -4
BITMAP
0400
0E00
0700
0380
0080
0000
0FE0
3FF0
7830
6030
C030
C030
C030
C030
C030
6030
7070
3FFC
0F8C
0000
0300
0300
01C0
ENDCHAR
STARTCHAR 1FB3
ENCODING 8115
SWIDTH 625 0
DWIDTH 15 0
BBX 14 17 1 -4
BITMAP
0FE0
3FF0
7830
6030
C030
C030
C030
C030
C030
6030
7070
3FFC
0F8C
0000
0300
0300
01C0
ENDCHAR
STARTCHAR 1FB4
ENCODING 8116
SWIDTH 625 0
DWIDTH 15 0
BBX 14 23 1 -4
BITMAP
0040
00E0
01C0
0380
0200
0000
0FE0
3FF0
7830
6030
C030
C030
C030
C030
C030
6030
7070
3FFC
0F8C
0000
0300
0300
01C0
ENDCHAR
STARTCHAR 1FB6
ENCODING 8118
SWIDTH 625 0
DWIDTH 15 0
BBX 14 18 1 0
BITMAP
0780
0FC0
0840
0000
0000
0FE0
3FF0
7830
6030
C030
C030
C030
C030
C030
6030
7070
3FFC
0F8C
ENDCHAR
STARTCHAR 1FB7
ENCODING 8119
SWIDTH 625 0
DWIDTH 15 0
BBX 14 22 1 -4
BITMAP
0780
0FC0
0840
0000
0000
0FE0
3FF0
7830
6030
C030
C030
C030
C030
C030
6030
7070
3FFC
0F8C
0000
0300
0300
01C0
ENDCHAR
STARTCHAR 1FB8
ENCODING 8120
SWIDTH 625 0
DWIDTH 15 0
BBX 15 23 0 0
BITMAP
0840
0CC0
0780
0780
0000
0000
0380
0380
0380
06C0
06C0
0EE0
0C60
0C60
1830
1830
3830
3FF8
3FF8
600C
600C
600C
C006
ENDCHAR
STARTCHAR 1FB9
ENCODING 8121
SWIDTH 625 0
DWIDTH 15 0
BBX 15 21 0 0
BITMAP
0FE0
0FE0
0000
0000
0380
0380
0380
06C0
06C0
0EE0
0C60
0C60
1830
1830
3830
3FF8
3FF8
600C
600C
600C
C006
ENDCHAR
STARTCHAR 1FBA
ENCODING 8122
SWIDTH 625 0
DWIDTH 15 0
BBX 16 17 -1 0
BITMAP
41C0
E1C0
71C0
3B60
1360
0770
0630
0630
0C18
0C18
1C18
1FFC
1FFC
3006
3006
3006
6003
ENDCHAR
STARTCHAR 1FBB
ENCODING 8123
SWIDTH 625 0
DWIDTH 15 0
BBX 15 17 0 0
BITMAP
1380
3B80
7380
E6C0
46C0
0EE0
0C60
0C60
1830
1830
3830
3FF8
3FF8
600C
600C
600C
C006
ENDCHAR
STARTCHAR 1FBC
ENCODING 8124
SWIDTH 958 0
DWIDTH 23 0
BBX 22 17 0 0
BITMAP
038000
038000
038000
06C000
06C030
0EE030
0C6030
0C6030
183030
183030
383030
3FF830
3FF830
600C30
600C30
600C3C
C0061C
ENDCHAR
STARTCHAR 1FBD
ENCODING 8125
SWIDTH 375 0
DWIDTH 9 0
BBX 3 5 2 14
BITMAP
60
60
20
40
80
ENDCHAR
STARTCHAR 1FBE
ENCODING 8126
SWIDTH 291 0
DWIDTH 7 0
BBX 4 3 2 -4
BITMAP
C0
C0
70
ENDCHAR
STARTCHAR 1FBF
ENCODING 8127
SWIDTH 375 0
DWIDTH 9 0
BBX 3 5 2 14
BITMAP
60
60
20
40
80
ENDCHAR
STARTCHAR 1FC0
ENCODING 8128
SWIDTH 375 0
DWIDTH 9 0
BBX 6 3 1 15
BITMAP
78
FC
84
ENDCHAR
STARTCHAR 1FC1
ENCODING 8129
SWIDTH 375 0
DWIDTH 9 0
BBX 8 7 0 14
BITMAP
3C
7E
42
00
E7
E7
E7
ENDCHAR
STARTCHAR 1FC2
ENCODING 8130
SWIDTH 583 0
DWIDTH 14 0
BBX 10 23 2 -4
BITMAP
1000
3800
1C00
0E00
0200
0000
7F00
FF80
C180
C0C0
C0C0
C0C0
C0C0
C0C0
C0C0
C0C0
C0C0
C0C0
C0C0
00C0
C0C0
C0C0
70C0
ENDCHAR
STARTCHAR 1FC3
ENCODING 8131
SWIDTH 583 0
DWIDTH 14 0
BBX 10 17 2 -4
BITMAP
7F00
FF80
C180
C0C0
C0C0
C0C0
C0C0
C0C0
C0C0
C0C0
C0C0
C0C0
C0C0
00C0
C0C0
C0C0
70C0
ENDCHAR
STARTCHAR 1FC4
ENCODING 8132
SWIDTH 583 0
DWIDTH 14 0
BBX 10 23 2 -4
BITMAP
0200
0700
0E00
1C00
1000
0000
7F00
FF80
C180
C0C0
C0C0
C0C0
C0C0
C0C0
C0C0
C0C0
C0C0
C0C0
C0C0
00C0
C0C0
C0C0
70C0
ENDCHAR
STARTCHAR 1FC6
ENCODING 8134
SWIDTH 583 0
DWIDTH 14 0
BBX 10 22 2 -4
BITMAP
1E00
3F00
2100
0000
0000
7F00
FF80
C180
C0C0
C0C0
C0C0
C0C0
C0C0
C0C0
C0C0
C0C0
C0C0
C0C0
00C0
00C0
00C0
00C0
ENDCHAR
STARTCHAR 1FC7
ENCODING 8135
SWIDTH 583 0
DWIDTH 14 0
BBX 10 22 2 -4
BITMAP
1E00
3F00
2100
0000
0000
7F00
FF80
C180
C0C0
C0C0
C0C0
C0C0
C0C0
C0C0
C0C0
C0C0
C0C0
C0C0
00C0
C0C0
C0C0
70C0
ENDCHAR
STARTCHAR 1FC8
ENCODING 8136
SWIDTH 708 0
DWIDTH 17 0
BBX 17 17 -1 0
BITMAP
43FF00
E3FF00
730000
3B0000
130000
030000
030000
03FF00
03FF00
030000
030000
030000
030000
030000
030000
03FF80
03FF80
ENDCHAR
STARTCHAR 1FC9
ENCODING 8137
SWIDTH 708 0
DWIDTH 17 0
BBX 17 17 -1 0
BITMAP
13FF00
3BFF00
730000
E30000
430000
030000
030000
03FF00
03FF00
030000
030000
030000
030000
030000
030000
03FF80
03FF80
ENDCHAR
STARTCHAR 1FCA
ENCODING 8138
SWIDTH 833 0
DWIDTH 20 0
BBX 19 17 -1 0
BITMAP
430060
E30060
730060
3B0060
130060
030060
030060
03FFE0
03FFE0
030060
030060
030060
030060
030060
030060
030060
030060
ENDCHAR
STARTCHAR 1FCB
ENCODING 8139
SWIDTH 833 0
DWIDTH 20 0
BBX 19 17 -1 0
BITMAP
130060
3B0060
730060
E30060
430060
030060
030060
03FFE0
03FFE0
030060
030060
030060
030060
030060
030060
030060
030060
ENDCHAR
STARTCHAR 1FCC
ENCODING 8140
SWIDTH 1000 0
DWIDTH 24 0
BBX 21 17 2 0
BITMAP
C01800
C01800
C01800
C01800
C01860
C01860
C01860
FFF860
FFF860
C01860
C01860
C01860
C01860
C01860
C01860
C01878
C01838
ENDCHAR
STARTCHAR 1FCD
ENCODING 8141
SWIDTH 375 0
DWIDTH 9 0
BBX 8 5 0 14
BITMAP
64
6C
66
C6
83
ENDCHAR
STARTCHAR 1FCE
ENCODING 8142
SWIDTH 375 0
DWIDTH 9 0
BBX 8 5 0 14
BITMAP
62
67
66
CC
88
ENDCHAR
STARTCHAR 1FCF
ENCODING 8143
SWIDTH 375 0
DWIDTH 9 0
BBX 6 8 1 14
BITMAP
78
FC
84
00
30
30
30
40
ENDCHAR
STARTCHAR 1FD0
ENCODING 8144
SWIDTH 291 0
DWIDTH 7 0
BBX 6 19 0 0
BITMAP
84
CC
78
78
00
00
30
30
30
30
30
30
30
30
30
30
30
3C
1C
ENDCHAR
STARTCHAR 1FD1
ENCODING 8145
SWIDTH 291 0
DWIDTH 7 0
BBX 7 17 0 0
BITMAP
FE
FE
00
00
30
30
30
30
30
30
30
30
30
30
30
3C
1C
ENDCHAR
STARTCHAR 1FD2
ENCODING 8146
SWIDTH 291 0
DWIDTH 7 0
BBX 12 19 -3 0
BITMAP
0400
EC70
E670
E370
0200
0000
0600
0600
0600
0600
0600
0600
0600
0600
0600
0600
0600
0780
0380
ENDCHAR
STARTCHAR 1FD3
ENCODING 8147
SWIDTH 291 0
DWIDTH 7 0
BBX 12 19 -3 0
BITMAP
0200
E370
E670
EC70
0400
0000
0600
0600
0600
0600
0600
0600
0600
0600
0600
0600
0600
0780
0380
ENDCHAR
STARTCHAR 1FD6
ENCODING 8150
SWIDTH 291 0
DWIDTH 7 0
BBX 6 18 0 0
BITMAP
78
FC
84
00
00
30
30
30
30
30
30
30
30
30
30
30
3C
1C
ENDCHAR
STARTCHAR 1FD7
ENCODING 8151
SWIDTH 291 0
DWIDTH 7 0
BBX 8 21 -1 0
BITMAP
3C
7E
42
00
E7
E7
E7
00
18
18
18
18
18
18
18
18
18
18
18
1E
0E
ENDCHAR
STARTCHAR 1FD8
ENCODING 8152
SWIDTH 250 0
DWIDTH 6 0
BBX 6 23 0 0
BITMAP
84
CC
78
78
00
00
30
30
30
30
30
30
30
30
30
30
30
30
30
30
30
30
30
ENDCHAR
STARTCHAR 1FD9
ENCODING 8153
SWIDTH 250 0
DWIDTH 6 0
BBX 7 21 0 0
BITMAP
FE
FE
00
00
30
30
30
30
30
30
30
30
30
30
30
30
30
30
30
30
30
ENDCHAR
STARTCHAR 1FDA
ENCODING 8154
SWIDTH 375 0
DWIDTH 9 0
BBX 8 17 -1 0
BITMAP
43
E3
73
3B
13
03
03
03
03
03
03
03
03
03
03
03
03
ENDCHAR
STARTCHAR 1FDB
ENCODING 8155
SWIDTH 375 0
DWIDTH 9 0
BBX 8 17 -1 0
BITMAP
13
3B
73
E3
43
03
03
03
03
03
03
03
03
03
03
03
03
ENDCHAR
STARTCHAR 1FDD
ENCODING 8157
SWIDTH 375 0
DWIDTH 9 0
BBX 7 5 1 14
BITMAP
C8
DC
CC
46
22
ENDCHAR
STARTCHAR 1FDE
ENCODING 8158
SWIDTH 375 0
DWIDTH 9 0
BBX 8 5 1 14
BITMAP
C2
C7
C6
4C
28
ENDCHAR
STARTCHAR 1FDF
ENCODING 8159
SWIDTH 375 0
DWIDTH 9 0
BBX 6 8 2 14
BITMAP
78
FC
84
00
30
30
30
08
ENDCHAR
STARTCHAR 1FE0
ENCODING 8160
SWIDTH 583 0
DWIDTH 14 0
BBX 10 19 2 0
BITMAP
2100
3300
1E00
1E00
0000
0000
C0C0
C0C0
C0C0
C0C0
C0C0
C0C0
C0C0
C0C0
C0C0
C0C0
6180
7F80
3F00
ENDCHAR
STARTCHAR 1FE1
ENCODING 8161
SWIDTH 583 0
DWIDTH 14 0
BBX 10 17 2 0
BITMAP
3F80
3F80
0000
0000
C0C0
C0C0
C0C0
C0C0
C0C0
C0C0
C0C0
C0C0
C0C0
C0C0
6180
7F80
3F00
ENDCHAR
STARTCHAR 1FE2
ENCODING 8162
SWIDTH 583 0
DWIDTH 14 0
BBX 12 19 1 0
BITMAP
0400
EC70
E670
E370
0200
0000
6060
6060
6060
6060
6060
6060
6060
6060
6060
6060
30C0
3FC0
1F80
ENDCHAR
STARTCHAR 1FE3
ENCODING 8163
SWIDTH 583 0
DWIDTH 14 0
BBX 12 19 1 0
BITMAP
0200
E370
E670
EC70
0400
0000
6060
6060
6060
6060
6060
6060
6060
6060
6060
6060
30C0
3FC0
1F80
ENDCHAR
STARTCHAR 1FE4
ENCODING 8164
SWIDTH 583 0
DWIDTH 14 0
BBX 11 23 2 -4
BITMAP
0600
0600
0200
0400
0800
0000
1F00
7F80
61C0
E0E0
C060
C060
C060
C060
C060
C0C0
E1C0
FF80
DF00
C000
C000
C000
C000
ENDCHAR
STARTCHAR 1FE5
ENCODING 8165
SWIDTH 583 0
DWIDTH 14 0
BBX 11 23 2 -4
BITMAP
0C00
0C00
0800
0400
0200
0000
1F00
7F80
61C0
E0E0
C060
C060
C060
C060
C060
C0C0
E1C0
FF80
DF00
C000
C000
C000
C000
ENDCHAR
STARTCHAR 1FE6
ENCODING 8166
SWIDTH 583 0
DWIDTH 14 0
BBX 10 18 2 0
BITMAP
1E00
3F00
2100
0000
0000
C0C0
C0C0
C0C0
C0C0
C0C0
C0C0
C0C0
C0C0
C0C0
C0C0
6180
7F80
3F00
ENDCHAR
STARTCHAR 1FE7
ENCODING 8167
SWIDTH 583 0
DWIDTH 14 0
BBX 10 21 2 0
BITMAP
1E00
3F00
2100
0000
7380
7380
7380
0000
C0C0
C0C0
C0C0
C0C0
C0C0
C0C0
C0C0
C0C0
C0C0
C0C0
6180
7F80
3F00
ENDCHAR
STARTCHAR 1FE8
ENCODING 8168
SWIDTH 583 0
DWIDTH 14 0
BBX 14 23 0 0
BITMAP
0840
0CC0
0780
0780
0000
0000
C00C
6018
7038
3030
1860
1860
0CC0
0FC0
0780
0300
0300
0300
0300
0300
0300
0300
0300
ENDCHAR
STARTCHAR 1FE9
ENCODING 8169
SWIDTH 583 0
DWIDTH 14 0
BBX 14 21 0 0
BITMAP
1FC0
1FC0
0000
0000
C00C
6018
7038
3030
1860
1860
0CC0
0FC0
0780
0300
0300
0300
0300
0300
0300
0300
0300
ENDCHAR
STARTCHAR 1FEA
ENCODING 8170
SWIDTH 750 0
DWIDTH 18 0
BBX 18 17 -1 0
BITMAP
4C00C0
E60180
770380
3B0300
118600
018600
00CC00
00FC00
007800
003000
003000
003000
003000
003000
003000
003000
003000
ENDCHAR
STARTCHAR 1FEB
ENCODING 8171
SWIDTH 791 0
DWIDTH 19 0
BBX 19 17 -1 0
BITMAP
160060
3B00C0
7381C0
E18180
40C300
00C300
006600
007E00
003C00
001800
001800
001800
001800
001800
001800
001800
001800
ENDCHAR
STARTCHAR 1FEC
ENCODING 8172
SWIDTH 666 0
DWIDTH 16 0
BBX 16 17 0 0
BITMAP
CFF0
CFFC
8C0E
4C07
2C03
0C03
0C03
0C07
0C0E
0FFC
0FF0
0C00
0C00
0C00
0C00
0C00
0C00
ENDCHAR
STARTCHAR 1FED
ENCODING 8173
SWIDTH 375 0
DWIDTH 9 0
BBX 12 5 -2 14
BITMAP
0400
EC70
E670
E370
0200
ENDCHAR
STARTCHAR 1FEE
ENCODING 8174
SWIDTH 375 0
DWIDTH 9 0
BBX 12 5 -1 14
BITMAP
0200
E370
E670
EC70
0400
ENDCHAR
STARTCHAR 1FEF
ENCODING 8175
SWIDTH 375 0
DWIDTH 9 0
BBX 5 5 1 14
BITMAP
40
E0
70
38
08
ENDCHAR
STARTCHAR 1FF2
ENCODING 8178
SWIDTH 833 0
DWIDTH 20 0
BBX 18 23 1 -4
BITMAP
010000
038000
01C000
00E000
002000
000000
300300
700380
600180
60C180
C0C0C0
C0C0C0
C0C0C0
C0C0C0
C0C0C0
E1C1C0
61E180
7FFF80
1E1E00
000000
00C000
00C000
007000
ENDCHAR
STARTCHAR 1FF3
ENCODING 8179
SWIDTH 833 0
DWIDTH 20 0
BBX 18 17 1 -4
BITMAP
300300
700380
600180
60C180
C0C0C0
C0C0C0
C0C0C0
C0C0C0
C0C0C0
E1C1C0
61E180
7FFF80
1E1E00
000000
00C000
00C000
007000
ENDCHAR
STARTCHAR 1FF4
ENCODING 8180
SWIDTH 833 0
DWIDTH 20 0
BBX 18 23 1 -4
BITMAP
002000
007000
00E000
01C000
010000
000000
300300
700380
600180
60C180
C0C0C0
C0C0C0
C0C0C0
C0C0C0
C0C0C0
E1C1C0
61E180
7FFF80
1E1E00
000000
00C000
00C000
007000
ENDCHAR
STARTCHAR 1FF6
ENCODING 8182
SWIDTH 833 0
DWIDTH 20 0
BBX 18 18 1 0
BITMAP
01E000
03F000
021000
000000
000000
300300
700380
600180
60C180
C0C0C0
C0C0C0
C0C0C0
C0C0C0
C0C0C0
E1C1C0
61E180
7FFF80
1E1E00
ENDCHAR
STARTCHAR 1FF7
ENCODING 8183
SWIDTH 833 0
DWIDTH 20 0
BBX 18 22 1 -4
BITMAP
01E000
03F000
021000
000000
000000
300300
700380
600180
60C180
C0C0C0
C0C0C0
C0C0C0
C0C0C0
C0C0C0
E1C1C0
61E180
7FFF80
1E1E00
000000
00C000
00C000
007000
ENDCHAR
STARTCHAR 1FF8
ENCODING 8184
SWIDTH 875 0
DWIDTH 21 0
BBX 20 17 -1 0
BITMAP
407E00
E1FF80
7381C0
3F00E0
160060
0E0070
0C0030
0C0030
0C0030
0C0030
0C0030
0E0070
060060
0700E0
0381C0
01FF80
007E00
ENDCHAR
STARTCHAR 1FF9
ENCODING 8185
SWIDTH 833 0
DWIDTH 20 0
BBX 19 17 -1 0
BITMAP
10FC00
3BFF00
770380
EE01C0
4C00C0
1C00E0
180060
180060
180060
180060
180060
1C00E0
0C00C0
0E01C0
070380
03FF00
00FC00
ENDCHAR
STARTCHAR 1FFA
ENCODING 8186
SWIDTH 875 0
DWIDTH 21 0
BBX 21 17 -1 0
BITMAP
407F00
E1FFC0
73C1E0
3F0070
160030
0C0018
0C0018
0C0018
0C0018
0C0018
0C0018
060030
070070
0300E0
01C1C0
0FE3F8
0FE3F8
ENDCHAR
STARTCHAR 1FFB
ENCODING 8187
SWIDTH 833 0
DWIDTH 20 0
BBX 20 17 -1 0
BITMAP
10FE00
3BFF80
7783C0
EE00E0
4C0060
180030
180030
180030
180030
180030
180030
0C0060
0E00E0
0601C0
038380
1FC7F0
1FC7F0
ENDCHAR
STARTCHAR 1FFC
ENCODING 8188
SWIDTH 1041 0
DWIDTH 25 0
BBX 24 17 1 0
BITMAP
07F000
1FFC00
3C1E00
700700
60030C
C0018C
C0018C
C0018C
C0018C
C0018C
C0018C
60030C
70070C
300E0C
1C1C0C
FE3F8F
FE3F87
ENDCHAR
STARTCHAR 1FFD
ENCODING 8189
SWIDTH 375 0
DWIDTH 9 0
BBX 5 5 3 14
BITMAP
10
38
70
E0
80
ENDCHAR
STARTCHAR 1FFE
ENCODING 8190
SWIDTH 375 0
DWIDTH 9 0
BBX 3 5 4 14
BITMAP
C0
C0
80
40
20
ENDCHAR
STARTCHAR 2013
ENCODING 8211
SWIDTH 500 0
DWIDTH 12 0
BBX 12 2 0 6
BITMAP
FFF0
FFF0
ENDCHAR
STARTCHAR 2014
ENCODING 8212
SWIDTH 1000 0
DWIDTH 24 0
BBX 24 2 0 6
BITMAP
FFFFFF
FFFFFF
ENDCHAR
STARTCHAR 2015
ENCODING 8213
SWIDTH 1000 0
DWIDTH 24 0
BBX 24 2 0 6
BITMAP
FFFFFF
FFFFFF
ENDCHAR
STARTCHAR 2018
ENCODING 8216
SWIDTH 250 0
DWIDTH 6 0
BBX 3 6 2 12
BITMAP
60
60
40
C0
C0
C0
ENDCHAR
STARTCHAR 2019
ENCODING 8217
SWIDTH 250 0
DWIDTH 6 0
BBX 3 6 1 12
BITMAP
60
60
60
60
C0
C0
ENDCHAR
STARTCHAR 201A
ENCODING 8218
SWIDTH 250 0
DWIDTH 6 0
BBX 3 6 1 -3
BITMAP
60
60
60
60
C0
C0
ENDCHAR
STARTCHAR 201C
ENCODING 8220
SWIDTH 416 0
DWIDTH 10 0
BBX 7 6 2 12
BITMAP
66
66
44
CC
CC
CC
ENDCHAR
STARTCHAR 201D
ENCODING 8221
SWIDTH 416 0
DWIDTH 10 0
BBX 7 6 1 12
BITMAP
66
66
66
66
CC
CC
ENDCHAR
STARTCHAR 201E
ENCODING 8222
SWIDTH 416 0
DWIDTH 10 0
BBX 7 6 1 -3
BITMAP
66
66
66
66
CC
CC
ENDCHAR
STARTCHAR 2020
ENCODING 8224
SWIDTH 458 0
DWIDTH 11 0
BBX 9 20 1 -3
BITMAP
0C00
0C00
0C00
0C00
0C00
FF80
FF80
0C00
0C00
0C00
0C00
0C00
0C00
0C00
0C00
0C00
0C00
0C00
0C00
0C00
ENDCHAR
STARTCHAR 2021
ENCODING 8225
SWIDTH 458 0
DWIDTH 11 0
BBX 9 20 1 -3
BITMAP
0C00
0C00
0C00
0C00
0C00
FF80
FF80
0C00
0C00
0C00
0C00
0C00
FF80
FF80
0C00
0C00
0C00
0C00
0C00
0C00
ENDCHAR
STARTCHAR 2022
ENCODING 8226
SWIDTH 375 0
DWIDTH 9 0
BBX 6 6 2 5
BITMAP
78
FC
FC
FC
FC
78
ENDCHAR
STARTCHAR 2026
ENCODING 8230
SWIDTH 1000 0
DWIDTH 24 0
BBX 19 3 2 0
BITMAP
E0E0E0
E0E0E0
E0E0E0
ENDCHAR
STARTCHAR 2030
ENCODING 8240
SWIDTH 1208 0
DWIDTH 29 0
BBX 27 17 1 0
BITMAP
3C060000
7E0C0000
E71C0000
C3180000
C3300000
C3300000
C3600000
E76F0780
7EDF8FC0
3DB9DCE0
01B0D860
0330D860
0330D860
0630D860
0E39DCE0
0C1F8FC0
180F0780
ENDCHAR
STARTCHAR 2039
ENCODING 8249
SWIDTH 291 0
DWIDTH 7 0
BBX 6 11 1 1
BITMAP
08
1C
38
70
70
E0
70
70
38
1C
08
ENDCHAR
STARTCHAR 203A
ENCODING 8250
SWIDTH 291 0
DWIDTH 7 0
BBX 6 11 0 1
BITMAP
40
E0
70
38
38
1C
38
38
70
E0
40
ENDCHAR
STARTCHAR 2044
ENCODING 8260
SWIDTH 166 0
DWIDTH 4 0
BBX 11 17 -4 0
BITMAP
0060
00C0
00C0
0180
0180
0300
0300
0600
0E00
0C00
1800
1800
3000
3000
6000
6000
C000
ENDCHAR
STARTCHAR 2070
ENCODING 8304
SWIDTH 375 0
DWIDTH 9 0
BBX 7 9 1 8
BITMAP
38
7C
E6
C6
C6
C6
C6
7C
38
ENDCHAR
STARTCHAR 2074
ENCODING 8308
SWIDTH 375 0
DWIDTH 9 0
BBX 7 9 1 8
BITMAP
0C
1C
3C
6C
CC
FE
FE
0C
0C
ENDCHAR
STARTCHAR 2075
ENCODING 8309
SWIDTH 375 0
DWIDTH 9 0
BBX 7 9 1 8
BITMAP
7E
7E
60
78
7E
0E
06
FE
F8
ENDCHAR
STARTCHAR 2076
ENCODING 8310
SWIDTH 375 0
DWIDTH 9 0
BBX 7 9 1 8
BITMAP
1C
7C
60
FC
FE
C6
C6
7E
3C
ENDCHAR
STARTCHAR 2077
ENCODING 8311
SWIDTH 375 0
DWIDTH 9 0
BBX 7 9 1 8
BITMAP
FE
FE
0C
18
18
30
30
60
60
ENDCHAR
STARTCHAR 2078
ENCODING 8312
SWIDTH 375 0
DWIDTH 9 0
BBX 7 9 1 8
BITMAP
7C
FE
C6
7C
7C
C6
C6
FE
7C
ENDCHAR
STARTCHAR 2079
ENCODING 8313
SWIDTH 375 0
DWIDTH 9 0
BBX 7 9 1 8
BITMAP
78
FC
C6
C6
FE
7E
0C
7C
70
ENDCHAR
STARTCHAR 2080
ENCODING 8320
SWIDTH 375 0
DWIDTH 9 0
BBX 7 9 1 0
BITMAP
38
7C
E6
C6
C6
C6
C6
7C
38
ENDCHAR
STARTCHAR 2081
ENCODING 8321
SWIDTH 375 0
DWIDTH 9 0
BBX 4 9 2 0
BITMAP
30
70
F0
B0
30
30
30
30
30
ENDCHAR
STARTCHAR 2082
ENCODING 8322
SWIDTH 375 0
DWIDTH 9 0
BBX 7 9 1 0
BITMAP
7C
FE
46
06
08
30
40
FE
FE
ENDCHAR
STARTCHAR 2083
ENCODING 8323
SWIDTH 375 0
DWIDTH 9 0
BBX 7 9 1 0
BITMAP
78
FC
0C
38
3C
06
06
FE
FC
ENDCHAR
STARTCHAR 2084
ENCODING 8324
SWIDTH 375 0
DWIDTH 9 0
BBX 7 9 1 0
BITMAP
0C
1C
3C
6C
CC
FE
FE
0C
0C
ENDCHAR
STARTCHAR 2085
ENCODING 8325
SWIDTH 375 0
DWIDTH 9 0
BBX 7 9 1 0
BITMAP
7E
7E
60
78
7E
0E
06
FE
F8
ENDCHAR
STARTCHAR 2086
ENCODING 8326
SWIDTH 375 0
DWIDTH 9 0
BBX 7 9 1 0
BITMAP
1C
7C
60
FC
FE
C6
C6
7E
3C
ENDCHAR
STARTCHAR 2087
ENCODING 8327
SWIDTH 375 0
DWIDTH 9 0
BBX 7 9 1 0
BITMAP
FE
FE
0C
18
18
30
30
60
60
ENDCHAR
STARTCHAR 2088
ENCODING 8328
SWIDTH 375 0
DWIDTH 9 0
BBX 7 9 1 0
BITMAP
7C
FE
C6
7C
7C
C6
C6
FE
7C
ENDCHAR
STARTCHAR 2089
ENCODING 8329
SWIDTH 375 0
DWIDTH 9 0
BBX 7 9 1 0
BITMAP
78
FC
C6
C6
FE
7E
0C
7C
70
ENDCHAR
STARTCHAR 20AC
ENCODING 8364
SWIDTH 583 0
DWIDTH 14 0
BBX 13 16 1 0
BITMAP
03F8
0FF8
1C00
1800
3000
FFE0
FFE0
3000
3000
FFC0
FFC0
3000
1800
1C08
0FF8
03F0
ENDCHAR
STARTCHAR 20AE
ENCODING 8366
SWIDTH 583 0
DWIDTH 14 0
BBX 12 17 1 0
BITMAP
FFF0
FFF0
0600
0600
0600
06E0
07E0
0F00
7E00
7600
06E0
07E0
0F00
7E00
7600
0600
0600
ENDCHAR
STARTCHAR 20B4
ENCODING 8372
SWIDTH 583 0
DWIDTH 14 0
BBX 12 17 1 0
BITMAP
1F80
3FC0
20E0
0060
0060
FFF0
FFF0
0380
0F00
1E00
FFF0
FFF0
6000
6000
7060
3FE0
1FC0
ENDCHAR
STARTCHAR 20B9
ENCODING 8377
SWIDTH 583 0
DWIDTH 14 0
BBX 12 17 2 0
BITMAP
FFF0
FFF0
0300
0180
FFE0
FFE0
0180
0700
FF00
FC00
E000
7000
3800
1C00
0E00
0700
0300
ENDCHAR
STARTCHAR 2113
ENCODING 8467
SWIDTH 458 0
DWIDTH 11 0
BBX 9 19 1 0
BITMAP
0F00
1F00
3980
3180
3180
3180
3180
3300
3300
3600
3C00
3800
3000
7000
F000
3000
3800
1F80
0F00
ENDCHAR
STARTCHAR 2116
ENCODING 8470
SWIDTH 1125 0
DWIDTH 27 0
BBX 24 17 2 0
BITMAP
C0187C
E018FE
F019C6
F01983
D81983
DC1983
CC1983
C619C6
C718FE
C3187C
C19800
C1D800
C0D9FF
C079FF
C07800
C03800
C01800
ENDCHAR
STARTCHAR 2122
ENCODING 8482
SWIDTH 750 0
DWIDTH 18 0
BBX 17 8 1 9
BITMAP
FF6300
FF6300
187700
18D580
18D580
18DD80
18C980
18C180
ENDCHAR
STARTCHAR 2126
ENCODING 8486
SWIDTH 791 0
DWIDTH 19 0
BBX 17 17 1 0
BITMAP
07F000
1FFC00
3C1E00
700700
600300
C00180
C00180
C00180
C00180
C00180
C00180
600300
700700
300E00
1C1C00
FE3F80
FE3F80
ENDCHAR
STARTCHAR 212E
ENCODING 8494
SWIDTH 916 0
DWIDTH 22 0
BBX 18 18 2 0
BITMAP
03F000
0FFC00
1E1E00
380700
700380
700380
F00380
F003C0
FFFFC0
FFFFC0
F00000
F00000
700000
700300
380600
1E0C00
0FF800
03E000
ENDCHAR
STARTCHAR 2153
ENCODING 8531
SWIDTH 875 0
DWIDTH 21 0
BBX 18 17 2 0
BITMAP
301800
703000
F03000
B06000
306000
30C000
30C000
318000
338F00
031F80
060180
060700
0C0780
0C00C0
1800C0
181FC0
301F80
ENDCHAR
STARTCHAR 2154
ENCODING 8532
SWIDTH 875 0
DWIDTH 21 0
BBX 19 17 1 0
BITMAP
7C0600
FE0C00
460C00
061800
081800
303000
403000
FE6000
FEE780
00CFC0
0180C0
018380
0303C0
030060
060060
060FE0
0C0FC0
ENDCHAR
STARTCHAR 2155
ENCODING 8533
SWIDTH 875 0
DWIDTH 21 0
BBX 18 17 2 0
BITMAP
301800
703000
F03000
B06000
306000
30C000
30C000
318000
338FC0
030FC0
060C00
060F00
0C0FC0
0C01C0
1800C0
181FC0
301F00
ENDCHAR
STARTCHAR 2156
ENCODING 8534
SWIDTH 875 0
DWIDTH 21 0
BBX 19 17 1 0
BITMAP
7C0600
FE0C00
460C00
061800
081800
303000
403000
FE6000
FEE7E0
00C7E0
018600
018780
0307E0
0300E0
060060
060FE0
0C0F80
ENDCHAR
STARTCHAR 2157
ENCODING 8535
SWIDTH 875 0
DWIDTH 21 0
BBX 19 17 1 0
BITMAP
780600
FC0C00
0C0C00
381800
3C1800
063000
063000
FE6000
FCE7E0
00C7E0
018600
018780
0307E0
0300E0
060060
060FE0
0C0F80
ENDCHAR
STARTCHAR 2158
ENCODING 8536
SWIDTH 875 0
DWIDTH 21 0
BBX 19 17 1 0
BITMAP
0C0600
1C0C00
3C0C00
6C1800
CC1800
FE3000
FE3000
0C6000
0CE7E0
00C7E0
018600
018780
0307E0
0300E0
060060
060FE0
0C0F80
ENDCHAR
STARTCHAR 2159
ENCODING 8537
SWIDTH 875 0
DWIDTH 21 0
BBX 18 17 2 0
BITMAP
300C00
701800
F01800
B03000
303000
306000
306000
30C000
31C380
018F80
030C00
031F80
061FC0
0618C0
0C18C0
0C0FC0
180780
ENDCHAR
STARTCHAR 215A
ENCODING 8538
SWIDTH 875 0
DWIDTH 21 0
BBX 19 17 1 0
BITMAP
7E0600
7E0C00
600C00
781800
7E1800
0E3000
063000
FE6000
FCE1C0
00C7C0
018600
018FC0
030FE0
030C60
060C60
0607E0
0C03C0
ENDCHAR
STARTCHAR 215B
ENCODING 8539
SWIDTH 875 0
DWIDTH 21 0
BBX 18 17 2 0
BITMAP
301800
703000
F03000
B06000
306000
30C000
30C000
318000
338F80
031FC0
0618C0
060F80
0C0F80
0C18C0
1818C0
181FC0
300F80
ENDCHAR
STARTCHAR 215C
ENCODING 8540
SWIDTH 875 0
DWIDTH 21 0
BBX 19 17 1 0
BITMAP
780600
FC0C00
0C0C00
381800
3C1800
063000
063000
FE6000
FCE7C0
00CFE0
018C60
0187C0
0307C0
030C60
060C60
060FE0
0C07C0
ENDCHAR
STARTCHAR 215D
ENCODING 8541
SWIDTH 875 0
DWIDTH 21 0
BBX 19 17 1 0
BITMAP
7E0600
7E0C00
600C00
781800
7E1800
0E3000
063000
FE6000
FCE7C0
00CFE0
018C60
0187C0
0307C0
030C60
060C60
060FE0
0C07C0
ENDCHAR
STARTCHAR 215E
ENCODING 8542
SWIDTH 875 0
DWIDTH 21 0
BBX 19 17 1 0
BITMAP
FE0C00
FE1800
0C1800
183000
183000
306000
306000
60C000
61C7C0
018FE0
030C60
0307C0
0607C0
060C60
0C0C60
0C0FE0
1807C0
ENDCHAR
STARTCHAR 2202
ENCODING 8706
SWIDTH 583 0
DWIDTH 14 0
BBX 12 18 1 0
BITMAP
7F00
7F80
41C0
0060
0060
0030
0FB0
3FF0
7070
6030
C030
C030
C070
C060
C0E0
61C0
7F80
1F00
ENDCHAR
STARTCHAR 2206
ENCODING 8710
SWIDTH 666 0
DWIDTH 16 0
BBX 16 17 0 0
BITMAP
03C0
03C0
07E0
0660
0E70
0C30
0C30
1C38
1818
3818
300C
300C
700E
6006
6006
FFFF
FFFF
ENDCHAR
STARTCHAR 220F
ENCODING 8719
SWIDTH 708 0
DWIDTH 17 0
BBX 13 19 2 -2
BITMAP
FFF8
FFF8
C018
C018
C018
C018
C018
C018
C018
C018
C018
C018
C018
C018
C018
C018
C018
C018
C018
ENDCHAR
STARTCHAR 2211
ENCODING 8721
SWIDTH 500 0
DWIDTH 12 0
BBX 12 20 0 -3
BITMAP
FFF0
FFF0
6000
6000
3000
1800
0C00
0C00
0600
0300
0600
0C00
0C00
1800
3000
3000
6000
C000
FFF0
FFF0
ENDCHAR
STARTCHAR 2212
ENCODING 8722
SWIDTH 583 0
DWIDTH 14 0
BBX 11 2 1 6
BITMAP
FFE0
FFE0
ENDCHAR
STARTCHAR 2215
ENCODING 8725
SWIDTH 166 0
DWIDTH 4 0
BBX 11 17 -4 0
BITMAP
0060
00C0
00C0
0180
0180
0300
0300
0600
0E00
0C00
1800
1800
3000
3000
6000
6000
C000
ENDCHAR
STARTCHAR 2219
ENCODING 8729
SWIDTH 250 0
DWIDTH 6 0
BBX 3 3 1 6
BITMAP
E0
E0
E0
ENDCHAR
STARTCHAR 221A
ENCODING 8730
SWIDTH 583 0
DWIDTH 14 0
BBX 14 20 0 -1
BITMAP
000C
000C
0018
0018
0018
0038
0030
0030
0030
0070
3060
F860
D860
0CE0
0CC0
06C0
06C0
0380
0380
0180
ENDCHAR
STARTCHAR 221E
ENCODING 8734
SWIDTH 583 0
DWIDTH 14 0
BBX 12 6 1 4
BITMAP
79E0
FFF0
C630
C630
FFF0
79E0
ENDCHAR
STARTCHAR 222B
ENCODING 8747
SWIDTH 375 0
DWIDTH 9 0
BBX 9 22 0 -4
BITMAP
0380
0F80
1C00
1800
1800
1800
1800
1800
1800
1800
1800
1800
1800
1800
1800
1800
1800
1800
1800
3800
F000
E000
ENDCHAR
STARTCHAR 2248
ENCODING 8776
SWIDTH 583 0
DWIDTH 14 0
BBX 11 10 1 2
BITMAP
3860
7CE0
E7C0
C380
0000
0000
3860
7CE0
E7C0
C380
ENDCHAR
STARTCHAR 2260
ENCODING 8800
SWIDTH 583 0
DWIDTH 14 0
BBX 11 13 2 1
BITMAP
0080
0180
0180
FFE0
FFE0
0600
0E00
0C00
FFE0
FFE0
3000
3000
2000
ENDCHAR
STARTCHAR 2264
ENCODING 8804
SWIDTH 583 0
DWIDTH 14 0
BBX 12 15 1 0
BITMAP
0020
00F0
07C0
1F00
7800
6000
7800
1F00
07C0
00F0
0020
0000
0000
FFE0
FFE0
ENDCHAR
STARTCHAR 2265
ENCODING 8805
SWIDTH 583 0
DWIDTH 14 0
BBX 11 15 1 0
BITMAP
4000
F000
3E00
0F80
01E0
0060
01E0
0F80
3E00
F000
4000
0000
0000
FFE0
FFE0
ENDCHAR
STARTCHAR 25CA
ENCODING 9674
SWIDTH 541 0
DWIDTH 13 0
BBX 11 17 1 0
BITMAP
0400
0C00
0E00
1B00
3300
3180
60C0
60C0
C060
60C0
60C0
3180
3300
1B00
0E00
0E00
0400
ENDCHAR
STARTCHAR E0FF
ENCODING 57599
SWIDTH 791 0
DWIDTH 19 0
BBX 17 17 1 0
BITMAP
03E000
1FF800
3FEE00
7FC600
7C2F00
F3DF80
F3E780
D7F780
97FF80
D7F780
F3E780
F3CF80
7C3F00
7FCE00
3FEE00
1FF800
07E000
ENDCHAR
STARTCHAR EFFD
ENCODING 61437
SWIDTH 1666 0
DWIDTH 40 0
BBX 39 9 1 0
BITMAP
3800F87038
7C01FCF87C
E6018DCCE6
C600F98CC6
C600F98CC6
C6018D8CC6
C6718D8CC6
7C71FCF87C
3870F87038
ENDCHAR
STARTCHAR F000
ENCODING 61440
SWIDTH 1000 0
DWIDTH 24 0
BBX 20 17 2 0
BITMAP
7F0000
009010
009010
009010
009010
009010
009010
009010
7F0FE0
800010
800010
800010
800010
800010
800010
800010
7F0000
ENDCHAR
STARTCHAR F001
ENCODING 61441
SWIDTH 625 0
DWIDTH 15 0
BBX 11 18 2 0
BITMAP
3E60
7E60
E000
C000
C000
FE60
FE60
C060
C060
C060
C060
C060
C060
C060
C060
C060
C060
C060
ENDCHAR
STARTCHAR F002
ENCODING 61442
SWIDTH 666 0
DWIDTH 16 0
BBX 13 18 2 0
BITMAP
3E60
7E60
E060
C060
C060
FE60
FE60
C060
C060
C060
C060
C060
C060
C060
C060
C060
C078
C038
ENDCHAR
STARTCHAR F0FF
ENCODING 61695
SWIDTH 458 0
DWIDTH 11 0
BBX 11 10 0 8
BITMAP
1F00
3F80
72C0
EFC0
BEE0
BFE0
EEC0
73C0
3F80
1F00
ENDCHAR
STARTCHAR F200
ENCODING 61952
SWIDTH 3500 0
DWIDTH 84 0
BBX 83 18 1 0
BITMAP
0006000000000000000F00
0006000000000C00003EC0
0006000000000C00003AC0
0006000000000C000077E0
0006000000000C00006F60
C0C6F83031FC0FE6066FE0
C0C7FC3031FF0FE60676E0
C0C70E3031830C06063BC0
C0C6063031818C06063EC0
C0C6033031818C06060F00
C0C6033031818C06060000
C0C6033031818C06060000
C0C6033031818C06060000
C0C6033031818C06060000
C0C6063031818C06060000
60C60E1831818E03060000
7FC7FC1FF18187E3FE0000
1F83F007E18183E0FC0000
ENDCHAR
STARTCHAR F506
ENCODING 62726
SWIDTH 875 0
DWIDTH 21 0
BBX 18 17 2 0
BITMAP
301800
703000
F03000
B06000
306000
30C000
30C000
318000
339FC0
031FC0
060180
060300
0C0300
0C0600
180600
180C00
300C00
ENDCHAR
ENDFONT
